G04 #@! TF.GenerationSoftware,KiCad,Pcbnew,(5.1.5)-3*
G04 #@! TF.CreationDate,2020-11-02T01:39:04+01:00*
G04 #@! TF.ProjectId,LogAn,4c6f6741-6e2e-46b6-9963-61645f706362,rev?*
G04 #@! TF.SameCoordinates,Original*
G04 #@! TF.FileFunction,Copper,L3,Inr*
G04 #@! TF.FilePolarity,Positive*
%FSLAX46Y46*%
G04 Gerber Fmt 4.6, Leading zero omitted, Abs format (unit mm)*
G04 Created by KiCad (PCBNEW (5.1.5)-3) date 2020-11-02 01:39:04*
%MOMM*%
%LPD*%
G04 APERTURE LIST*
%ADD10C,0.050000*%
%ADD11C,4.600000*%
%ADD12C,0.600000*%
%ADD13O,2.500000X1.200000*%
%ADD14O,1.900000X1.200000*%
%ADD15O,2.000000X2.000000*%
%ADD16R,1.900000X1.900000*%
%ADD17C,0.500000*%
%ADD18C,0.550000*%
%ADD19C,0.460000*%
%ADD20C,0.200000*%
%ADD21C,0.250000*%
%ADD22C,0.105000*%
%ADD23C,0.130000*%
%ADD24C,0.500000*%
%ADD25C,0.175000*%
%ADD26C,0.150000*%
%ADD27C,1.000000*%
%ADD28C,0.750000*%
G04 APERTURE END LIST*
D10*
X140710920Y-90850720D02*
X65778380Y-90850720D01*
X140716000Y-38854380D02*
X140710920Y-90850720D01*
X65773300Y-38858340D02*
X140716000Y-38854380D01*
X65778380Y-90850720D02*
X65773300Y-38858340D01*
D11*
X81991200Y-73713820D03*
X81991200Y-55963820D03*
D12*
X86407420Y-83262040D03*
X86407420Y-82362040D03*
X86407420Y-81462040D03*
X87307420Y-83262040D03*
X87307420Y-82362040D03*
X87307420Y-81462040D03*
X88207420Y-83262040D03*
X88207420Y-82362040D03*
X88207420Y-81462040D03*
X93941060Y-83256960D03*
X93941060Y-82356960D03*
X93941060Y-81456960D03*
X94841060Y-83256960D03*
X94841060Y-82356960D03*
X94841060Y-81456960D03*
X95741060Y-83256960D03*
X95741060Y-82356960D03*
X95741060Y-81456960D03*
D13*
X134573560Y-73518300D03*
X134573560Y-82158300D03*
D14*
X138753560Y-82158300D03*
X138753560Y-73518300D03*
D15*
X114056160Y-88089740D03*
X111516160Y-88089740D03*
X108976160Y-88089740D03*
X106436160Y-88089740D03*
X103896160Y-88089740D03*
D16*
X101356160Y-88089740D03*
D17*
X127059280Y-52384100D03*
X127059280Y-51184100D03*
X127059280Y-49984100D03*
X127059280Y-48784100D03*
X128259280Y-52384100D03*
X128259280Y-51184100D03*
X128259280Y-49984100D03*
X128259280Y-48784100D03*
X129459280Y-52384100D03*
X129459280Y-51184100D03*
X129459280Y-49984100D03*
X129459280Y-48784100D03*
X130659280Y-52384100D03*
X130659280Y-51184100D03*
X130659280Y-49984100D03*
X130659280Y-48784100D03*
D18*
X134203440Y-49966880D03*
X134101840Y-46817280D03*
D19*
X96677480Y-67503040D03*
X99527360Y-68915280D03*
X98813620Y-69618860D03*
D18*
X126746000Y-40492680D03*
X126740920Y-41236900D03*
X126763780Y-42039540D03*
X126763780Y-42867580D03*
X126763780Y-43715940D03*
X123908820Y-47767240D03*
D19*
X98826320Y-65384680D03*
X103083360Y-68206620D03*
X101663500Y-66804540D03*
X96692720Y-66090800D03*
X103052880Y-66796920D03*
X134200900Y-49242980D03*
D18*
X123891040Y-52006500D03*
X134099300Y-45234860D03*
D19*
X98104960Y-70337680D03*
X100934520Y-70340220D03*
X101635560Y-68204080D03*
X99512120Y-66088260D03*
X95968820Y-66807080D03*
X95976440Y-68209160D03*
X98811080Y-64005460D03*
X97386140Y-65382140D03*
X116443760Y-62478920D03*
X117043200Y-62478920D03*
X99507040Y-64686180D03*
D18*
X119265700Y-57271920D03*
X119265700Y-58074560D03*
X119278400Y-58935620D03*
X119298720Y-59783980D03*
X119288560Y-60619640D03*
X118544340Y-59369960D03*
X118539260Y-58498740D03*
X118546880Y-57678320D03*
X118529100Y-60200540D03*
X123896120Y-50645060D03*
D19*
X134152640Y-54221380D03*
X102351840Y-66123820D03*
X97985580Y-45686980D03*
X101631540Y-43698740D03*
X99641540Y-42618740D03*
X97221540Y-42628740D03*
X101631540Y-49298740D03*
X100027740Y-49296320D03*
X97901540Y-50348740D03*
X94431540Y-49298740D03*
X96031540Y-49298740D03*
X95661540Y-50348740D03*
X98211640Y-59115960D03*
X97251520Y-62694820D03*
X104471540Y-62578740D03*
X101641540Y-61168740D03*
X99484180Y-56090820D03*
X94091760Y-50340260D03*
X93444060Y-44091860D03*
X95641160Y-42705020D03*
X96436180Y-42636440D03*
X105691940Y-50162460D03*
X103411020Y-50170080D03*
X98559620Y-45382180D03*
X105224580Y-42697400D03*
X103634540Y-42717720D03*
D18*
X119603520Y-39926260D03*
X119603520Y-40741600D03*
X119613680Y-41587420D03*
X119623840Y-42415460D03*
X119623840Y-43261280D03*
X119628920Y-44127420D03*
X118826280Y-41168320D03*
X118798340Y-42001440D03*
X118798340Y-42837100D03*
X118808500Y-43693080D03*
X109179360Y-40848280D03*
X120568720Y-46913800D03*
D19*
X100831540Y-48498740D03*
X101621540Y-59748740D03*
X100027740Y-44495720D03*
X102918260Y-62669420D03*
X100931540Y-64708740D03*
X100831540Y-50128740D03*
X100921540Y-60458740D03*
X101631540Y-48498740D03*
X100830380Y-44495720D03*
X102212140Y-61986160D03*
X98668840Y-62699900D03*
X101455220Y-42668742D03*
X102431540Y-48498740D03*
X102341540Y-60438740D03*
X101627940Y-44498260D03*
X97952560Y-61988700D03*
X103041540Y-59748740D03*
X103231540Y-49298740D03*
X102331540Y-59048740D03*
X103231540Y-48498740D03*
X104031540Y-49298740D03*
X103041540Y-61168740D03*
X104031540Y-48498740D03*
X105871540Y-62568740D03*
X104031540Y-44498740D03*
X100931540Y-61868740D03*
X104031540Y-43698740D03*
X100223320Y-62555120D03*
X104831540Y-49298740D03*
X103751540Y-61868740D03*
X105181540Y-63288740D03*
X104831540Y-48498740D03*
X104831540Y-44498740D03*
X101501540Y-62458740D03*
X104831540Y-43698740D03*
X99511540Y-61738740D03*
X104471540Y-61168740D03*
X105631540Y-49298740D03*
X105161540Y-61858740D03*
X105631540Y-48498740D03*
X103051540Y-63988740D03*
X105631540Y-44498740D03*
X105631540Y-43698740D03*
X101631540Y-65398740D03*
X98091540Y-63288740D03*
X106451400Y-49303940D03*
X103761540Y-63288740D03*
X106561540Y-48498740D03*
X102341540Y-64698740D03*
X106431540Y-44498740D03*
X106441540Y-43698740D03*
X101633020Y-64025780D03*
D18*
X83080860Y-64576960D03*
X118041420Y-49768760D03*
X78887320Y-55999380D03*
X130446780Y-85686900D03*
X81998820Y-42410380D03*
X82039460Y-87348060D03*
X84729320Y-61450220D03*
X83159600Y-70429120D03*
X85625940Y-73098660D03*
D19*
X100919280Y-74561700D03*
D18*
X66687700Y-43223180D03*
X68559680Y-43243500D03*
X67640200Y-43228260D03*
X68610480Y-86438740D03*
X67691000Y-86423500D03*
X66738500Y-86418420D03*
X73804780Y-67345560D03*
X73832720Y-72214740D03*
X76842620Y-80124300D03*
X76845160Y-85115400D03*
X76857860Y-75250040D03*
X70350380Y-85031580D03*
X70350380Y-80065880D03*
X76875640Y-54533800D03*
X76860400Y-49618900D03*
X76845160Y-44660820D03*
X70337680Y-44610020D03*
X70350380Y-49613820D03*
X70370700Y-75255120D03*
X70378320Y-54449980D03*
X73822560Y-57414160D03*
X73807320Y-62293500D03*
X69888100Y-57210960D03*
X69890640Y-62270640D03*
X69883020Y-67337940D03*
X69872860Y-72443340D03*
X90490040Y-78082140D03*
X91554300Y-78084680D03*
X81429860Y-83657440D03*
X81437480Y-84404200D03*
X82575400Y-79938880D03*
X83319620Y-79936340D03*
D19*
X110413800Y-80556100D03*
X101140260Y-85976460D03*
X98752660Y-87541100D03*
X99407980Y-87536020D03*
D18*
X139280900Y-69949060D03*
X131577080Y-62509400D03*
X131577080Y-63693040D03*
X137850880Y-55305960D03*
X137830560Y-55989220D03*
X129202180Y-60970160D03*
X126679960Y-60977780D03*
X125463300Y-40182800D03*
X125473460Y-40919400D03*
X119788940Y-54449980D03*
X119799100Y-55110380D03*
D19*
X133060440Y-45034200D03*
X133068060Y-44361100D03*
D18*
X123553220Y-46113700D03*
X123555760Y-45351700D03*
X115008660Y-79692500D03*
X124734320Y-75321160D03*
X127238760Y-78305660D03*
D19*
X118170960Y-72595740D03*
D18*
X118831360Y-83568540D03*
X117256560Y-86352380D03*
X122372120Y-79550260D03*
X117645180Y-79512160D03*
X117627400Y-74907140D03*
X122346720Y-74907140D03*
D19*
X106580940Y-66093340D03*
X98818700Y-66786760D03*
X116466620Y-63243460D03*
X98795840Y-71043800D03*
X101640640Y-71036180D03*
X105166160Y-71742300D03*
X106588560Y-68922900D03*
X103741220Y-67505580D03*
X100220780Y-69634100D03*
X100934520Y-67500500D03*
X100934520Y-66093340D03*
X98094800Y-66088260D03*
X95275400Y-67508120D03*
X96687640Y-68917820D03*
X99512120Y-73164700D03*
X97396300Y-72456040D03*
X98806000Y-76705460D03*
X98099880Y-64676020D03*
X115806220Y-63235840D03*
X110835440Y-67495420D03*
X107998260Y-66098420D03*
X104317800Y-65222120D03*
X113858040Y-58013600D03*
X112097820Y-56405780D03*
X103578660Y-75097640D03*
X95275400Y-74582020D03*
X93860620Y-70337680D03*
X91020900Y-68922900D03*
X88097360Y-67505580D03*
X92448380Y-66093340D03*
X97251520Y-64091820D03*
X95333820Y-59870340D03*
X99659440Y-59171840D03*
X95262700Y-63261240D03*
X99231540Y-43698740D03*
X100831540Y-43688740D03*
X98831540Y-42628740D03*
X98051540Y-42628740D03*
X97631540Y-43698740D03*
X96831540Y-43698740D03*
X100831540Y-49298740D03*
X96831540Y-49298740D03*
X97001540Y-50348740D03*
X95231540Y-48498740D03*
X103751540Y-60458740D03*
X102298500Y-63350140D03*
X98871540Y-61168740D03*
X94846140Y-50347880D03*
X98869500Y-50347880D03*
X96377760Y-50348740D03*
X94028260Y-42699940D03*
X94835980Y-42694860D03*
X106690160Y-50241200D03*
X102829360Y-50474880D03*
X104914700Y-50170080D03*
X108841540Y-43634660D03*
X103088440Y-40624760D03*
X106024680Y-42697400D03*
X104427020Y-42697400D03*
X102880160Y-42712640D03*
X98871540Y-61168740D03*
X112786160Y-74071480D03*
X99517200Y-70337680D03*
D18*
X130436620Y-87906860D03*
X123588780Y-87299800D03*
X130446780Y-83411060D03*
X122574140Y-83577340D03*
D19*
X126606300Y-82600800D03*
D18*
X116527580Y-84594700D03*
X139222480Y-49781460D03*
X139222480Y-53576220D03*
X139222480Y-45925740D03*
X139222480Y-51297840D03*
X125021340Y-63660020D03*
X125039120Y-62501780D03*
X128219200Y-75328780D03*
D19*
X105651300Y-84836000D03*
X113240820Y-82948780D03*
D18*
X90746580Y-89049860D03*
X79692500Y-70406260D03*
X79644240Y-63268860D03*
X84505800Y-62575440D03*
X86728300Y-78204060D03*
X139199620Y-47960280D03*
X122803920Y-67320160D03*
X122803920Y-68122800D03*
D19*
X78991460Y-52336700D03*
X78826360Y-53921660D03*
X87579200Y-61716920D03*
X88465660Y-60805060D03*
D18*
X113118900Y-79679800D03*
X124439680Y-54439820D03*
X125232160Y-55313580D03*
X124444760Y-55313580D03*
X127678180Y-46230540D03*
X132240020Y-54449980D03*
X132255260Y-55328820D03*
X132994400Y-54449980D03*
X132999480Y-55323740D03*
X125237240Y-54439820D03*
X130025140Y-45443140D03*
X127675640Y-45369480D03*
X130025140Y-46248320D03*
X131396740Y-70703440D03*
X130611880Y-70703440D03*
X129834640Y-70703440D03*
X129049780Y-70698360D03*
X129052320Y-71534020D03*
X128262380Y-70672960D03*
D19*
X105890060Y-69631560D03*
D18*
X112247680Y-80342740D03*
X130596640Y-77934820D03*
X130596640Y-76774040D03*
D19*
X105161080Y-68917820D03*
X111777780Y-67495420D03*
X107292140Y-66776600D03*
X100030280Y-50129440D03*
X103230680Y-43700700D03*
D18*
X124792740Y-74020680D03*
X122148600Y-85379560D03*
X118038880Y-83576160D03*
X121439940Y-83566000D03*
D19*
X117152420Y-72605900D03*
D18*
X139280900Y-71516240D03*
X128160780Y-74267060D03*
X91899740Y-83403440D03*
D19*
X103540560Y-84574380D03*
X102989380Y-79682340D03*
X103642160Y-79692500D03*
X102989380Y-79019400D03*
X103637080Y-79019400D03*
X102999540Y-78359000D03*
X103667560Y-78351380D03*
X104287320Y-79032100D03*
X104292400Y-78364080D03*
X134096760Y-52918360D03*
X118544340Y-66375280D03*
X119189500Y-66370200D03*
X118539260Y-65755520D03*
X107452160Y-71219060D03*
X108706920Y-68206620D03*
X104454960Y-69623940D03*
X100924360Y-75989180D03*
X102346760Y-73149460D03*
X99512120Y-71747380D03*
X98104960Y-74571860D03*
X99517200Y-77396340D03*
X108315760Y-63799720D03*
X110446820Y-64066420D03*
X105879900Y-66791840D03*
D18*
X110378240Y-61686440D03*
D19*
X119169180Y-65775840D03*
X110660180Y-76123800D03*
D18*
X126779020Y-66931540D03*
X127853440Y-66962020D03*
X128945640Y-66977260D03*
X129979420Y-66977260D03*
X131015740Y-66989960D03*
X130512820Y-65968880D03*
X129448560Y-65925700D03*
X128427480Y-65925700D03*
X127264160Y-65925700D03*
X130553460Y-68069460D03*
X129476500Y-68069460D03*
X128427480Y-68082160D03*
X127307340Y-68097400D03*
X136151620Y-65915540D03*
X113118900Y-81437480D03*
X101160580Y-77396340D03*
X89631520Y-79039720D03*
D19*
X92471240Y-62628780D03*
X98755200Y-81043780D03*
D18*
X128154430Y-79406750D03*
X132920740Y-69994780D03*
D19*
X105895140Y-68216780D03*
X96682560Y-73162160D03*
X96695260Y-74579480D03*
X95986600Y-71043800D03*
X95247460Y-71752460D03*
X91028520Y-70324980D03*
X90309700Y-69644260D03*
X91747340Y-68211700D03*
X89697560Y-68917820D03*
X88097360Y-62191900D03*
X93146880Y-65377060D03*
X78308200Y-53385720D03*
X88943180Y-61343540D03*
X92440760Y-64673480D03*
X78318360Y-52748180D03*
X89555320Y-67505580D03*
X90335100Y-68214240D03*
X92458540Y-67508120D03*
X93151960Y-66799460D03*
X91036140Y-67505580D03*
X94556580Y-65387220D03*
X93850460Y-64681100D03*
X88790780Y-68211700D03*
D18*
X97716340Y-82679540D03*
X96738440Y-80718660D03*
X83540600Y-85628480D03*
X83530440Y-86497160D03*
X83540600Y-87386160D03*
X83550760Y-88214200D03*
X83576160Y-89075260D03*
X78295500Y-72334120D03*
X78110080Y-61231780D03*
X71739760Y-57205880D03*
X71752460Y-62270640D03*
X71780400Y-67337940D03*
X71798180Y-72423020D03*
D19*
X133248400Y-50835560D03*
X97391220Y-76702920D03*
D18*
X91920060Y-81079340D03*
D19*
X97185480Y-78407260D03*
X97584260Y-77929740D03*
X106108500Y-80035400D03*
X102341680Y-71760080D03*
X105455720Y-80032860D03*
X101627940Y-72468740D03*
X113985040Y-63738760D03*
X104460040Y-68201540D03*
X112082580Y-83195160D03*
X103766620Y-68917820D03*
X110954820Y-83187540D03*
X103047800Y-69623940D03*
X109860080Y-83185000D03*
X104818180Y-80322420D03*
X100934520Y-71757540D03*
X113190800Y-64063880D03*
X104457500Y-66784220D03*
X109827060Y-62166500D03*
X102351840Y-68915280D03*
X108117640Y-80556100D03*
X106768900Y-80032860D03*
X100228400Y-71028560D03*
X110134400Y-62885320D03*
X109057440Y-62997080D03*
X102339140Y-67505580D03*
X109108240Y-80551020D03*
X109286040Y-63654940D03*
X114884200Y-63746380D03*
X100228400Y-65382140D03*
X100385880Y-80149700D03*
X113080800Y-62290960D03*
X96687640Y-64676020D03*
X95984060Y-65379600D03*
X102516940Y-51010820D03*
X102212140Y-42712640D03*
D18*
X90164920Y-81965800D03*
X85295740Y-84508340D03*
X85394800Y-80754220D03*
X127975360Y-60962540D03*
X128168400Y-54879240D03*
X130492500Y-60977780D03*
X129042160Y-54864000D03*
D19*
X133087940Y-52834100D03*
X133253480Y-51836320D03*
D18*
X135006080Y-78755240D03*
X134983220Y-75971400D03*
X96718120Y-85943440D03*
X96707960Y-86664800D03*
X96707960Y-87403940D03*
X96713040Y-88219280D03*
X96743520Y-89021920D03*
X97571560Y-80744060D03*
X78887320Y-41112440D03*
X83060540Y-63266320D03*
X66687700Y-40716200D03*
X68559680Y-40736520D03*
X67640200Y-40721280D03*
X75857100Y-80116680D03*
X75857100Y-85074760D03*
X75869800Y-75255120D03*
X71285100Y-85026500D03*
X71285100Y-80060800D03*
X75930760Y-54538880D03*
X75859640Y-49616360D03*
X75874880Y-44668440D03*
X71272400Y-44604940D03*
X71285100Y-49608740D03*
X71305420Y-75250040D03*
X71313040Y-54444900D03*
D19*
X102295960Y-79656940D03*
X101653340Y-79656940D03*
X101015800Y-79656940D03*
X101015800Y-78986380D03*
X101668580Y-78996540D03*
X102303580Y-78994000D03*
X101673660Y-78351380D03*
X101025960Y-78348840D03*
X102316280Y-78351380D03*
X95267780Y-66088260D03*
X91727020Y-63964820D03*
X93146880Y-68206620D03*
X95968820Y-72453500D03*
X93141800Y-71038720D03*
X90327480Y-66804540D03*
D18*
X84686140Y-71145400D03*
X66751200Y-88963500D03*
X90017600Y-83987640D03*
X90015060Y-84777580D03*
X89245440Y-84772500D03*
X89253060Y-83990180D03*
X97553780Y-83990180D03*
X96733360Y-84818220D03*
X97558860Y-84810600D03*
X132577840Y-89433400D03*
X133370320Y-89433400D03*
X134165340Y-89443560D03*
X131782820Y-89428320D03*
X96728560Y-83989900D03*
X131151630Y-89962990D03*
X68585080Y-88981280D03*
X67657980Y-88968580D03*
X79819500Y-90002360D03*
X80650080Y-90002360D03*
X81498440Y-90002360D03*
X76730860Y-42402760D03*
X134033260Y-42418000D03*
X76710540Y-87332820D03*
X137200640Y-84124800D03*
D19*
X97391220Y-66799460D03*
X96685100Y-70335140D03*
D18*
X83426300Y-45364400D03*
X130929380Y-73667620D03*
X131658360Y-73667620D03*
X135321040Y-79552800D03*
X136037320Y-79552800D03*
X79654400Y-64010540D03*
X79032100Y-74965560D03*
X122161300Y-86339680D03*
X122161300Y-87282020D03*
X117266720Y-87269320D03*
X117256560Y-85394800D03*
X115006120Y-78595220D03*
X132900420Y-71574660D03*
X115001040Y-77604620D03*
X115115340Y-76616560D03*
X114145060Y-79700120D03*
D20*
X101663500Y-66804540D02*
X101754940Y-66804540D01*
D21*
X102859840Y-66989960D02*
X103052880Y-66796920D01*
X101663500Y-66804540D02*
X101848920Y-66989960D01*
X101848920Y-66989960D02*
X102859840Y-66989960D01*
X134099300Y-45234860D02*
X134099300Y-45321220D01*
X134099300Y-45321220D02*
X132250180Y-47170340D01*
X132250180Y-47170340D02*
X125971300Y-47170340D01*
X125971300Y-47170340D02*
X123032520Y-50109120D01*
X123032520Y-51147980D02*
X123891040Y-52006500D01*
X123032520Y-50109120D02*
X123032520Y-51147980D01*
X133715760Y-53784500D02*
X134152640Y-54221380D01*
X127010160Y-53784500D02*
X133715760Y-53784500D01*
X123896120Y-50645060D02*
X123896120Y-50670460D01*
X123896120Y-50670460D02*
X127010160Y-53784500D01*
D22*
X100581540Y-48248740D02*
X100831540Y-48498740D01*
X100191540Y-48248740D02*
X100581540Y-48248740D01*
X100151540Y-48288740D02*
X100191540Y-48248740D01*
X100151540Y-48568000D02*
X100151540Y-48288740D01*
X100037900Y-48681640D02*
X100151540Y-48568000D01*
X99822000Y-48681640D02*
X100037900Y-48681640D01*
X99705160Y-48564800D02*
X99822000Y-48681640D01*
X99705160Y-48332360D02*
X99705160Y-48564800D01*
X99621540Y-48248740D02*
X99705160Y-48332360D01*
X98071540Y-48248740D02*
X99621540Y-48248740D01*
X98001540Y-48318740D02*
X98071540Y-48248740D01*
X98001540Y-48598740D02*
X98001540Y-48318740D01*
X98081540Y-48678740D02*
X98001540Y-48598740D01*
X99067260Y-48678740D02*
X98081540Y-48678740D01*
X99435920Y-49047400D02*
X99067260Y-48678740D01*
X99435920Y-51208940D02*
X99435920Y-49047400D01*
X99306380Y-51338480D02*
X99435920Y-51208940D01*
X94124780Y-51412140D02*
X94124780Y-52928520D01*
X94056200Y-51343560D02*
X94124780Y-51412140D01*
X93802200Y-51343560D02*
X94056200Y-51343560D01*
X93710760Y-51435000D02*
X93802200Y-51343560D01*
X93710760Y-53101240D02*
X93710760Y-51435000D01*
X98465640Y-57856120D02*
X93710760Y-53101240D01*
X98574860Y-57856120D02*
X98465640Y-57856120D01*
X99049840Y-58331100D02*
X98574860Y-57856120D01*
X99974400Y-58331100D02*
X99049840Y-58331100D01*
X101392040Y-59748740D02*
X99974400Y-58331100D01*
X101621540Y-59748740D02*
X101392040Y-59748740D01*
X95328740Y-54132480D02*
X95465900Y-54132480D01*
X94124780Y-52928520D02*
X95328740Y-54132480D01*
X95465900Y-54132480D02*
X95603060Y-53995320D01*
X94533720Y-52793900D02*
X94533720Y-51440080D01*
X95603060Y-53995320D02*
X95603060Y-53863240D01*
X95603060Y-53863240D02*
X94533720Y-52793900D01*
X98369120Y-51343560D02*
X98612960Y-51099720D01*
X94630240Y-51343560D02*
X98369120Y-51343560D01*
X94533720Y-51440080D02*
X94630240Y-51343560D01*
X98612960Y-51099720D02*
X98833940Y-51099720D01*
X98833940Y-51099720D02*
X99072700Y-51338480D01*
X99072700Y-51338480D02*
X99306380Y-51338480D01*
X99982020Y-44541440D02*
X100027740Y-44495720D01*
X99529900Y-44541440D02*
X99982020Y-44541440D01*
X99392740Y-44678600D02*
X99529900Y-44541440D01*
X97574100Y-44678600D02*
X99392740Y-44678600D01*
X97378520Y-44874180D02*
X97574100Y-44678600D01*
X97378520Y-45204380D02*
X97378520Y-44874180D01*
X97144840Y-45438060D02*
X97378520Y-45204380D01*
X96812100Y-45438060D02*
X97144840Y-45438060D01*
X102911540Y-62718740D02*
X102773320Y-62580520D01*
X101437440Y-63560960D02*
X100251260Y-63560960D01*
X102417880Y-62580520D02*
X101437440Y-63560960D01*
X102773320Y-62580520D02*
X102417880Y-62580520D01*
X100251260Y-63560960D02*
X90685620Y-53995320D01*
X90685620Y-53995320D02*
X90685620Y-49837340D01*
X96517460Y-44648120D02*
X96700340Y-44831000D01*
X95874840Y-44648120D02*
X96517460Y-44648120D01*
X90685620Y-49837340D02*
X95874840Y-44648120D01*
X96700340Y-44831000D02*
X96700340Y-45326300D01*
X96700340Y-45326300D02*
X96812100Y-45438060D01*
X101631540Y-48486790D02*
X101631540Y-48498740D01*
X101996240Y-48122090D02*
X101631540Y-48486790D01*
X101996240Y-47932340D02*
X101996240Y-48122090D01*
X101862640Y-47798740D02*
X101996240Y-47932340D01*
X96503740Y-47798740D02*
X101862640Y-47798740D01*
X96381540Y-47920940D02*
X96503740Y-47798740D01*
X96381540Y-48588740D02*
X96381540Y-47920940D01*
X96531540Y-48738740D02*
X96381540Y-48588740D01*
X96861680Y-48738740D02*
X96531540Y-48738740D01*
X96981540Y-48618880D02*
X96861680Y-48738740D01*
X96981540Y-48408740D02*
X96981540Y-48618880D01*
X97071540Y-48318740D02*
X96981540Y-48408740D01*
X97381540Y-48318740D02*
X97071540Y-48318740D01*
X97501540Y-48438740D02*
X97381540Y-48318740D01*
X97501540Y-49678740D02*
X97501540Y-48438740D01*
X97601540Y-49778740D02*
X97501540Y-49678740D01*
X97815580Y-49778740D02*
X97601540Y-49778740D01*
X93662500Y-50721260D02*
X93873320Y-50932080D01*
X93403420Y-50721260D02*
X93662500Y-50721260D01*
X93301540Y-50823140D02*
X93403420Y-50721260D01*
X93301540Y-53291460D02*
X93301540Y-50823140D01*
X98209100Y-58199020D02*
X93301540Y-53291460D01*
X98463100Y-58199020D02*
X98209100Y-58199020D01*
X98940620Y-58676540D02*
X98463100Y-58199020D01*
X100921540Y-60458740D02*
X100309680Y-59846880D01*
X100309680Y-59846880D02*
X100309680Y-59128660D01*
X97922080Y-49672240D02*
X97815580Y-49778740D01*
X100309680Y-59128660D02*
X99857560Y-58676540D01*
X99857560Y-58676540D02*
X98940620Y-58676540D01*
X93873320Y-50932080D02*
X98186240Y-50932080D01*
X98186240Y-50932080D02*
X98381820Y-50736500D01*
X98381820Y-50736500D02*
X98381820Y-49667160D01*
X98381820Y-49667160D02*
X98473260Y-49575720D01*
X98473260Y-49575720D02*
X98945700Y-49575720D01*
X98945700Y-49575720D02*
X99016820Y-49504600D01*
X99016820Y-49504600D02*
X99016820Y-49278540D01*
X99016820Y-49278540D02*
X98851720Y-49113440D01*
X98851720Y-49113440D02*
X98044000Y-49113440D01*
X97922080Y-49235360D02*
X97922080Y-49672240D01*
X98044000Y-49113440D02*
X97922080Y-49235360D01*
X102273100Y-62090300D02*
X102201540Y-62018740D01*
X102273100Y-62428120D02*
X102273100Y-62090300D01*
X101351080Y-63350140D02*
X102273100Y-62428120D01*
X100337620Y-63350140D02*
X101351080Y-63350140D01*
X90896440Y-53908960D02*
X100337620Y-63350140D01*
X90896440Y-49923700D02*
X90896440Y-53908960D01*
X97661140Y-44888740D02*
X97589340Y-44960540D01*
X95958660Y-44861480D02*
X90896440Y-49923700D01*
X100587220Y-44888740D02*
X97661140Y-44888740D01*
X97231200Y-45648880D02*
X96723200Y-45648880D01*
X97589340Y-44960540D02*
X97589340Y-45290740D01*
X96723200Y-45648880D02*
X96489520Y-45415200D01*
X96433640Y-44861480D02*
X95958660Y-44861480D01*
X100830380Y-44495720D02*
X100830380Y-44645580D01*
X97589340Y-45290740D02*
X97231200Y-45648880D01*
X96489520Y-45415200D02*
X96489520Y-44917360D01*
X100830380Y-44645580D02*
X100587220Y-44888740D01*
X96489520Y-44917360D02*
X96433640Y-44861480D01*
X97946160Y-62708740D02*
X98671540Y-62708740D01*
X95758000Y-60520580D02*
X97946160Y-62708740D01*
X95191580Y-60520580D02*
X95758000Y-60520580D01*
X94703900Y-60032900D02*
X95191580Y-60520580D01*
X94703900Y-59529980D02*
X94703900Y-60032900D01*
X93898720Y-58724800D02*
X94703900Y-59529980D01*
X93485335Y-58724800D02*
X93898720Y-58724800D01*
X92890340Y-57718960D02*
X93266260Y-58094880D01*
X101455220Y-42668742D02*
X100366278Y-42668742D01*
X89771540Y-54564600D02*
X92247720Y-57040780D01*
X89771540Y-49278220D02*
X89771540Y-54564600D01*
X95901020Y-43148740D02*
X89771540Y-49278220D01*
X99886280Y-43148740D02*
X95901020Y-43148740D01*
X100366278Y-42668742D02*
X99886280Y-43148740D01*
X92247720Y-57040780D02*
X92247720Y-57485280D01*
X92247720Y-57485280D02*
X92481400Y-57718960D01*
X92481400Y-57718960D02*
X92890340Y-57718960D01*
X93266260Y-58505725D02*
X93485335Y-58724800D01*
X93266260Y-58094880D02*
X93266260Y-58505725D01*
X102176580Y-48753700D02*
X102431540Y-48498740D01*
X102176580Y-49502060D02*
X102176580Y-48753700D01*
X101371540Y-50307100D02*
X102176580Y-49502060D01*
X101371540Y-50308740D02*
X101371540Y-50307100D01*
X100964100Y-50716180D02*
X101371540Y-50308740D01*
X95745300Y-54437280D02*
X95928180Y-54254400D01*
X95928180Y-54254400D02*
X96032320Y-54254400D01*
X96032320Y-54254400D02*
X99405440Y-57627520D01*
X94947740Y-51859180D02*
X95039180Y-51767740D01*
X95039180Y-51767740D02*
X99481640Y-51767740D01*
X95745300Y-54541420D02*
X95745300Y-54437280D01*
X102341540Y-59738740D02*
X101779720Y-59176920D01*
X99194620Y-57990740D02*
X95745300Y-54541420D01*
X100096320Y-57990740D02*
X99194620Y-57990740D01*
X102341540Y-60438740D02*
X102341540Y-59738740D01*
X101779720Y-59176920D02*
X101282500Y-59176920D01*
X101282500Y-59176920D02*
X100096320Y-57990740D01*
X99405440Y-57627520D02*
X99641660Y-57627520D01*
X99641660Y-57627520D02*
X99766120Y-57503060D01*
X99766120Y-57503060D02*
X99766120Y-57205880D01*
X99481640Y-51767740D02*
X100533200Y-50716180D01*
X100533200Y-50716180D02*
X100964100Y-50716180D01*
X98254820Y-55976520D02*
X98254820Y-55895240D01*
X99367340Y-57089040D02*
X98254820Y-55976520D01*
X99766120Y-57205880D02*
X99649280Y-57089040D01*
X99649280Y-57089040D02*
X99367340Y-57089040D01*
X98254820Y-55895240D02*
X94947740Y-52588160D01*
X94947740Y-52588160D02*
X94947740Y-51859180D01*
X97831541Y-62008741D02*
X97971541Y-62008741D01*
X101630480Y-44498260D02*
X101627940Y-44498260D01*
X102194360Y-43931840D02*
X101627940Y-44498260D01*
X90121540Y-49464160D02*
X95570040Y-44015660D01*
X96598620Y-44218740D02*
X98098730Y-44218740D01*
X90121540Y-54315160D02*
X90121540Y-49464160D01*
X95064580Y-59258200D02*
X90121540Y-54315160D01*
X97952560Y-61988700D02*
X97845880Y-61988700D01*
X95999300Y-59921140D02*
X95336360Y-59258200D01*
X97845880Y-61988700D02*
X95999300Y-60142120D01*
X95999300Y-60142120D02*
X95999300Y-59921140D01*
X96395540Y-44015660D02*
X96598620Y-44218740D01*
X95570040Y-44015660D02*
X96395540Y-44015660D01*
X95336360Y-59258200D02*
X95064580Y-59258200D01*
X98098730Y-44218740D02*
X98209100Y-44108370D01*
X98315780Y-43784520D02*
X98478340Y-43784520D01*
X98209100Y-44108370D02*
X98209100Y-43891200D01*
X98209100Y-43891200D02*
X98315780Y-43784520D01*
X98478340Y-43784520D02*
X98579940Y-43886120D01*
X98579940Y-43886120D02*
X98579940Y-44104560D01*
X98579940Y-44104560D02*
X98694120Y-44218740D01*
X98694120Y-44218740D02*
X99456360Y-44218740D01*
X99456360Y-44218740D02*
X100506360Y-43168740D01*
X100506360Y-43168740D02*
X101967200Y-43168740D01*
X101967200Y-43168740D02*
X102194360Y-43395900D01*
X102194360Y-43395900D02*
X102194360Y-43931840D01*
X103101540Y-59688740D02*
X103041540Y-59748740D01*
X100586540Y-56581040D02*
X100586540Y-57515760D01*
X99004120Y-54310280D02*
X99750880Y-55057040D01*
X99171760Y-54046120D02*
X99004120Y-54213760D01*
X100004880Y-54147720D02*
X100573840Y-54716680D01*
X99171760Y-52664360D02*
X99171760Y-54046120D01*
X100177600Y-54899560D02*
X99593400Y-54315360D01*
X102252780Y-58453020D02*
X102478840Y-58453020D01*
X102532180Y-57464960D02*
X102532180Y-57216040D01*
X100177600Y-55747920D02*
X100177600Y-54899560D01*
X99235260Y-52600860D02*
X99171760Y-52664360D01*
X101424740Y-58353960D02*
X102153720Y-58353960D01*
X101597460Y-57947560D02*
X101003100Y-57353200D01*
X102153720Y-58353960D02*
X102252780Y-58453020D01*
X102854760Y-57947560D02*
X101597460Y-57947560D01*
X102925880Y-57876440D02*
X102854760Y-57947560D01*
X101003100Y-57353200D02*
X101003100Y-56573420D01*
X99527360Y-52600860D02*
X99235260Y-52600860D01*
X100004880Y-52428140D02*
X100004880Y-54147720D01*
X101836220Y-57007760D02*
X101836220Y-56466740D01*
X100891340Y-51541680D02*
X100004880Y-52428140D01*
X102478840Y-58453020D02*
X102580440Y-58351420D01*
X102532180Y-57216040D02*
X102443280Y-57127140D01*
X99593400Y-54315360D02*
X99593400Y-52666900D01*
X101414580Y-56550560D02*
X101414580Y-57180480D01*
X102443280Y-57127140D02*
X101955600Y-57127140D01*
X103231540Y-49368740D02*
X101981540Y-50618740D01*
X99750880Y-55745380D02*
X100586540Y-56581040D01*
X100573840Y-55709820D02*
X101414580Y-56550560D01*
X99004120Y-54213760D02*
X99004120Y-54310280D01*
X102925880Y-56954420D02*
X102925880Y-57876440D01*
X102052120Y-56250840D02*
X102222300Y-56250840D01*
X103231540Y-49298740D02*
X103231540Y-49368740D01*
X101772720Y-57538620D02*
X102458520Y-57538620D01*
X102458520Y-57538620D02*
X102532180Y-57464960D01*
X100586540Y-57515760D02*
X101424740Y-58353960D01*
X102222300Y-56250840D02*
X102925880Y-56954420D01*
X101981540Y-50618740D02*
X101981540Y-50768740D01*
X101981540Y-50768740D02*
X101208600Y-51541680D01*
X101208600Y-51541680D02*
X100891340Y-51541680D01*
X101414580Y-57180480D02*
X101772720Y-57538620D01*
X99750880Y-55057040D02*
X99750880Y-55745380D01*
X101003100Y-56573420D02*
X100177600Y-55747920D01*
X100573840Y-54716680D02*
X100573840Y-55709820D01*
X101955600Y-57127140D02*
X101836220Y-57007760D01*
X99593400Y-52666900D02*
X99527360Y-52600860D01*
X101836220Y-56466740D02*
X102052120Y-56250840D01*
X102842060Y-58351420D02*
X102923340Y-58432700D01*
X102923340Y-58432700D02*
X102923340Y-59608720D01*
X103041540Y-59726920D02*
X103041540Y-59748740D01*
X102923340Y-59608720D02*
X103041540Y-59726920D01*
X102580440Y-58351420D02*
X102842060Y-58351420D01*
X102461540Y-59048740D02*
X102331540Y-59048740D01*
X102331540Y-59048740D02*
X102331540Y-58988740D01*
X103231540Y-48508740D02*
X103231540Y-48498740D01*
X102613460Y-49546820D02*
X102613460Y-49126820D01*
X101030080Y-51130200D02*
X102613460Y-49546820D01*
X100708460Y-51130200D02*
X101030080Y-51130200D01*
X99654360Y-52184300D02*
X100708460Y-51130200D01*
X98910140Y-52184300D02*
X99654360Y-52184300D01*
X98757740Y-52336700D02*
X98910140Y-52184300D01*
X96908620Y-52181760D02*
X97515680Y-52788820D01*
X102266840Y-59048740D02*
X101983540Y-58765440D01*
X96834960Y-53281580D02*
X96977200Y-53281580D01*
X97094040Y-52956460D02*
X96514920Y-52377340D01*
X96514920Y-52306220D02*
X96639380Y-52181760D01*
X99822000Y-56675020D02*
X99468940Y-56675020D01*
X97256600Y-53604160D02*
X97256600Y-53721000D01*
X95445580Y-52179220D02*
X95732600Y-52179220D01*
X95359220Y-52265580D02*
X95445580Y-52179220D01*
X98968560Y-55445660D02*
X99113340Y-55445660D01*
X101358700Y-58765440D02*
X100180140Y-57586880D01*
X102613460Y-49126820D02*
X103231540Y-48508740D01*
X95359220Y-52417980D02*
X95359220Y-52265580D01*
X100180140Y-57586880D02*
X100180140Y-57033160D01*
X102331540Y-59048740D02*
X102266840Y-59048740D01*
X97515680Y-52788820D02*
X97515680Y-53345080D01*
X101983540Y-58765440D02*
X101358700Y-58765440D01*
X97094040Y-53164740D02*
X97094040Y-52956460D01*
X96977200Y-53281580D02*
X97094040Y-53164740D01*
X98008440Y-54480460D02*
X98008440Y-54485540D01*
X97579180Y-53875940D02*
X97927160Y-53527960D01*
X98008440Y-54485540D02*
X98968560Y-55445660D01*
X96514920Y-52377340D02*
X96514920Y-52306220D01*
X97843340Y-54315360D02*
X98008440Y-54480460D01*
X95732600Y-52179220D02*
X96834960Y-53281580D01*
X99468940Y-56675020D02*
X98831400Y-56037480D01*
X98831400Y-56037480D02*
X98831400Y-55890160D01*
X98757740Y-53875940D02*
X98757740Y-52336700D01*
X98831400Y-55890160D02*
X95359220Y-52417980D01*
X96639380Y-52181760D02*
X96908620Y-52181760D01*
X97256600Y-53721000D02*
X97411540Y-53875940D01*
X99113340Y-55445660D02*
X99258120Y-55300880D01*
X97411540Y-53875940D02*
X97579180Y-53875940D01*
X97927160Y-52611020D02*
X97645220Y-52329080D01*
X97927160Y-53527960D02*
X97927160Y-52611020D01*
X97645220Y-52329080D02*
X97645220Y-52250340D01*
X100180140Y-57033160D02*
X99822000Y-56675020D01*
X97515680Y-53345080D02*
X97256600Y-53604160D01*
X97645220Y-52250340D02*
X97711260Y-52184300D01*
X99258120Y-55145940D02*
X98440240Y-54328060D01*
X97711260Y-52184300D02*
X98178620Y-52184300D01*
X98343720Y-52349400D02*
X98343720Y-53698140D01*
X98178620Y-52184300D02*
X98343720Y-52349400D01*
X98343720Y-53698140D02*
X97843340Y-54198520D01*
X97843340Y-54198520D02*
X97843340Y-54315360D01*
X99258120Y-55300880D02*
X99258120Y-55145940D01*
X98440240Y-54328060D02*
X98440240Y-54193440D01*
X98440240Y-54193440D02*
X98757740Y-53875940D01*
X103041540Y-60468740D02*
X103041540Y-61168740D01*
X100853240Y-53812440D02*
X100853240Y-52781200D01*
X101424740Y-55529480D02*
X101424740Y-54383940D01*
X101424740Y-54383940D02*
X100853240Y-53812440D01*
X102105460Y-51843940D02*
X102344220Y-51843940D01*
X102344220Y-51843940D02*
X102450900Y-51950620D01*
X101551740Y-52397660D02*
X102105460Y-51843940D01*
X101236780Y-52397660D02*
X101551740Y-52397660D01*
X100853240Y-52781200D02*
X101236780Y-52397660D01*
X101749860Y-55854600D02*
X101424740Y-55529480D01*
X101749860Y-56012080D02*
X101749860Y-55854600D01*
X101600000Y-56161940D02*
X101749860Y-56012080D01*
X101462840Y-56161940D02*
X101600000Y-56161940D01*
X101005640Y-55704740D02*
X101462840Y-56161940D01*
X103982520Y-50314860D02*
X102859840Y-51437540D01*
X104031540Y-49298740D02*
X103982520Y-49347760D01*
X102859840Y-51437540D02*
X101917500Y-51437540D01*
X101917500Y-51437540D02*
X101381560Y-51973480D01*
X101381560Y-51973480D02*
X101069140Y-51973480D01*
X101069140Y-51973480D02*
X100429060Y-52613560D01*
X103982520Y-49347760D02*
X103982520Y-50314860D01*
X100429060Y-53980080D02*
X101005640Y-54556660D01*
X100429060Y-52613560D02*
X100429060Y-53980080D01*
X101005640Y-54556660D02*
X101005640Y-55704740D01*
X102450900Y-51950620D02*
X102450900Y-52082700D01*
X102450900Y-52082700D02*
X102110540Y-52423060D01*
X102110540Y-52423060D02*
X102110540Y-53286660D01*
X102110540Y-53286660D02*
X102674420Y-53850540D01*
X102674420Y-53850540D02*
X102674420Y-55313580D01*
X102674420Y-55313580D02*
X102588060Y-55399940D01*
X102588060Y-55399940D02*
X102466140Y-55399940D01*
X102466140Y-55399940D02*
X102265480Y-55199280D01*
X102265480Y-55199280D02*
X102265480Y-54028340D01*
X102265480Y-54028340D02*
X101942900Y-53705760D01*
X101942900Y-53705760D02*
X101930200Y-53705760D01*
X101930200Y-53705760D02*
X101691440Y-53467000D01*
X101691440Y-53467000D02*
X101691440Y-52895500D01*
X101691440Y-52895500D02*
X101607620Y-52811680D01*
X101607620Y-52811680D02*
X101406960Y-52811680D01*
X101406960Y-52811680D02*
X101267260Y-52951380D01*
X101267260Y-52951380D02*
X101267260Y-53642260D01*
X101267260Y-53642260D02*
X101836220Y-54211220D01*
X101836220Y-54211220D02*
X101836220Y-55356760D01*
X101836220Y-55356760D02*
X103339900Y-56860440D01*
X103339900Y-56860440D02*
X103339900Y-59192160D01*
X103339900Y-59192160D02*
X103581540Y-59433800D01*
X103581540Y-59433800D02*
X103581540Y-59928740D01*
X103581540Y-59928740D02*
X103041540Y-60468740D01*
X104031540Y-48498740D02*
X104011540Y-48498740D01*
X104031540Y-48148740D02*
X104031540Y-48498740D01*
X103771540Y-47888740D02*
X104031540Y-48148740D01*
X102711540Y-47888740D02*
X103771540Y-47888740D01*
X102601540Y-47778740D02*
X102711540Y-47888740D01*
X102601540Y-47558740D02*
X102601540Y-47778740D01*
X103161540Y-46998740D02*
X102601540Y-47558740D01*
X103441540Y-46998740D02*
X103161540Y-46998740D01*
X103541540Y-47098740D02*
X103441540Y-46998740D01*
X103541540Y-47348740D02*
X103541540Y-47098740D01*
X103621540Y-47428740D02*
X103541540Y-47348740D01*
X103951540Y-47428740D02*
X103621540Y-47428740D01*
X108968540Y-56642000D02*
X109827060Y-55783480D01*
X105943580Y-62496700D02*
X106210100Y-62496700D01*
X108968540Y-57952640D02*
X108968540Y-56642000D01*
X109827060Y-55783480D02*
X109827060Y-50147220D01*
X109827060Y-50147220D02*
X108691540Y-49011700D01*
X106210100Y-62496700D02*
X108112560Y-60594240D01*
X108691540Y-49011700D02*
X108691540Y-47922040D01*
X106679040Y-47008740D02*
X104091540Y-47008740D01*
X104051540Y-47048740D02*
X104051540Y-47328740D01*
X104091540Y-47008740D02*
X104051540Y-47048740D01*
X105871540Y-62568740D02*
X105943580Y-62496700D01*
X104109520Y-46466760D02*
X104201500Y-46558740D01*
X104201500Y-46558740D02*
X106642440Y-46558740D01*
X108112560Y-60594240D02*
X108112560Y-58808620D01*
X108112560Y-58808620D02*
X108968540Y-57952640D01*
X108691540Y-47922040D02*
X106868240Y-46098740D01*
X106868240Y-46098740D02*
X104221000Y-46098740D01*
X104221000Y-46098740D02*
X104109520Y-46210220D01*
X106776520Y-46692820D02*
X106776520Y-46911260D01*
X106642440Y-46558740D02*
X106776520Y-46692820D01*
X104109520Y-46210220D02*
X104109520Y-46466760D01*
X106776520Y-46911260D02*
X106679040Y-47008740D01*
X104051540Y-47328740D02*
X103951540Y-47428740D01*
X101973380Y-46222920D02*
X101973380Y-46346900D01*
X101551540Y-46898740D02*
X101601540Y-46948740D01*
X101879200Y-46128740D02*
X101973380Y-46222920D01*
X101973380Y-46346900D02*
X101551540Y-46768740D01*
X100779580Y-46360700D02*
X101011540Y-46128740D01*
X100859020Y-46548740D02*
X100779580Y-46469300D01*
X100779580Y-46469300D02*
X100779580Y-46360700D01*
X101081540Y-46548740D02*
X100859020Y-46548740D01*
X101131540Y-46598740D02*
X101081540Y-46548740D01*
X98114340Y-59658740D02*
X97612200Y-59156600D01*
X101601540Y-46948740D02*
X101951540Y-46948740D01*
X99000800Y-59658740D02*
X98114340Y-59658740D01*
X96022780Y-46948740D02*
X101001540Y-46948740D01*
X97612200Y-59156600D02*
X97612200Y-58798460D01*
X92473780Y-53660040D02*
X92473780Y-50497740D01*
X100931540Y-61868740D02*
X100931540Y-61589480D01*
X101551540Y-46768740D02*
X101551540Y-46898740D01*
X101011540Y-46128740D02*
X101879200Y-46128740D01*
X101131540Y-46818740D02*
X101131540Y-46598740D01*
X97612200Y-58798460D02*
X92473780Y-53660040D01*
X100931540Y-61589480D02*
X99000800Y-59658740D01*
X101001540Y-46948740D02*
X101131540Y-46818740D01*
X92473780Y-50497740D02*
X96022780Y-46948740D01*
X101951540Y-46948740D02*
X104031540Y-44868740D01*
X104031540Y-44868740D02*
X104031540Y-44498740D01*
X103479600Y-44592240D02*
X103479600Y-44250680D01*
X103253540Y-44818300D02*
X103479600Y-44592240D01*
X102920800Y-44818300D02*
X103253540Y-44818300D01*
X98809860Y-46540420D02*
X99640440Y-45709840D01*
X95857060Y-46540420D02*
X98809860Y-46540420D01*
X97195640Y-59202320D02*
X97195640Y-58958480D01*
X100223320Y-62555120D02*
X100241540Y-62536900D01*
X102740460Y-44998640D02*
X102920800Y-44818300D01*
X100241540Y-62536900D02*
X100241540Y-61354140D01*
X100241540Y-61354140D02*
X98991420Y-60104020D01*
X92057220Y-50340260D02*
X95857060Y-46540420D01*
X97195640Y-58958480D02*
X92057220Y-53820060D01*
X92057220Y-53820060D02*
X92057220Y-50340260D01*
X98097340Y-60104020D02*
X97195640Y-59202320D01*
X98991420Y-60104020D02*
X98097340Y-60104020D01*
X99640440Y-45709840D02*
X99915980Y-45709840D01*
X99915980Y-45709840D02*
X100015040Y-45808900D01*
X100015040Y-45808900D02*
X100015040Y-45945240D01*
X103479600Y-44250680D02*
X104031540Y-43698740D01*
X100015040Y-45945240D02*
X99634040Y-46326240D01*
X99730560Y-46540420D02*
X100009860Y-46540420D01*
X99634040Y-46326240D02*
X99634040Y-46443900D01*
X99634040Y-46443900D02*
X99730560Y-46540420D01*
X100009860Y-46540420D02*
X100831540Y-45718740D01*
X100831540Y-45718740D02*
X102487720Y-45718740D01*
X102487720Y-45718740D02*
X102740460Y-45466000D01*
X102740460Y-45466000D02*
X102740460Y-44998640D01*
X104808140Y-49298740D02*
X104831540Y-49298740D01*
X104366060Y-49740820D02*
X104808140Y-49298740D01*
X104366060Y-51181000D02*
X104366060Y-49740820D01*
X104792779Y-51607719D02*
X104366060Y-51181000D01*
X104792780Y-54828440D02*
X104792779Y-51607719D01*
X104696260Y-54924960D02*
X104792780Y-54828440D01*
X104452420Y-54924960D02*
X104696260Y-54924960D01*
X104358440Y-54830980D02*
X104452420Y-54924960D01*
X104358440Y-53177440D02*
X104358440Y-54830980D01*
X104203500Y-53022500D02*
X104358440Y-53177440D01*
X104203500Y-52705000D02*
X104203500Y-53022500D01*
X104411780Y-52496720D02*
X104203500Y-52705000D01*
X104411780Y-51948080D02*
X104411780Y-52496720D01*
X104294940Y-51831240D02*
X104411780Y-51948080D01*
X104129840Y-51831240D02*
X104294940Y-51831240D01*
X103995220Y-51965860D02*
X104129840Y-51831240D01*
X103995220Y-52324000D02*
X103995220Y-51965860D01*
X103520240Y-52798980D02*
X103995220Y-52324000D01*
X103520240Y-52928520D02*
X103520240Y-52798980D01*
X103926640Y-53334920D02*
X103520240Y-52928520D01*
X103926640Y-55846980D02*
X103926640Y-53334920D01*
X103840280Y-55933340D02*
X103926640Y-55846980D01*
X103621840Y-55933340D02*
X103840280Y-55933340D01*
X103515160Y-55826660D02*
X103621840Y-55933340D01*
X102575360Y-53162200D02*
X102575360Y-52562760D01*
X103093520Y-53680360D02*
X102575360Y-53162200D01*
X103093520Y-56037480D02*
X103093520Y-53680360D01*
X103753920Y-59021980D02*
X103753920Y-56697880D01*
X103753920Y-56697880D02*
X103093520Y-56037480D01*
X103751540Y-61168740D02*
X104381540Y-60538740D01*
X103751540Y-61868740D02*
X103751540Y-61168740D01*
X104381540Y-60538740D02*
X104381540Y-60228720D01*
X104381540Y-60228720D02*
X104002840Y-59850020D01*
X104002840Y-59270900D02*
X103753920Y-59021980D01*
X104002840Y-59850020D02*
X104002840Y-59270900D01*
X102575360Y-52562760D02*
X103131620Y-52006500D01*
X103131620Y-52006500D02*
X103131620Y-51694080D01*
X103131620Y-51694080D02*
X103624380Y-51201320D01*
X103624380Y-51201320D02*
X103766620Y-51201320D01*
X103766620Y-51201320D02*
X103893620Y-51328320D01*
X103893620Y-51328320D02*
X103893620Y-51503580D01*
X103004620Y-52997100D02*
X103515160Y-53507640D01*
X103515160Y-53507640D02*
X103515160Y-55826660D01*
X103893620Y-51503580D02*
X103568500Y-51828700D01*
X103004620Y-52732940D02*
X103004620Y-52997100D01*
X103568500Y-51828700D02*
X103568500Y-52169060D01*
X103568500Y-52169060D02*
X103004620Y-52732940D01*
X104831540Y-48498740D02*
X104751540Y-48498740D01*
X105740200Y-61988700D02*
X105181540Y-62547360D01*
X108241540Y-49143360D02*
X109415580Y-50317400D01*
X107688380Y-60424060D02*
X106123740Y-61988700D01*
X104471540Y-47788740D02*
X104471540Y-47578740D01*
X104471540Y-47578740D02*
X104591540Y-47458740D01*
X104831540Y-48038740D02*
X104691540Y-47898740D01*
X104831540Y-48498740D02*
X104831540Y-48038740D01*
X105181540Y-62547360D02*
X105181540Y-63288740D01*
X109415580Y-50317400D02*
X109415580Y-55615840D01*
X109082840Y-55834280D02*
X108986320Y-55737760D01*
X104591540Y-47458740D02*
X107531540Y-47458740D01*
X104691540Y-47898740D02*
X104581540Y-47898740D01*
X107688380Y-58628280D02*
X107688380Y-60424060D01*
X109415580Y-55615840D02*
X109197140Y-55834280D01*
X109197140Y-55834280D02*
X109082840Y-55834280D01*
X108986320Y-55737760D02*
X108986320Y-51054000D01*
X108899960Y-50967640D02*
X108651040Y-50967640D01*
X107531540Y-47458740D02*
X108241540Y-48168740D01*
X104581540Y-47898740D02*
X104471540Y-47788740D01*
X108986320Y-51054000D02*
X108899960Y-50967640D01*
X108554520Y-51064160D02*
X108554520Y-57762140D01*
X108241540Y-48168740D02*
X108241540Y-49143360D01*
X108651040Y-50967640D02*
X108554520Y-51064160D01*
X108554520Y-57762140D02*
X107688380Y-58628280D01*
X106123740Y-61988700D02*
X105740200Y-61988700D01*
X95971360Y-48328560D02*
X95641160Y-47998360D01*
X95574040Y-48998740D02*
X95971360Y-48601420D01*
X95265640Y-48998740D02*
X95574040Y-48998740D01*
X95641160Y-47998360D02*
X95641160Y-47859120D01*
X95161100Y-49248300D02*
X95161100Y-49103280D01*
X94130440Y-49697640D02*
X94376820Y-49944020D01*
X95509080Y-49768760D02*
X95509080Y-49596280D01*
X92887800Y-53492400D02*
X92887800Y-50665380D01*
X95021540Y-49708740D02*
X95223800Y-49911000D01*
X94781540Y-49708740D02*
X95021540Y-49708740D01*
X97942400Y-58547000D02*
X92887800Y-53492400D01*
X95509080Y-49596280D02*
X95161100Y-49248300D01*
X94376820Y-49944020D02*
X94546260Y-49944020D01*
X101541540Y-61739740D02*
X98348800Y-58547000D01*
X95223800Y-49911000D02*
X95366840Y-49911000D01*
X98348800Y-58547000D02*
X97942400Y-58547000D01*
X92887800Y-50665380D02*
X93855540Y-49697640D01*
X101541540Y-62418740D02*
X101541540Y-61739740D01*
X94546260Y-49944020D02*
X94781540Y-49708740D01*
X102061540Y-47378740D02*
X104831540Y-44608740D01*
X95971360Y-48601420D02*
X95971360Y-48328560D01*
X101501540Y-62458740D02*
X101541540Y-62418740D01*
X95161100Y-49103280D02*
X95265640Y-48998740D01*
X95366840Y-49911000D02*
X95509080Y-49768760D01*
X93855540Y-49697640D02*
X94130440Y-49697640D01*
X95641160Y-47859120D02*
X96121540Y-47378740D01*
X96121540Y-47378740D02*
X102061540Y-47378740D01*
X104831540Y-44608740D02*
X104831540Y-44498740D01*
X102608380Y-44302680D02*
X102608380Y-43538140D01*
X101602320Y-45308740D02*
X102608380Y-44302680D01*
X104831540Y-43648020D02*
X104831540Y-43698740D01*
X99421540Y-45308740D02*
X101602320Y-45308740D01*
X104368600Y-43185080D02*
X104831540Y-43648020D01*
X99479100Y-61102240D02*
X98905060Y-60528200D01*
X96781620Y-59138820D02*
X91650820Y-54008020D01*
X99511540Y-61738740D02*
X99479100Y-61706300D01*
X102961440Y-43185080D02*
X104368600Y-43185080D01*
X91650820Y-54008020D02*
X91650820Y-50159920D01*
X98905060Y-60528200D02*
X98051620Y-60528200D01*
X99479100Y-61706300D02*
X99479100Y-61102240D01*
X98601340Y-46128940D02*
X99421540Y-45308740D01*
X102608380Y-43538140D02*
X102961440Y-43185080D01*
X98051620Y-60528200D02*
X96781620Y-59258200D01*
X96781620Y-59258200D02*
X96781620Y-59138820D01*
X91650820Y-50159920D02*
X95681800Y-46128940D01*
X95681800Y-46128940D02*
X98601340Y-46128940D01*
X104471540Y-61148740D02*
X104471540Y-61168740D01*
X106184700Y-49851900D02*
X106075480Y-49742680D01*
X106184700Y-50657760D02*
X106184700Y-49851900D01*
X106075480Y-50766980D02*
X106184700Y-50657760D01*
X106075480Y-55532020D02*
X106075480Y-50766980D01*
X105973880Y-55633620D02*
X106075480Y-55532020D01*
X105750360Y-55633620D02*
X105973880Y-55633620D01*
X105651300Y-55534560D02*
X105750360Y-55633620D01*
X105651300Y-51031140D02*
X105651300Y-55534560D01*
X105392220Y-50772060D02*
X105651300Y-51031140D01*
X104998520Y-50772060D02*
X105392220Y-50772060D01*
X104881680Y-50888900D02*
X104998520Y-50772060D01*
X104881680Y-51043840D02*
X104881680Y-50888900D01*
X105244900Y-51407060D02*
X104881680Y-51043840D01*
X105244900Y-56410860D02*
X105244900Y-51407060D01*
X105031540Y-56624220D02*
X105244900Y-56410860D01*
X104444800Y-55407560D02*
X104675940Y-55407560D01*
X104185720Y-56266080D02*
X104343200Y-56108600D01*
X104343200Y-55509160D02*
X104444800Y-55407560D01*
X104343200Y-56108600D02*
X104343200Y-55509160D01*
X104821540Y-60818740D02*
X104821540Y-60078740D01*
X104471540Y-61168740D02*
X104821540Y-60818740D01*
X104821540Y-60078740D02*
X104481540Y-59738740D01*
X104481540Y-59738740D02*
X104481540Y-59167940D01*
X104185720Y-58872120D02*
X104185720Y-56266080D01*
X104481540Y-59167940D02*
X104185720Y-58872120D01*
X104675940Y-55407560D02*
X104762300Y-55493920D01*
X104762300Y-55493920D02*
X104762300Y-56288940D01*
X104762300Y-56288940D02*
X104612440Y-56438800D01*
X104612440Y-58709560D02*
X104617520Y-58709560D01*
X104612440Y-56438800D02*
X104612440Y-58709560D01*
X104617520Y-58709560D02*
X104907080Y-58999120D01*
X105331260Y-59606180D02*
X105331260Y-58831480D01*
X105331260Y-58831480D02*
X105031540Y-58531760D01*
X104907080Y-58999120D02*
X104907080Y-59570620D01*
X104907080Y-59570620D02*
X105036620Y-59700160D01*
X106075480Y-49742680D02*
X105631540Y-49298740D01*
X105036620Y-59700160D02*
X105237280Y-59700160D01*
X105237280Y-59700160D02*
X105331260Y-59606180D01*
X105031540Y-58531760D02*
X105031540Y-56624220D01*
X105631540Y-48498740D02*
X105631540Y-48458740D01*
X105631540Y-47992740D02*
X105631540Y-48498740D01*
X107261540Y-47898740D02*
X105725540Y-47898740D01*
X107828080Y-48465280D02*
X107261540Y-47898740D01*
X107828080Y-49316640D02*
X107828080Y-48465280D01*
X108729780Y-50208180D02*
X108620560Y-50098960D01*
X108282740Y-50568860D02*
X108567221Y-50568859D01*
X107736640Y-55727600D02*
X107736640Y-55443120D01*
X108066840Y-55405020D02*
X108140500Y-55331360D01*
X107736640Y-55443120D02*
X107774740Y-55405020D01*
X107736640Y-54597300D02*
X107792520Y-54541420D01*
X108143040Y-54488080D02*
X108143040Y-54162960D01*
X108074460Y-56217820D02*
X108143040Y-56149240D01*
X107739180Y-56253380D02*
X107774740Y-56217820D01*
X108140500Y-56662320D02*
X108102400Y-56624220D01*
X108110020Y-54129940D02*
X107797600Y-54129940D01*
X108140500Y-56984900D02*
X108140500Y-56662320D01*
X108140500Y-53403500D02*
X108087160Y-53350160D01*
X108082080Y-57043320D02*
X108140500Y-56984900D01*
X108620560Y-50098960D02*
X108610400Y-50098960D01*
X105971340Y-61549280D02*
X106072940Y-61447680D01*
X107749340Y-53284120D02*
X107749340Y-53040280D01*
X107774740Y-56217820D02*
X108074460Y-56217820D01*
X107729020Y-57320180D02*
X107729020Y-57091580D01*
X107264200Y-60264040D02*
X107264200Y-58430160D01*
X106433620Y-58074560D02*
X107061000Y-57447180D01*
X105725540Y-47898740D02*
X105631540Y-47992740D01*
X107205780Y-57447180D02*
X107363260Y-57604660D01*
X106072940Y-61307980D02*
X105796080Y-61031120D01*
X106011980Y-60746640D02*
X106111040Y-60746640D01*
X107774740Y-55405020D02*
X108066840Y-55405020D01*
X105471000Y-61549280D02*
X105971340Y-61549280D01*
X107729020Y-57091580D02*
X107777280Y-57043320D01*
X106667300Y-60739020D02*
X106433620Y-60505340D01*
X107975400Y-57566560D02*
X107729020Y-57320180D01*
X105161540Y-61858740D02*
X105471000Y-61549280D01*
X108143040Y-56149240D02*
X108143040Y-55831740D01*
X108567221Y-50568859D02*
X108729780Y-50406300D01*
X108145580Y-51285140D02*
X108145580Y-51048920D01*
X107363260Y-57731660D02*
X106852720Y-58242200D01*
X107739180Y-56573420D02*
X107739180Y-56253380D01*
X106111040Y-60746640D02*
X106372660Y-61008260D01*
X107061000Y-57447180D02*
X107205780Y-57447180D01*
X106372660Y-61008260D02*
X106512360Y-61008260D01*
X107830620Y-51356260D02*
X108074460Y-51356260D01*
X106667300Y-60853320D02*
X106667300Y-60739020D01*
X108193840Y-50479960D02*
X108282740Y-50568860D01*
X108143040Y-55831740D02*
X108104940Y-55793640D01*
X106433620Y-60505340D02*
X106433620Y-58074560D01*
X106072940Y-61447680D02*
X106072940Y-61307980D01*
X108074460Y-53726080D02*
X108140500Y-53660040D01*
X107789980Y-56624220D02*
X107739180Y-56573420D01*
X105796080Y-60962540D02*
X106011980Y-60746640D01*
X107363260Y-57604660D02*
X107363260Y-57731660D01*
X107975400Y-57718960D02*
X107975400Y-57566560D01*
X107264200Y-58430160D02*
X107975400Y-57718960D01*
X106852720Y-60340240D02*
X106946700Y-60434220D01*
X107741720Y-53769260D02*
X107784900Y-53726080D01*
X106946700Y-60434220D02*
X107094020Y-60434220D01*
X108140500Y-55331360D02*
X108140500Y-55024020D01*
X108140500Y-55024020D02*
X108099860Y-54983380D01*
X106852720Y-58242200D02*
X106852720Y-60340240D01*
X108099860Y-54983380D02*
X107810300Y-54983380D01*
X108104940Y-55793640D02*
X107802680Y-55793640D01*
X107810300Y-54983380D02*
X107736640Y-54909720D01*
X107736640Y-54909720D02*
X107736640Y-54597300D01*
X107741720Y-54074060D02*
X107741720Y-53769260D01*
X107805220Y-52146200D02*
X108043980Y-52146200D01*
X107792520Y-54541420D02*
X108089700Y-54541420D01*
X107807760Y-50116740D02*
X108041440Y-50116740D01*
X108061760Y-50965100D02*
X107817920Y-50965100D01*
X108089700Y-54541420D02*
X108143040Y-54488080D01*
X108143040Y-54162960D02*
X108110020Y-54129940D01*
X107784900Y-53726080D02*
X108074460Y-53726080D01*
X108140500Y-53660040D02*
X108140500Y-53403500D01*
X107736640Y-50883820D02*
X107736640Y-50187860D01*
X108610400Y-50098960D02*
X107828080Y-49316640D01*
X108087160Y-53350160D02*
X107815380Y-53350160D01*
X107815380Y-53350160D02*
X107749340Y-53284120D01*
X107749340Y-53040280D02*
X107802680Y-52986940D01*
X107802680Y-52986940D02*
X108056680Y-52986940D01*
X108056680Y-52986940D02*
X108140500Y-52903120D01*
X108140500Y-52903120D02*
X108140500Y-52651660D01*
X108140500Y-52651660D02*
X108054140Y-52565300D01*
X108054140Y-52565300D02*
X107856020Y-52565300D01*
X107802680Y-55793640D02*
X107736640Y-55727600D01*
X108043980Y-52146200D02*
X108132880Y-52057300D01*
X107856020Y-52565300D02*
X107741720Y-52451000D01*
X107741720Y-52451000D02*
X107741720Y-52209700D01*
X106512360Y-61008260D02*
X106667300Y-60853320D01*
X107741720Y-52209700D02*
X107805220Y-52146200D01*
X107797600Y-54129940D02*
X107741720Y-54074060D01*
X107825540Y-51757580D02*
X107741720Y-51673760D01*
X108729780Y-50406300D02*
X108729780Y-50208180D01*
X107736640Y-50187860D02*
X107807760Y-50116740D01*
X107094020Y-60434220D02*
X107264200Y-60264040D01*
X108132880Y-52057300D02*
X108132880Y-51854100D01*
X108132880Y-51854100D02*
X108036360Y-51757580D01*
X108102400Y-56624220D02*
X107789980Y-56624220D01*
X108036360Y-51757580D02*
X107825540Y-51757580D01*
X105796080Y-61031120D02*
X105796080Y-60962540D01*
X107741720Y-51673760D02*
X107741720Y-51445160D01*
X107741720Y-51445160D02*
X107830620Y-51356260D01*
X108074460Y-51356260D02*
X108145580Y-51285140D01*
X108145580Y-51048920D02*
X108061760Y-50965100D01*
X107777280Y-57043320D02*
X108082080Y-57043320D01*
X107817920Y-50965100D02*
X107736640Y-50883820D01*
X108041440Y-50116740D02*
X108193840Y-50269140D01*
X108193840Y-50269140D02*
X108193840Y-50479960D01*
X105631540Y-44548740D02*
X105631540Y-44498740D01*
X105611540Y-44518740D02*
X105631540Y-44498740D01*
X105611540Y-45157780D02*
X105611540Y-44518740D01*
X104929940Y-45267880D02*
X105501440Y-45267880D01*
X104736900Y-45460920D02*
X104929940Y-45267880D01*
X104736900Y-45620940D02*
X104736900Y-45460920D01*
X106085640Y-45184060D02*
X106085640Y-45572680D01*
X106164380Y-45105320D02*
X106085640Y-45184060D01*
X106586020Y-45105320D02*
X106164380Y-45105320D01*
X109146340Y-47665640D02*
X106586020Y-45105320D01*
X108849160Y-58844180D02*
X109232700Y-59227720D01*
X108536740Y-60763540D02*
X108536740Y-59039760D01*
X104482900Y-63627000D02*
X104998520Y-64142620D01*
X104226360Y-63627000D02*
X104482900Y-63627000D01*
X109146340Y-48882300D02*
X109146340Y-47665640D01*
X108536740Y-59039760D02*
X108732320Y-58844180D01*
X103337500Y-64274700D02*
X103578660Y-64274700D01*
X103051540Y-63988740D02*
X103337500Y-64274700D01*
X105973880Y-45684440D02*
X104800400Y-45684440D01*
X108732320Y-58844180D02*
X108849160Y-58844180D01*
X104998520Y-64142620D02*
X105157660Y-64142620D01*
X105157660Y-64142620D02*
X108536740Y-60763540D01*
X110246160Y-55956200D02*
X110246160Y-49982120D01*
X103578660Y-64274700D02*
X104226360Y-63627000D01*
X109232700Y-59227720D02*
X109232700Y-59456320D01*
X109232700Y-59456320D02*
X108986320Y-59702700D01*
X105501440Y-45267880D02*
X105611540Y-45157780D01*
X108986320Y-60004960D02*
X109067600Y-60086240D01*
X108986320Y-59702700D02*
X108986320Y-60004960D01*
X109067600Y-60086240D02*
X109209840Y-60086240D01*
X109209840Y-60086240D02*
X109890560Y-59405520D01*
X109890560Y-59405520D02*
X109890560Y-59255660D01*
X109890560Y-59255660D02*
X109397800Y-58762900D01*
X106085640Y-45572680D02*
X105973880Y-45684440D01*
X109397800Y-58762900D02*
X109397800Y-56804560D01*
X104800400Y-45684440D02*
X104736900Y-45620940D01*
X109397800Y-56804560D02*
X110246160Y-55956200D01*
X110246160Y-49982120D02*
X109146340Y-48882300D01*
X111511540Y-47922640D02*
X111511540Y-59688740D01*
X105631540Y-43698740D02*
X106137580Y-43192700D01*
X111511540Y-59688740D02*
X105508260Y-65692020D01*
X106781600Y-43192700D02*
X111511540Y-47922640D01*
X106137580Y-43192700D02*
X106781600Y-43192700D01*
X105508260Y-65692020D02*
X101924820Y-65692020D01*
X101924820Y-65692020D02*
X101631540Y-65398740D01*
X106911140Y-56418480D02*
X105887520Y-57442100D01*
X106169460Y-57754520D02*
X107325160Y-56598820D01*
X107325160Y-56598820D02*
X107325160Y-55379620D01*
X107325160Y-55379620D02*
X107322620Y-55377080D01*
X106225340Y-56131460D02*
X106492040Y-55864760D01*
X107322620Y-55377080D02*
X107322620Y-49916080D01*
X107477560Y-49542700D02*
X107302300Y-49367440D01*
X107322620Y-49916080D02*
X107477560Y-49761140D01*
X107236240Y-48498740D02*
X106561540Y-48498740D01*
X107302300Y-49367440D02*
X107302300Y-49022000D01*
X105455720Y-57757060D02*
X105455720Y-56829960D01*
X105221540Y-61138740D02*
X105221540Y-60930020D01*
X105887520Y-57594500D02*
X106047540Y-57754520D01*
X106492040Y-55864760D02*
X106492040Y-50995580D01*
X107477560Y-49761140D02*
X107477560Y-49542700D01*
X106561540Y-48498740D02*
X106461540Y-48498740D01*
X106649520Y-50838100D02*
X106900980Y-50838100D01*
X106047540Y-57754520D02*
X106169460Y-57754520D01*
X107416600Y-48907700D02*
X107416600Y-48635920D01*
X106911140Y-50848260D02*
X106911140Y-56418480D01*
X107302300Y-49022000D02*
X107416600Y-48907700D01*
X107236260Y-48498760D02*
X107236240Y-48498740D01*
X107279440Y-48498760D02*
X107236260Y-48498760D01*
X105887520Y-57442100D02*
X105887520Y-57594500D01*
X105455720Y-56829960D02*
X105724960Y-56560720D01*
X107416600Y-48635920D02*
X107279440Y-48498760D01*
X106900980Y-50838100D02*
X106911140Y-50848260D01*
X106004360Y-58305700D02*
X105455720Y-57757060D01*
X106492040Y-50995580D02*
X106649520Y-50838100D01*
X105874820Y-56131460D02*
X106225340Y-56131460D01*
X105724960Y-56281320D02*
X105874820Y-56131460D01*
X105724960Y-56560720D02*
X105724960Y-56281320D01*
X106004360Y-60147200D02*
X106004360Y-58305700D01*
X105221540Y-60930020D02*
X106004360Y-60147200D01*
X103761540Y-63288740D02*
X103761540Y-62598740D01*
X103761540Y-62598740D02*
X105221540Y-61138740D01*
X103611820Y-64698740D02*
X102341540Y-64698740D01*
X104150160Y-64160400D02*
X103611820Y-64698740D01*
X104424480Y-64160400D02*
X104150160Y-64160400D01*
X104962820Y-64698740D02*
X104424480Y-64160400D01*
X105191540Y-64698740D02*
X104962820Y-64698740D01*
X110667800Y-59222480D02*
X105191540Y-64698740D01*
X110667800Y-57045860D02*
X110667800Y-59222480D01*
X110573820Y-56951880D02*
X110667800Y-57045860D01*
X110413800Y-56951880D02*
X110573820Y-56951880D01*
X110241080Y-57124600D02*
X110413800Y-56951880D01*
X110241080Y-58687970D02*
X110241080Y-57124600D01*
X110670340Y-49822100D02*
X110670340Y-56118760D01*
X109628940Y-48780700D02*
X110670340Y-49822100D01*
X109628940Y-47429420D02*
X109628940Y-48780700D01*
X106698260Y-44498740D02*
X109628940Y-47429420D01*
X106431540Y-44498740D02*
X106698260Y-44498740D01*
X109811820Y-58590180D02*
X110004860Y-58783220D01*
X110670340Y-56118760D02*
X109811820Y-56977280D01*
X109811820Y-56977280D02*
X109811820Y-58590180D01*
X110004860Y-58783220D02*
X110145830Y-58783220D01*
X110145830Y-58783220D02*
X110241080Y-58687970D01*
X106471540Y-43668740D02*
X106441540Y-43698740D01*
X111089440Y-48112680D02*
X111089440Y-59500840D01*
X110848140Y-47871380D02*
X111089440Y-48112680D01*
X110698280Y-47871380D02*
X110848140Y-47871380D01*
X110589060Y-47980600D02*
X110698280Y-47871380D01*
X110589060Y-48859440D02*
X110589060Y-47980600D01*
X110500160Y-48948340D02*
X110589060Y-48859440D01*
X106518020Y-43698740D02*
X110157260Y-47337980D01*
X106441540Y-43698740D02*
X106518020Y-43698740D01*
X110157260Y-47337980D02*
X110157260Y-48727360D01*
X110378240Y-48948340D02*
X110500160Y-48948340D01*
X110157260Y-48727360D02*
X110378240Y-48948340D01*
X111089440Y-59500840D02*
X105360540Y-65229740D01*
X105360540Y-65229740D02*
X105031540Y-65229740D01*
X105031540Y-65229740D02*
X104465120Y-64663320D01*
X104465120Y-64663320D02*
X104112060Y-64663320D01*
X104112060Y-64663320D02*
X103548180Y-65227200D01*
X103548180Y-65227200D02*
X102130000Y-65227200D01*
X102130000Y-65227200D02*
X101633020Y-64730220D01*
X101633020Y-64730220D02*
X101631340Y-64730220D01*
X101631340Y-64730220D02*
X101384100Y-64482980D01*
X101384100Y-64482980D02*
X101384100Y-64274700D01*
X101384100Y-64274700D02*
X101633020Y-64025780D01*
D20*
X113121440Y-79679800D02*
X113118900Y-79679800D01*
X114846100Y-81404460D02*
X113121440Y-79679800D01*
X122181620Y-81404460D02*
X114846100Y-81404460D01*
X126202440Y-77383640D02*
X122181620Y-81404460D01*
X129070100Y-71534020D02*
X129082800Y-71546720D01*
X129052320Y-71534020D02*
X129070100Y-71534020D01*
X129082800Y-71546720D02*
X129082800Y-75839320D01*
X129082800Y-75839320D02*
X127538480Y-77383640D01*
X127538480Y-77383640D02*
X126202440Y-77383640D01*
D23*
X105890060Y-69659500D02*
X105890060Y-69631560D01*
X106710480Y-70479920D02*
X105890060Y-69659500D01*
X112247680Y-80342740D02*
X112283240Y-80307180D01*
X112283240Y-75323700D02*
X107439460Y-70479920D01*
X112283240Y-80307180D02*
X112283240Y-75323700D01*
X107439460Y-70479920D02*
X106710480Y-70479920D01*
D20*
X107292140Y-66776600D02*
X111058960Y-66776600D01*
X111058960Y-66776600D02*
X111785400Y-67503040D01*
D24*
X110446820Y-64066420D02*
X110446820Y-63754000D01*
X110446820Y-63754000D02*
X110962440Y-63238380D01*
X110962440Y-63238380D02*
X110962440Y-62270640D01*
X110962440Y-62270640D02*
X110378240Y-61686440D01*
D21*
X134096760Y-52918360D02*
X134940040Y-52918360D01*
X134940040Y-52918360D02*
X136151620Y-54129940D01*
X136151620Y-54129940D02*
X136151620Y-65915540D01*
X136151620Y-65915540D02*
X136151620Y-65915540D01*
X90495120Y-83403440D02*
X91899740Y-83403440D01*
X89631520Y-79039720D02*
X89631520Y-81020920D01*
X89631520Y-81020920D02*
X89461340Y-81191100D01*
X89461340Y-81191100D02*
X89461340Y-82369660D01*
X89461340Y-82369660D02*
X90495120Y-83403440D01*
D23*
X95039180Y-65171320D02*
X92496640Y-62628780D01*
X95039180Y-65610740D02*
X95039180Y-65171320D01*
X94739460Y-65910460D02*
X95039180Y-65610740D01*
X94739460Y-66258440D02*
X94739460Y-65910460D01*
X92496640Y-62628780D02*
X92471240Y-62628780D01*
X97205800Y-68727320D02*
X95018860Y-66540380D01*
X98104960Y-74571860D02*
X98104960Y-71925180D01*
X98104960Y-71925180D02*
X97205800Y-71026020D01*
X97205800Y-71026020D02*
X97205800Y-68727320D01*
X95018860Y-66537840D02*
X94739460Y-66258440D01*
X95018860Y-66540380D02*
X95018860Y-66537840D01*
D24*
X107449620Y-71216520D02*
X107452160Y-71219060D01*
X106354880Y-71216520D02*
X107449620Y-71216520D01*
X104454960Y-69623940D02*
X104762300Y-69623940D01*
X104762300Y-69623940D02*
X106354880Y-71216520D01*
D25*
X105905300Y-68252340D02*
X105874820Y-68252340D01*
X107241340Y-68252340D02*
X105905300Y-68252340D01*
X132920740Y-69994780D02*
X132440680Y-69514720D01*
X108503720Y-69514720D02*
X107241340Y-68252340D01*
X132440680Y-69514720D02*
X108503720Y-69514720D01*
D23*
X95986600Y-71043800D02*
X95978980Y-71043800D01*
X95247460Y-71752460D02*
X95341440Y-71658480D01*
X93030040Y-65493900D02*
X93146880Y-65377060D01*
X79987140Y-52738020D02*
X79987140Y-51907440D01*
X79542640Y-53182520D02*
X79987140Y-52738020D01*
X78905100Y-53182520D02*
X79542640Y-53182520D01*
X78308200Y-53385720D02*
X78701900Y-53385720D01*
X78701900Y-53385720D02*
X78905100Y-53182520D01*
X79987140Y-51907440D02*
X80365600Y-51528980D01*
X80365600Y-51528980D02*
X82943700Y-51528980D01*
X92102940Y-65493900D02*
X93030040Y-65493900D01*
X82943700Y-51528980D02*
X86969600Y-55554880D01*
X86969600Y-55554880D02*
X86969600Y-60360560D01*
X88445340Y-61843920D02*
X88097360Y-62191900D01*
X88452960Y-61843920D02*
X88445340Y-61843920D01*
X88452960Y-61843920D02*
X92102940Y-65493900D01*
X86969600Y-60360560D02*
X88452960Y-61843920D01*
X92440760Y-65062100D02*
X92440760Y-64673480D01*
X92323920Y-65178940D02*
X92440760Y-65062100D01*
X79446120Y-52946300D02*
X79748380Y-52644040D01*
X83042760Y-51292760D02*
X87205820Y-55455820D01*
X87205820Y-55455820D02*
X87205820Y-60264040D01*
X78318360Y-52748180D02*
X78696820Y-52748180D01*
X78894940Y-52946300D02*
X79446120Y-52946300D01*
X78696820Y-52748180D02*
X78894940Y-52946300D01*
X79748380Y-52644040D02*
X79748380Y-51813460D01*
X80269080Y-51292760D02*
X83042760Y-51292760D01*
X79748380Y-51813460D02*
X80269080Y-51292760D01*
X92120720Y-65178940D02*
X92323920Y-65178940D01*
X88615520Y-61671200D02*
X88943180Y-61343540D01*
X88615520Y-61673740D02*
X88615520Y-61671200D01*
X88615520Y-61673740D02*
X92120720Y-65178940D01*
X87205820Y-60264040D02*
X88615520Y-61673740D01*
D20*
X83629500Y-85509100D02*
X83629500Y-85582760D01*
D24*
X83576160Y-83941920D02*
X83576160Y-89075260D01*
X78092300Y-78458060D02*
X83576160Y-83941920D01*
X78110080Y-61231780D02*
X78084680Y-61257180D01*
X78084680Y-61257180D02*
X78084680Y-65948560D01*
X78084680Y-65948560D02*
X78092300Y-65956180D01*
D25*
X71785480Y-57251600D02*
X71739760Y-57205880D01*
D24*
X78092300Y-65956180D02*
X78092300Y-73393300D01*
D25*
X78092300Y-73393300D02*
X72798940Y-73393300D01*
X72798940Y-73393300D02*
X71785480Y-72379840D01*
X71785480Y-72379840D02*
X71785480Y-57251600D01*
D24*
X78092300Y-74363580D02*
X78092300Y-78458060D01*
X78092300Y-73393300D02*
X78092300Y-74363580D01*
D26*
X93014800Y-81079340D02*
X97391220Y-76702920D01*
X91920060Y-81079340D02*
X93014800Y-81079340D01*
D23*
X106108500Y-80035400D02*
X106108500Y-77256640D01*
X106108500Y-77256640D02*
X104594660Y-75742800D01*
X104594660Y-75742800D02*
X103139240Y-75742800D01*
X103139240Y-75742800D02*
X102847140Y-75450700D01*
X102847140Y-75450700D02*
X102847140Y-74561700D01*
X102847140Y-74561700D02*
X101744780Y-73459340D01*
X101744780Y-73459340D02*
X101744780Y-73052940D01*
X102341680Y-72456040D02*
X102341680Y-71760080D01*
X101744780Y-73052940D02*
X102341680Y-72456040D01*
X101330760Y-72765920D02*
X101627940Y-72468740D01*
X101330760Y-73616820D02*
X101330760Y-72765920D01*
X102422960Y-74709020D02*
X101330760Y-73616820D01*
X105455720Y-77282040D02*
X104452420Y-76278740D01*
X105455720Y-80032860D02*
X105455720Y-77282040D01*
X104452420Y-76278740D02*
X103009700Y-76278740D01*
X103009700Y-76278740D02*
X102422960Y-75692000D01*
X102422960Y-75692000D02*
X102422960Y-74709020D01*
X111541560Y-82654140D02*
X112082580Y-83195160D01*
X111541560Y-78513940D02*
X111541560Y-82654140D01*
X106319320Y-73291700D02*
X111541560Y-78513940D01*
X106319320Y-72179180D02*
X106319320Y-73291700D01*
X104025700Y-69885560D02*
X106319320Y-72179180D01*
X104460040Y-68938140D02*
X103901240Y-69496940D01*
X104460040Y-68201540D02*
X104460040Y-68938140D01*
X103901240Y-69496940D02*
X103901240Y-69756020D01*
X103901240Y-69756020D02*
X104025700Y-69880480D01*
X104025700Y-69880480D02*
X104025700Y-69885560D01*
X103512620Y-69171820D02*
X103766620Y-68917820D01*
X110954820Y-78597760D02*
X104660700Y-72303640D01*
X110954820Y-83187540D02*
X110954820Y-78597760D01*
X104660700Y-72303640D02*
X104660700Y-71028560D01*
X104660700Y-71028560D02*
X103512620Y-69880480D01*
X103512620Y-69880480D02*
X103512620Y-69171820D01*
X109860080Y-78186280D02*
X109860080Y-83185000D01*
X104259380Y-72585580D02*
X109860080Y-78186280D01*
X103047800Y-69977000D02*
X103350060Y-70279260D01*
X103047800Y-69623940D02*
X103047800Y-69977000D01*
X103350060Y-70279260D02*
X103350060Y-70281800D01*
X103350060Y-70281800D02*
X104259380Y-71191120D01*
X104259380Y-71191120D02*
X104259380Y-72585580D01*
X104818180Y-80322420D02*
X104818180Y-79799180D01*
X104818180Y-79799180D02*
X105041700Y-79575660D01*
X105041700Y-79575660D02*
X105041700Y-77495400D01*
X105041700Y-77495400D02*
X104244140Y-76697840D01*
X104244140Y-76697840D02*
X102778560Y-76697840D01*
X102778560Y-76697840D02*
X101960680Y-75879960D01*
X101960680Y-75879960D02*
X101960680Y-74891900D01*
X100934520Y-73865740D02*
X100934520Y-71757540D01*
X101960680Y-74891900D02*
X100934520Y-73865740D01*
X105016300Y-66225420D02*
X104457500Y-66784220D01*
X105755440Y-66225420D02*
X105016300Y-66225420D01*
X106916220Y-65064640D02*
X105755440Y-66225420D01*
X108836460Y-65064640D02*
X106916220Y-65064640D01*
X109867700Y-64033400D02*
X108836460Y-65064640D01*
X109827060Y-62306200D02*
X109565440Y-62567820D01*
X109827060Y-62166500D02*
X109827060Y-62306200D01*
X109565440Y-62567820D02*
X109565440Y-63083440D01*
X109565440Y-63083440D02*
X109867700Y-63385700D01*
X109867700Y-63385700D02*
X109867700Y-64033400D01*
X102110540Y-69156580D02*
X102351840Y-68915280D01*
X108117640Y-77764640D02*
X103507540Y-73154540D01*
X108117640Y-80556100D02*
X108117640Y-77764640D01*
X103507540Y-73154540D02*
X103507540Y-71640700D01*
X103507540Y-71640700D02*
X102110540Y-70243700D01*
X102110540Y-70243700D02*
X102110540Y-69156580D01*
X106768900Y-80032860D02*
X106768900Y-77165200D01*
X106768900Y-77165200D02*
X103085900Y-73482200D01*
X103085900Y-73482200D02*
X103085900Y-71795640D01*
X103085900Y-71795640D02*
X101836220Y-70545960D01*
X101836220Y-70545960D02*
X101427280Y-70545960D01*
X100944680Y-71028560D02*
X100228400Y-71028560D01*
X101427280Y-70545960D02*
X100944680Y-71028560D01*
X103065580Y-67505580D02*
X102339140Y-67505580D01*
X106634280Y-75661520D02*
X106631740Y-75661520D01*
X109108240Y-78135480D02*
X106634280Y-75661520D01*
X106631740Y-75661520D02*
X103875840Y-72905620D01*
X103875840Y-71409560D02*
X102514400Y-70048120D01*
X109108240Y-80551020D02*
X109108240Y-78135480D01*
X103875840Y-72905620D02*
X103875840Y-71409560D01*
X102514400Y-70048120D02*
X102514400Y-69469000D01*
X102514400Y-69469000D02*
X103629460Y-68353940D01*
X103629460Y-68353940D02*
X103629460Y-68069460D01*
X103629460Y-68069460D02*
X103065580Y-67505580D01*
X100383340Y-80147160D02*
X100385880Y-80149700D01*
X100383340Y-74919840D02*
X100383340Y-80147160D01*
X98922840Y-73459340D02*
X100383340Y-74919840D01*
X98922840Y-72069960D02*
X98922840Y-73459340D01*
X97637600Y-70784720D02*
X98922840Y-72069960D01*
X97637600Y-67772280D02*
X97637600Y-70784720D01*
X100228400Y-65382140D02*
X100025200Y-65178940D01*
X100025200Y-65178940D02*
X99331780Y-65178940D01*
X98986340Y-64833500D02*
X98595180Y-64833500D01*
X99331780Y-65178940D02*
X98986340Y-64833500D01*
X98595180Y-64833500D02*
X98267520Y-65161160D01*
X98267520Y-65161160D02*
X97883980Y-65161160D01*
X97883980Y-65161160D02*
X97609660Y-64886840D01*
X97609660Y-64886840D02*
X97167700Y-64886840D01*
X96103440Y-65951100D02*
X96103440Y-66238120D01*
X97167700Y-64886840D02*
X96103440Y-65951100D01*
X96103440Y-66238120D02*
X97637600Y-67772280D01*
X96659700Y-64660780D02*
X96659700Y-64660780D01*
X113080800Y-62313820D02*
X113080800Y-62290960D01*
X109860080Y-65511680D02*
X113080800Y-62290960D01*
X107820460Y-65511680D02*
X109860080Y-65511680D01*
X103207820Y-66309240D02*
X104188260Y-67289680D01*
X97063560Y-63550800D02*
X97510600Y-63550800D01*
X97510600Y-63550800D02*
X97838260Y-63878460D01*
X97838260Y-63878460D02*
X98226880Y-63878460D01*
X96687640Y-64676020D02*
X96687640Y-63926720D01*
X96687640Y-63926720D02*
X97063560Y-63550800D01*
X98226880Y-63878460D02*
X98559620Y-63545720D01*
X98559620Y-63545720D02*
X99054920Y-63545720D01*
X99054920Y-63545720D02*
X102120700Y-66611500D01*
X102120700Y-66611500D02*
X102522020Y-66611500D01*
X102522020Y-66611500D02*
X102824280Y-66309240D01*
X102824280Y-66309240D02*
X103207820Y-66309240D01*
X106042460Y-67289680D02*
X107820460Y-65511680D01*
X104188260Y-67289680D02*
X106042460Y-67289680D01*
D20*
X85394800Y-80754220D02*
X85295740Y-80853280D01*
X85295740Y-80853280D02*
X85295740Y-84508340D01*
D27*
X71498460Y-90002360D02*
X81498440Y-90002360D01*
X67657980Y-88968580D02*
X70464680Y-88968580D01*
X70464680Y-88968580D02*
X71498460Y-90002360D01*
D23*
X80604360Y-62953900D02*
X80604360Y-64208660D01*
X80604360Y-64208660D02*
X88541860Y-72146160D01*
X88541860Y-72146160D02*
X93538040Y-72146160D01*
X95349060Y-70335140D02*
X96685100Y-70335140D01*
X93538040Y-72146160D02*
X95349060Y-70335140D01*
D20*
X80604360Y-61666120D02*
X80604360Y-62953900D01*
X74330560Y-55392320D02*
X80604360Y-61666120D01*
X83426300Y-45364400D02*
X82395060Y-46395640D01*
X82395060Y-46395640D02*
X76682600Y-46395640D01*
X76682600Y-46395640D02*
X74330560Y-48747680D01*
X74330560Y-48747680D02*
X74330560Y-55392320D01*
D28*
X130929380Y-73667620D02*
X131658360Y-73667620D01*
X136037320Y-79552800D02*
X135321040Y-79552800D01*
X133835140Y-79552800D02*
X135318500Y-79552800D01*
X132621020Y-78338680D02*
X133835140Y-79552800D01*
X132621020Y-74383900D02*
X132621020Y-78338680D01*
X131658360Y-73667620D02*
X131904740Y-73667620D01*
X131904740Y-73667620D02*
X132621020Y-74383900D01*
D25*
X115516660Y-78595220D02*
X115006120Y-78595220D01*
X116207540Y-77904340D02*
X115516660Y-78595220D01*
X116207540Y-71996300D02*
X116207540Y-77904340D01*
X118252240Y-69951600D02*
X116207540Y-71996300D01*
X132900420Y-71574660D02*
X132900420Y-70881240D01*
X132900420Y-70881240D02*
X131973320Y-69954140D01*
X131973320Y-69954140D02*
X124607320Y-69954140D01*
X124607320Y-69954140D02*
X124604780Y-69951600D01*
X124604780Y-69951600D02*
X118252240Y-69951600D01*
D23*
G36*
X99138900Y-65353755D02*
G01*
X99147043Y-65363677D01*
X99156964Y-65371819D01*
X99186632Y-65396168D01*
X99210775Y-65409072D01*
X99211061Y-65409225D01*
X99443298Y-65641462D01*
X99453148Y-65649546D01*
X99464386Y-65655552D01*
X99476579Y-65659251D01*
X99489104Y-65660500D01*
X99906724Y-65661504D01*
X99957479Y-65712259D01*
X100027087Y-65758770D01*
X100104432Y-65790807D01*
X100186541Y-65807140D01*
X100270259Y-65807140D01*
X100352368Y-65790807D01*
X100429713Y-65758770D01*
X100499321Y-65712259D01*
X100531606Y-65679974D01*
X100632650Y-65794170D01*
X100604401Y-65822419D01*
X100557890Y-65892027D01*
X100525853Y-65969372D01*
X100509520Y-66051481D01*
X100509520Y-66135199D01*
X100525853Y-66217308D01*
X100557890Y-66294653D01*
X100604401Y-66364261D01*
X100663599Y-66423459D01*
X100733207Y-66469970D01*
X100810552Y-66502007D01*
X100892661Y-66518340D01*
X100976379Y-66518340D01*
X101058488Y-66502007D01*
X101135833Y-66469970D01*
X101195401Y-66430168D01*
X101297320Y-66545353D01*
X101306659Y-66554022D01*
X101317509Y-66560703D01*
X101319819Y-66561646D01*
X101815273Y-66996905D01*
X101619096Y-67357690D01*
X101614136Y-67369427D01*
X101611560Y-67381906D01*
X101611204Y-67389496D01*
X101613744Y-67607936D01*
X101615141Y-67620601D01*
X101618981Y-67632751D01*
X101625118Y-67643918D01*
X101633316Y-67653673D01*
X101641133Y-67660196D01*
X102156753Y-68025956D01*
X102167818Y-68032274D01*
X102179904Y-68036312D01*
X102194799Y-68037939D01*
X102932709Y-68032953D01*
X103227717Y-68163104D01*
X103231011Y-68291591D01*
X102747907Y-68760892D01*
X102728470Y-68713967D01*
X102681959Y-68644359D01*
X102622761Y-68585161D01*
X102553153Y-68538650D01*
X102475808Y-68506613D01*
X102393699Y-68490280D01*
X102309981Y-68490280D01*
X102227872Y-68506613D01*
X102150527Y-68538650D01*
X102080919Y-68585161D01*
X102021721Y-68644359D01*
X101975210Y-68713967D01*
X101951363Y-68771540D01*
X100445759Y-68771540D01*
X99834351Y-68162221D01*
X101210560Y-68162221D01*
X101210560Y-68245939D01*
X101226893Y-68328048D01*
X101258930Y-68405393D01*
X101305441Y-68475001D01*
X101364639Y-68534199D01*
X101434247Y-68580710D01*
X101511592Y-68612747D01*
X101593701Y-68629080D01*
X101677419Y-68629080D01*
X101759528Y-68612747D01*
X101836873Y-68580710D01*
X101906481Y-68534199D01*
X101965679Y-68475001D01*
X102012190Y-68405393D01*
X102044227Y-68328048D01*
X102060560Y-68245939D01*
X102060560Y-68162221D01*
X102044227Y-68080112D01*
X102012190Y-68002767D01*
X101965679Y-67933159D01*
X101906481Y-67873961D01*
X101836873Y-67827450D01*
X101759528Y-67795413D01*
X101677419Y-67779080D01*
X101593701Y-67779080D01*
X101511592Y-67795413D01*
X101434247Y-67827450D01*
X101364639Y-67873961D01*
X101305441Y-67933159D01*
X101258930Y-68002767D01*
X101226893Y-68080112D01*
X101210560Y-68162221D01*
X99834351Y-68162221D01*
X99128358Y-67458641D01*
X100509520Y-67458641D01*
X100509520Y-67542359D01*
X100525853Y-67624468D01*
X100557890Y-67701813D01*
X100604401Y-67771421D01*
X100663599Y-67830619D01*
X100733207Y-67877130D01*
X100810552Y-67909167D01*
X100892661Y-67925500D01*
X100976379Y-67925500D01*
X101058488Y-67909167D01*
X101135833Y-67877130D01*
X101205441Y-67830619D01*
X101264639Y-67771421D01*
X101311150Y-67701813D01*
X101343187Y-67624468D01*
X101359520Y-67542359D01*
X101359520Y-67458641D01*
X101343187Y-67376532D01*
X101311150Y-67299187D01*
X101264639Y-67229579D01*
X101205441Y-67170381D01*
X101135833Y-67123870D01*
X101058488Y-67091833D01*
X100976379Y-67075500D01*
X100892661Y-67075500D01*
X100810552Y-67091833D01*
X100733207Y-67123870D01*
X100663599Y-67170381D01*
X100604401Y-67229579D01*
X100557890Y-67299187D01*
X100525853Y-67376532D01*
X100509520Y-67458641D01*
X99128358Y-67458641D01*
X98877291Y-67208432D01*
X98942668Y-67195427D01*
X99020013Y-67163390D01*
X99089621Y-67116879D01*
X99148819Y-67057681D01*
X99195330Y-66988073D01*
X99227367Y-66910728D01*
X99243700Y-66828619D01*
X99243700Y-66744901D01*
X99227367Y-66662792D01*
X99195330Y-66585447D01*
X99148819Y-66515839D01*
X99089621Y-66456641D01*
X99020013Y-66410130D01*
X98942668Y-66378093D01*
X98860559Y-66361760D01*
X98776841Y-66361760D01*
X98694732Y-66378093D01*
X98617387Y-66410130D01*
X98547779Y-66456641D01*
X98488581Y-66515839D01*
X98442070Y-66585447D01*
X98410033Y-66662792D01*
X98396756Y-66729538D01*
X98234663Y-66567999D01*
X98224800Y-66559933D01*
X98213552Y-66553945D01*
X98201352Y-66550267D01*
X98188906Y-66549040D01*
X97734449Y-66548159D01*
X97721339Y-66528539D01*
X97662141Y-66469341D01*
X97592533Y-66422830D01*
X97515188Y-66390793D01*
X97433079Y-66374460D01*
X97349361Y-66374460D01*
X97267252Y-66390793D01*
X97189907Y-66422830D01*
X97120299Y-66469341D01*
X97061101Y-66528539D01*
X97048879Y-66546830D01*
X96905236Y-66546552D01*
X96538351Y-66177360D01*
X96532596Y-66012377D01*
X96864892Y-65675529D01*
X97076840Y-65673880D01*
X97115219Y-65712259D01*
X97184827Y-65758770D01*
X97262172Y-65790807D01*
X97344281Y-65807140D01*
X97427999Y-65807140D01*
X97510108Y-65790807D01*
X97587453Y-65758770D01*
X97657061Y-65712259D01*
X97700292Y-65669028D01*
X98037124Y-65666406D01*
X97970832Y-65679593D01*
X97893487Y-65711630D01*
X97823879Y-65758141D01*
X97764681Y-65817339D01*
X97718170Y-65886947D01*
X97686133Y-65964292D01*
X97669800Y-66046401D01*
X97669800Y-66130119D01*
X97686133Y-66212228D01*
X97718170Y-66289573D01*
X97764681Y-66359181D01*
X97823879Y-66418379D01*
X97893487Y-66464890D01*
X97970832Y-66496927D01*
X98052941Y-66513260D01*
X98136659Y-66513260D01*
X98218768Y-66496927D01*
X98296113Y-66464890D01*
X98365721Y-66418379D01*
X98424919Y-66359181D01*
X98471430Y-66289573D01*
X98503467Y-66212228D01*
X98519800Y-66130119D01*
X98519800Y-66046401D01*
X99087120Y-66046401D01*
X99087120Y-66130119D01*
X99103453Y-66212228D01*
X99135490Y-66289573D01*
X99182001Y-66359181D01*
X99241199Y-66418379D01*
X99310807Y-66464890D01*
X99388152Y-66496927D01*
X99470261Y-66513260D01*
X99553979Y-66513260D01*
X99636088Y-66496927D01*
X99713433Y-66464890D01*
X99783041Y-66418379D01*
X99842239Y-66359181D01*
X99888750Y-66289573D01*
X99920787Y-66212228D01*
X99937120Y-66130119D01*
X99937120Y-66046401D01*
X99920787Y-65964292D01*
X99888750Y-65886947D01*
X99842239Y-65817339D01*
X99783041Y-65758141D01*
X99713433Y-65711630D01*
X99636088Y-65679593D01*
X99553979Y-65663260D01*
X99470261Y-65663260D01*
X99388152Y-65679593D01*
X99310807Y-65711630D01*
X99241199Y-65758141D01*
X99182001Y-65817339D01*
X99135490Y-65886947D01*
X99103453Y-65964292D01*
X99087120Y-66046401D01*
X98519800Y-66046401D01*
X98503467Y-65964292D01*
X98471430Y-65886947D01*
X98424919Y-65817339D01*
X98365721Y-65758141D01*
X98296113Y-65711630D01*
X98218768Y-65679593D01*
X98146658Y-65665249D01*
X98156237Y-65664230D01*
X98168401Y-65660437D01*
X98179592Y-65654343D01*
X98189022Y-65646542D01*
X98672904Y-65162660D01*
X98947806Y-65162660D01*
X99138900Y-65353755D01*
G37*
X99138900Y-65353755D02*
X99147043Y-65363677D01*
X99156964Y-65371819D01*
X99186632Y-65396168D01*
X99210775Y-65409072D01*
X99211061Y-65409225D01*
X99443298Y-65641462D01*
X99453148Y-65649546D01*
X99464386Y-65655552D01*
X99476579Y-65659251D01*
X99489104Y-65660500D01*
X99906724Y-65661504D01*
X99957479Y-65712259D01*
X100027087Y-65758770D01*
X100104432Y-65790807D01*
X100186541Y-65807140D01*
X100270259Y-65807140D01*
X100352368Y-65790807D01*
X100429713Y-65758770D01*
X100499321Y-65712259D01*
X100531606Y-65679974D01*
X100632650Y-65794170D01*
X100604401Y-65822419D01*
X100557890Y-65892027D01*
X100525853Y-65969372D01*
X100509520Y-66051481D01*
X100509520Y-66135199D01*
X100525853Y-66217308D01*
X100557890Y-66294653D01*
X100604401Y-66364261D01*
X100663599Y-66423459D01*
X100733207Y-66469970D01*
X100810552Y-66502007D01*
X100892661Y-66518340D01*
X100976379Y-66518340D01*
X101058488Y-66502007D01*
X101135833Y-66469970D01*
X101195401Y-66430168D01*
X101297320Y-66545353D01*
X101306659Y-66554022D01*
X101317509Y-66560703D01*
X101319819Y-66561646D01*
X101815273Y-66996905D01*
X101619096Y-67357690D01*
X101614136Y-67369427D01*
X101611560Y-67381906D01*
X101611204Y-67389496D01*
X101613744Y-67607936D01*
X101615141Y-67620601D01*
X101618981Y-67632751D01*
X101625118Y-67643918D01*
X101633316Y-67653673D01*
X101641133Y-67660196D01*
X102156753Y-68025956D01*
X102167818Y-68032274D01*
X102179904Y-68036312D01*
X102194799Y-68037939D01*
X102932709Y-68032953D01*
X103227717Y-68163104D01*
X103231011Y-68291591D01*
X102747907Y-68760892D01*
X102728470Y-68713967D01*
X102681959Y-68644359D01*
X102622761Y-68585161D01*
X102553153Y-68538650D01*
X102475808Y-68506613D01*
X102393699Y-68490280D01*
X102309981Y-68490280D01*
X102227872Y-68506613D01*
X102150527Y-68538650D01*
X102080919Y-68585161D01*
X102021721Y-68644359D01*
X101975210Y-68713967D01*
X101951363Y-68771540D01*
X100445759Y-68771540D01*
X99834351Y-68162221D01*
X101210560Y-68162221D01*
X101210560Y-68245939D01*
X101226893Y-68328048D01*
X101258930Y-68405393D01*
X101305441Y-68475001D01*
X101364639Y-68534199D01*
X101434247Y-68580710D01*
X101511592Y-68612747D01*
X101593701Y-68629080D01*
X101677419Y-68629080D01*
X101759528Y-68612747D01*
X101836873Y-68580710D01*
X101906481Y-68534199D01*
X101965679Y-68475001D01*
X102012190Y-68405393D01*
X102044227Y-68328048D01*
X102060560Y-68245939D01*
X102060560Y-68162221D01*
X102044227Y-68080112D01*
X102012190Y-68002767D01*
X101965679Y-67933159D01*
X101906481Y-67873961D01*
X101836873Y-67827450D01*
X101759528Y-67795413D01*
X101677419Y-67779080D01*
X101593701Y-67779080D01*
X101511592Y-67795413D01*
X101434247Y-67827450D01*
X101364639Y-67873961D01*
X101305441Y-67933159D01*
X101258930Y-68002767D01*
X101226893Y-68080112D01*
X101210560Y-68162221D01*
X99834351Y-68162221D01*
X99128358Y-67458641D01*
X100509520Y-67458641D01*
X100509520Y-67542359D01*
X100525853Y-67624468D01*
X100557890Y-67701813D01*
X100604401Y-67771421D01*
X100663599Y-67830619D01*
X100733207Y-67877130D01*
X100810552Y-67909167D01*
X100892661Y-67925500D01*
X100976379Y-67925500D01*
X101058488Y-67909167D01*
X101135833Y-67877130D01*
X101205441Y-67830619D01*
X101264639Y-67771421D01*
X101311150Y-67701813D01*
X101343187Y-67624468D01*
X101359520Y-67542359D01*
X101359520Y-67458641D01*
X101343187Y-67376532D01*
X101311150Y-67299187D01*
X101264639Y-67229579D01*
X101205441Y-67170381D01*
X101135833Y-67123870D01*
X101058488Y-67091833D01*
X100976379Y-67075500D01*
X100892661Y-67075500D01*
X100810552Y-67091833D01*
X100733207Y-67123870D01*
X100663599Y-67170381D01*
X100604401Y-67229579D01*
X100557890Y-67299187D01*
X100525853Y-67376532D01*
X100509520Y-67458641D01*
X99128358Y-67458641D01*
X98877291Y-67208432D01*
X98942668Y-67195427D01*
X99020013Y-67163390D01*
X99089621Y-67116879D01*
X99148819Y-67057681D01*
X99195330Y-66988073D01*
X99227367Y-66910728D01*
X99243700Y-66828619D01*
X99243700Y-66744901D01*
X99227367Y-66662792D01*
X99195330Y-66585447D01*
X99148819Y-66515839D01*
X99089621Y-66456641D01*
X99020013Y-66410130D01*
X98942668Y-66378093D01*
X98860559Y-66361760D01*
X98776841Y-66361760D01*
X98694732Y-66378093D01*
X98617387Y-66410130D01*
X98547779Y-66456641D01*
X98488581Y-66515839D01*
X98442070Y-66585447D01*
X98410033Y-66662792D01*
X98396756Y-66729538D01*
X98234663Y-66567999D01*
X98224800Y-66559933D01*
X98213552Y-66553945D01*
X98201352Y-66550267D01*
X98188906Y-66549040D01*
X97734449Y-66548159D01*
X97721339Y-66528539D01*
X97662141Y-66469341D01*
X97592533Y-66422830D01*
X97515188Y-66390793D01*
X97433079Y-66374460D01*
X97349361Y-66374460D01*
X97267252Y-66390793D01*
X97189907Y-66422830D01*
X97120299Y-66469341D01*
X97061101Y-66528539D01*
X97048879Y-66546830D01*
X96905236Y-66546552D01*
X96538351Y-66177360D01*
X96532596Y-66012377D01*
X96864892Y-65675529D01*
X97076840Y-65673880D01*
X97115219Y-65712259D01*
X97184827Y-65758770D01*
X97262172Y-65790807D01*
X97344281Y-65807140D01*
X97427999Y-65807140D01*
X97510108Y-65790807D01*
X97587453Y-65758770D01*
X97657061Y-65712259D01*
X97700292Y-65669028D01*
X98037124Y-65666406D01*
X97970832Y-65679593D01*
X97893487Y-65711630D01*
X97823879Y-65758141D01*
X97764681Y-65817339D01*
X97718170Y-65886947D01*
X97686133Y-65964292D01*
X97669800Y-66046401D01*
X97669800Y-66130119D01*
X97686133Y-66212228D01*
X97718170Y-66289573D01*
X97764681Y-66359181D01*
X97823879Y-66418379D01*
X97893487Y-66464890D01*
X97970832Y-66496927D01*
X98052941Y-66513260D01*
X98136659Y-66513260D01*
X98218768Y-66496927D01*
X98296113Y-66464890D01*
X98365721Y-66418379D01*
X98424919Y-66359181D01*
X98471430Y-66289573D01*
X98503467Y-66212228D01*
X98519800Y-66130119D01*
X98519800Y-66046401D01*
X99087120Y-66046401D01*
X99087120Y-66130119D01*
X99103453Y-66212228D01*
X99135490Y-66289573D01*
X99182001Y-66359181D01*
X99241199Y-66418379D01*
X99310807Y-66464890D01*
X99388152Y-66496927D01*
X99470261Y-66513260D01*
X99553979Y-66513260D01*
X99636088Y-66496927D01*
X99713433Y-66464890D01*
X99783041Y-66418379D01*
X99842239Y-66359181D01*
X99888750Y-66289573D01*
X99920787Y-66212228D01*
X99937120Y-66130119D01*
X99937120Y-66046401D01*
X99920787Y-65964292D01*
X99888750Y-65886947D01*
X99842239Y-65817339D01*
X99783041Y-65758141D01*
X99713433Y-65711630D01*
X99636088Y-65679593D01*
X99553979Y-65663260D01*
X99470261Y-65663260D01*
X99388152Y-65679593D01*
X99310807Y-65711630D01*
X99241199Y-65758141D01*
X99182001Y-65817339D01*
X99135490Y-65886947D01*
X99103453Y-65964292D01*
X99087120Y-66046401D01*
X98519800Y-66046401D01*
X98503467Y-65964292D01*
X98471430Y-65886947D01*
X98424919Y-65817339D01*
X98365721Y-65758141D01*
X98296113Y-65711630D01*
X98218768Y-65679593D01*
X98146658Y-65665249D01*
X98156237Y-65664230D01*
X98168401Y-65660437D01*
X98179592Y-65654343D01*
X98189022Y-65646542D01*
X98672904Y-65162660D01*
X98947806Y-65162660D01*
X99138900Y-65353755D01*
M02*
