G04 #@! TF.GenerationSoftware,KiCad,Pcbnew,(5.1.5)-3*
G04 #@! TF.CreationDate,2020-11-02T01:39:04+01:00*
G04 #@! TF.ProjectId,LogAn,4c6f6741-6e2e-46b6-9963-61645f706362,rev?*
G04 #@! TF.SameCoordinates,Original*
G04 #@! TF.FileFunction,Legend,Top*
G04 #@! TF.FilePolarity,Positive*
%FSLAX46Y46*%
G04 Gerber Fmt 4.6, Leading zero omitted, Abs format (unit mm)*
G04 Created by KiCad (PCBNEW (5.1.5)-3) date 2020-11-02 01:39:04*
%MOMM*%
%LPD*%
G04 APERTURE LIST*
%ADD10C,0.200000*%
%ADD11C,0.155000*%
%ADD12C,0.160000*%
%ADD13C,0.050000*%
%ADD14C,0.120000*%
%ADD15C,0.150000*%
G04 APERTURE END LIST*
D10*
X108190588Y-86508062D02*
X108190588Y-85608062D01*
X108490588Y-86250920D01*
X108790588Y-85608062D01*
X108790588Y-86508062D01*
X110076302Y-85608062D02*
X110162017Y-85608062D01*
X110247731Y-85650920D01*
X110290588Y-85693777D01*
X110333445Y-85779491D01*
X110376302Y-85950920D01*
X110376302Y-86165205D01*
X110333445Y-86336634D01*
X110290588Y-86422348D01*
X110247731Y-86465205D01*
X110162017Y-86508062D01*
X110076302Y-86508062D01*
X109990588Y-86465205D01*
X109947731Y-86422348D01*
X109904874Y-86336634D01*
X109862017Y-86165205D01*
X109862017Y-85950920D01*
X109904874Y-85779491D01*
X109947731Y-85693777D01*
X109990588Y-85650920D01*
X110076302Y-85608062D01*
X111233445Y-86508062D02*
X110719160Y-86508062D01*
X110976302Y-86508062D02*
X110976302Y-85608062D01*
X110890588Y-85736634D01*
X110804874Y-85822348D01*
X110719160Y-85865205D01*
X111576302Y-85693777D02*
X111619160Y-85650920D01*
X111704874Y-85608062D01*
X111919160Y-85608062D01*
X112004874Y-85650920D01*
X112047731Y-85693777D01*
X112090588Y-85779491D01*
X112090588Y-85865205D01*
X112047731Y-85993777D01*
X111533445Y-86508062D01*
X112090588Y-86508062D01*
D11*
X76855842Y-85207860D02*
X77189176Y-86207860D01*
X77522509Y-85207860D01*
X77808223Y-85922146D02*
X78284414Y-85922146D01*
X77712985Y-86207860D02*
X78046319Y-85207860D01*
X78379652Y-86207860D01*
X78712985Y-86207860D02*
X78712985Y-85207860D01*
X78951080Y-85207860D01*
X79093938Y-85255480D01*
X79189176Y-85350718D01*
X79236795Y-85445956D01*
X79284414Y-85636432D01*
X79284414Y-85779289D01*
X79236795Y-85969765D01*
X79189176Y-86065003D01*
X79093938Y-86160241D01*
X78951080Y-86207860D01*
X78712985Y-86207860D01*
X79998700Y-85207860D02*
X79998700Y-85922146D01*
X79951080Y-86065003D01*
X79855842Y-86160241D01*
X79712985Y-86207860D01*
X79617747Y-86207860D01*
X117526084Y-53408960D02*
X117430846Y-53361340D01*
X117287989Y-53361340D01*
X117145132Y-53408960D01*
X117049894Y-53504198D01*
X117002275Y-53599436D01*
X116954656Y-53789912D01*
X116954656Y-53932769D01*
X117002275Y-54123245D01*
X117049894Y-54218483D01*
X117145132Y-54313721D01*
X117287989Y-54361340D01*
X117383227Y-54361340D01*
X117526084Y-54313721D01*
X117573703Y-54266102D01*
X117573703Y-53932769D01*
X117383227Y-53932769D01*
X131318284Y-81369280D02*
X131223046Y-81321660D01*
X131080189Y-81321660D01*
X130937332Y-81369280D01*
X130842094Y-81464518D01*
X130794475Y-81559756D01*
X130746856Y-81750232D01*
X130746856Y-81893089D01*
X130794475Y-82083565D01*
X130842094Y-82178803D01*
X130937332Y-82274041D01*
X131080189Y-82321660D01*
X131175427Y-82321660D01*
X131318284Y-82274041D01*
X131365903Y-82226422D01*
X131365903Y-81893089D01*
X131175427Y-81893089D01*
X78140061Y-39109400D02*
X78473395Y-40109400D01*
X78806728Y-39109400D01*
X79140061Y-40109400D02*
X79140061Y-39109400D01*
X79806728Y-39109400D02*
X79997204Y-39109400D01*
X80092442Y-39157020D01*
X80187680Y-39252258D01*
X80235300Y-39442734D01*
X80235300Y-39776067D01*
X80187680Y-39966543D01*
X80092442Y-40061781D01*
X79997204Y-40109400D01*
X79806728Y-40109400D01*
X79711490Y-40061781D01*
X79616252Y-39966543D01*
X79568633Y-39776067D01*
X79568633Y-39442734D01*
X79616252Y-39252258D01*
X79711490Y-39157020D01*
X79806728Y-39109400D01*
X111854692Y-41313360D02*
X111283263Y-41313360D01*
X111568978Y-41313360D02*
X111568978Y-40313360D01*
X111473740Y-40456218D01*
X111378501Y-40551456D01*
X111283263Y-40599075D01*
X112140406Y-40313360D02*
X112473740Y-41313360D01*
X112807073Y-40313360D01*
X113616597Y-40313360D02*
X113140406Y-40313360D01*
X113092787Y-40789551D01*
X113140406Y-40741932D01*
X113235644Y-40694313D01*
X113473740Y-40694313D01*
X113568978Y-40741932D01*
X113616597Y-40789551D01*
X113664216Y-40884789D01*
X113664216Y-41122884D01*
X113616597Y-41218122D01*
X113568978Y-41265741D01*
X113473740Y-41313360D01*
X113235644Y-41313360D01*
X113140406Y-41265741D01*
X113092787Y-41218122D01*
X114246042Y-59906160D02*
X113674614Y-59906160D01*
X113960328Y-59906160D02*
X113960328Y-58906160D01*
X113865090Y-59049018D01*
X113769852Y-59144256D01*
X113674614Y-59191875D01*
X114531757Y-58906160D02*
X114865090Y-59906160D01*
X115198423Y-58906160D01*
X135055764Y-66533780D02*
X135674812Y-66533780D01*
X135341479Y-66914733D01*
X135484336Y-66914733D01*
X135579574Y-66962352D01*
X135627193Y-67009971D01*
X135674812Y-67105209D01*
X135674812Y-67343304D01*
X135627193Y-67438542D01*
X135579574Y-67486161D01*
X135484336Y-67533780D01*
X135198621Y-67533780D01*
X135103383Y-67486161D01*
X135055764Y-67438542D01*
X135960526Y-66533780D02*
X136293860Y-67533780D01*
X136627193Y-66533780D01*
X136865288Y-66533780D02*
X137484336Y-66533780D01*
X137151002Y-66914733D01*
X137293860Y-66914733D01*
X137389098Y-66962352D01*
X137436717Y-67009971D01*
X137484336Y-67105209D01*
X137484336Y-67343304D01*
X137436717Y-67438542D01*
X137389098Y-67486161D01*
X137293860Y-67533780D01*
X137008145Y-67533780D01*
X136912907Y-67486161D01*
X136865288Y-67438542D01*
X126283506Y-71733160D02*
X126616840Y-72733160D01*
X126950173Y-71733160D01*
X127616840Y-72209351D02*
X127759697Y-72256970D01*
X127807316Y-72304589D01*
X127854935Y-72399827D01*
X127854935Y-72542684D01*
X127807316Y-72637922D01*
X127759697Y-72685541D01*
X127664459Y-72733160D01*
X127283506Y-72733160D01*
X127283506Y-71733160D01*
X127616840Y-71733160D01*
X127712078Y-71780780D01*
X127759697Y-71828399D01*
X127807316Y-71923637D01*
X127807316Y-72018875D01*
X127759697Y-72114113D01*
X127712078Y-72161732D01*
X127616840Y-72209351D01*
X127283506Y-72209351D01*
D12*
X108649046Y-53584639D02*
X108649046Y-52484639D01*
X109068094Y-52851305D02*
X109329999Y-53584639D01*
X109591903Y-52851305D01*
X110482380Y-53584639D02*
X110482380Y-53008448D01*
X110429999Y-52903686D01*
X110325237Y-52851305D01*
X110115713Y-52851305D01*
X110010951Y-52903686D01*
X110482380Y-53532258D02*
X110377618Y-53584639D01*
X110115713Y-53584639D01*
X110010951Y-53532258D01*
X109958570Y-53427496D01*
X109958570Y-53322734D01*
X110010951Y-53217972D01*
X110115713Y-53165591D01*
X110377618Y-53165591D01*
X110482380Y-53113210D01*
X111006189Y-52851305D02*
X111006189Y-53584639D01*
X111006189Y-52956067D02*
X111058570Y-52903686D01*
X111163332Y-52851305D01*
X111320475Y-52851305D01*
X111425237Y-52903686D01*
X111477618Y-53008448D01*
X111477618Y-53584639D01*
X107706189Y-55394639D02*
X107706189Y-54294639D01*
X108125237Y-54294639D01*
X108229999Y-54347020D01*
X108282380Y-54399400D01*
X108334760Y-54504162D01*
X108334760Y-54661305D01*
X108282380Y-54766067D01*
X108229999Y-54818448D01*
X108125237Y-54870829D01*
X107706189Y-54870829D01*
X109225237Y-55342258D02*
X109120475Y-55394639D01*
X108910951Y-55394639D01*
X108806189Y-55342258D01*
X108753808Y-55237496D01*
X108753808Y-54818448D01*
X108806189Y-54713686D01*
X108910951Y-54661305D01*
X109120475Y-54661305D01*
X109225237Y-54713686D01*
X109277618Y-54818448D01*
X109277618Y-54923210D01*
X108753808Y-55027972D01*
X109749046Y-55394639D02*
X109749046Y-54661305D01*
X109749046Y-54870829D02*
X109801427Y-54766067D01*
X109853808Y-54713686D01*
X109958570Y-54661305D01*
X110063332Y-54661305D01*
X110849046Y-55342258D02*
X110744284Y-55394639D01*
X110534760Y-55394639D01*
X110429999Y-55342258D01*
X110377618Y-55237496D01*
X110377618Y-54818448D01*
X110429999Y-54713686D01*
X110534760Y-54661305D01*
X110744284Y-54661305D01*
X110849046Y-54713686D01*
X110901427Y-54818448D01*
X110901427Y-54923210D01*
X110377618Y-55027972D01*
X111372856Y-55394639D02*
X111372856Y-54294639D01*
X111844284Y-55394639D02*
X111844284Y-54818448D01*
X111791903Y-54713686D01*
X111687141Y-54661305D01*
X111529999Y-54661305D01*
X111425237Y-54713686D01*
X111372856Y-54766067D01*
X112368094Y-55394639D02*
X112368094Y-54661305D01*
X112368094Y-54294639D02*
X112315713Y-54347020D01*
X112368094Y-54399400D01*
X112420475Y-54347020D01*
X112368094Y-54294639D01*
X112368094Y-54399400D01*
X112891903Y-54661305D02*
X112891903Y-55394639D01*
X112891903Y-54766067D02*
X112944284Y-54713686D01*
X113049046Y-54661305D01*
X113206189Y-54661305D01*
X113310951Y-54713686D01*
X113363332Y-54818448D01*
X113363332Y-55394639D01*
X113887141Y-55394639D02*
X113887141Y-54661305D01*
X113887141Y-54294639D02*
X113834760Y-54347020D01*
X113887141Y-54399400D01*
X113939522Y-54347020D01*
X113887141Y-54294639D01*
X113887141Y-54399400D01*
X114882380Y-55394639D02*
X114882380Y-54818448D01*
X114829999Y-54713686D01*
X114725237Y-54661305D01*
X114515713Y-54661305D01*
X114410951Y-54713686D01*
X114882380Y-55342258D02*
X114777618Y-55394639D01*
X114515713Y-55394639D01*
X114410951Y-55342258D01*
X114358570Y-55237496D01*
X114358570Y-55132734D01*
X114410951Y-55027972D01*
X114515713Y-54975591D01*
X114777618Y-54975591D01*
X114882380Y-54923210D01*
X115406189Y-55394639D02*
X115406189Y-54294639D01*
X115510951Y-54975591D02*
X115825237Y-55394639D01*
X115825237Y-54661305D02*
X115406189Y-55080353D01*
X114044284Y-56209400D02*
X114096665Y-56157020D01*
X114201427Y-56104639D01*
X114463332Y-56104639D01*
X114568094Y-56157020D01*
X114620475Y-56209400D01*
X114672856Y-56314162D01*
X114672856Y-56418924D01*
X114620475Y-56576067D01*
X113991903Y-57204639D01*
X114672856Y-57204639D01*
X115353808Y-56104639D02*
X115458570Y-56104639D01*
X115563332Y-56157020D01*
X115615713Y-56209400D01*
X115668094Y-56314162D01*
X115720475Y-56523686D01*
X115720475Y-56785591D01*
X115668094Y-56995115D01*
X115615713Y-57099877D01*
X115563332Y-57152258D01*
X115458570Y-57204639D01*
X115353808Y-57204639D01*
X115249046Y-57152258D01*
X115196665Y-57099877D01*
X115144284Y-56995115D01*
X115091903Y-56785591D01*
X115091903Y-56523686D01*
X115144284Y-56314162D01*
X115196665Y-56209400D01*
X115249046Y-56157020D01*
X115353808Y-56104639D01*
X116139522Y-56209400D02*
X116191903Y-56157020D01*
X116296665Y-56104639D01*
X116558570Y-56104639D01*
X116663332Y-56157020D01*
X116715713Y-56209400D01*
X116768094Y-56314162D01*
X116768094Y-56418924D01*
X116715713Y-56576067D01*
X116087141Y-57204639D01*
X116768094Y-57204639D01*
X117449046Y-56104639D02*
X117553808Y-56104639D01*
X117658570Y-56157020D01*
X117710951Y-56209400D01*
X117763332Y-56314162D01*
X117815713Y-56523686D01*
X117815713Y-56785591D01*
X117763332Y-56995115D01*
X117710951Y-57099877D01*
X117658570Y-57152258D01*
X117553808Y-57204639D01*
X117449046Y-57204639D01*
X117344284Y-57152258D01*
X117291903Y-57099877D01*
X117239522Y-56995115D01*
X117187141Y-56785591D01*
X117187141Y-56523686D01*
X117239522Y-56314162D01*
X117291903Y-56209400D01*
X117344284Y-56157020D01*
X117449046Y-56104639D01*
D13*
X140710920Y-90850720D02*
X65778380Y-90850720D01*
X140716000Y-38854380D02*
X140710920Y-90850720D01*
X65773300Y-38858340D02*
X140716000Y-38854380D01*
X65778380Y-90850720D02*
X65773300Y-38858340D01*
D12*
X102881220Y-81894680D02*
X103331220Y-81894680D01*
X113601500Y-80875080D02*
X113601500Y-80425080D01*
X80455560Y-44559220D02*
X80905560Y-44559220D01*
X82059320Y-40775620D02*
X82359320Y-40775620D01*
X82059320Y-44075620D02*
X82059320Y-40775620D01*
X82359320Y-44075620D02*
X82059320Y-44075620D01*
X84859320Y-40775620D02*
X84559320Y-40775620D01*
X84859320Y-44075620D02*
X84859320Y-40775620D01*
X84559320Y-44075620D02*
X84859320Y-44075620D01*
X85087460Y-79323140D02*
X85087460Y-78873140D01*
X120163176Y-46690960D02*
X121367304Y-46690960D01*
X120163176Y-44870960D02*
X121367304Y-44870960D01*
X121405236Y-63968040D02*
X122609364Y-63968040D01*
X121405236Y-62148040D02*
X122609364Y-62148040D01*
X125270940Y-69814524D02*
X125270940Y-68610396D01*
X123450940Y-69814524D02*
X123450940Y-68610396D01*
D14*
X133638520Y-67017900D02*
G75*
G03X133638520Y-67017900I-700000J0D01*
G01*
X110920760Y-40853360D02*
G75*
G03X110920760Y-40853360I-700000J0D01*
G01*
X129544040Y-45473620D02*
G75*
G03X129544040Y-45473620I-700000J0D01*
G01*
X117049780Y-59418220D02*
G75*
G03X117049780Y-59418220I-700000J0D01*
G01*
X117989580Y-52108100D02*
G75*
G03X117989580Y-52108100I-700000J0D01*
G01*
X127834620Y-70693280D02*
G75*
G03X127834620Y-70693280I-700000J0D01*
G01*
X81842840Y-85623400D02*
G75*
G03X81842840Y-85623400I-700000J0D01*
G01*
X78177620Y-40721280D02*
G75*
G03X78177620Y-40721280I-700000J0D01*
G01*
X130262860Y-81760060D02*
G75*
G03X130262860Y-81760060I-700000J0D01*
G01*
X129991080Y-74919840D02*
G75*
G03X129991080Y-74919840I-700000J0D01*
G01*
D12*
X79945047Y-41890220D02*
X79602513Y-41890220D01*
X79945047Y-42910220D02*
X79602513Y-42910220D01*
X79747293Y-87845360D02*
X80089827Y-87845360D01*
X79747293Y-86825360D02*
X80089827Y-86825360D01*
X85400940Y-61998860D02*
X85850940Y-61998860D01*
X85843320Y-71635620D02*
X85393320Y-71635620D01*
X78867000Y-61789100D02*
X78867000Y-62239100D01*
X78846680Y-71359820D02*
X78846680Y-71809820D01*
X81089500Y-62236560D02*
X81089500Y-61786560D01*
X78067960Y-73731900D02*
X78517960Y-73731900D01*
X82095100Y-63415100D02*
X82095100Y-62790100D01*
X80770100Y-63415100D02*
X82095100Y-63415100D01*
X80770100Y-62765100D02*
X80770100Y-63415100D01*
D15*
X79120100Y-70865100D02*
X83770100Y-70865100D01*
X79245100Y-62765100D02*
X83770100Y-62765100D01*
X79120100Y-70865100D02*
X79120100Y-70840100D01*
X83770100Y-70865100D02*
X83770100Y-70840100D01*
D12*
X87926120Y-78724760D02*
X87476120Y-78724760D01*
X131708480Y-86065276D02*
X131708480Y-87269404D01*
X133528480Y-86065276D02*
X133528480Y-87269404D01*
X93218000Y-78804560D02*
X93218000Y-79254560D01*
X95300800Y-78807100D02*
X95300800Y-79257100D01*
X91081860Y-80021220D02*
X91081860Y-80471220D01*
X99876400Y-81897220D02*
X100326400Y-81897220D01*
X90668380Y-83196613D02*
X90668380Y-83539147D01*
X91688380Y-83196613D02*
X91688380Y-83539147D01*
X101334780Y-81897220D02*
X100884780Y-81897220D01*
X98194400Y-83222013D02*
X98194400Y-83564547D01*
X99214400Y-83222013D02*
X99214400Y-83564547D01*
X83875240Y-90298040D02*
X83875240Y-89323040D01*
X88875240Y-90298040D02*
X83875240Y-90298040D01*
X88875240Y-89323040D02*
X88875240Y-90298040D01*
X88875240Y-85323040D02*
X88875240Y-86323040D01*
X83875240Y-85323040D02*
X88875240Y-85323040D01*
X83875240Y-86323040D02*
X83875240Y-85323040D01*
X96317440Y-85342960D02*
X96317440Y-86317960D01*
X91317440Y-85342960D02*
X96317440Y-85342960D01*
X91317440Y-86317960D02*
X91317440Y-85342960D01*
X91317440Y-90317960D02*
X91317440Y-89317960D01*
X96317440Y-90317960D02*
X91317440Y-90317960D01*
X96317440Y-89317960D02*
X96317440Y-90317960D01*
X89082420Y-80637040D02*
X89432420Y-80287040D01*
X89307420Y-80862040D02*
X88857420Y-80412040D01*
X85197420Y-84472040D02*
X85897420Y-84472040D01*
X85197420Y-83772040D02*
X85197420Y-84472040D01*
X85197420Y-80252040D02*
X85897420Y-80252040D01*
X85197420Y-80952040D02*
X85197420Y-80252040D01*
X89417420Y-84472040D02*
X88717420Y-84472040D01*
X89417420Y-83772040D02*
X89417420Y-84472040D01*
X96616060Y-80631960D02*
X96966060Y-80281960D01*
X96841060Y-80856960D02*
X96391060Y-80406960D01*
X92731060Y-84466960D02*
X93431060Y-84466960D01*
X92731060Y-83766960D02*
X92731060Y-84466960D01*
X92731060Y-80246960D02*
X93431060Y-80246960D01*
X92731060Y-80946960D02*
X92731060Y-80246960D01*
X96951060Y-84466960D02*
X96251060Y-84466960D01*
X96951060Y-83766960D02*
X96951060Y-84466960D01*
X84054360Y-83261284D02*
X84054360Y-82057156D01*
X82234360Y-83261284D02*
X82234360Y-82057156D01*
X99164820Y-88483524D02*
X99164820Y-87279396D01*
X97344820Y-88483524D02*
X97344820Y-87279396D01*
X93727087Y-77165740D02*
X93384553Y-77165740D01*
X93727087Y-78185740D02*
X93384553Y-78185740D01*
X91071700Y-79246940D02*
X91071700Y-78796940D01*
X89675240Y-86821193D02*
X89675240Y-87163727D01*
X90695240Y-86821193D02*
X90695240Y-87163727D01*
X100201940Y-84709000D02*
X99751940Y-84709000D01*
X104475900Y-84561680D02*
X105000900Y-84561680D01*
X106785900Y-85261680D02*
X106785900Y-83861680D01*
X104465900Y-83861680D02*
X104465900Y-85286680D01*
X102642220Y-84739620D02*
X102642220Y-84439620D01*
X101792220Y-84739620D02*
X101792220Y-84439620D01*
X90885359Y-62277339D02*
X90567161Y-61959141D01*
X89211108Y-62430130D02*
X88892910Y-62111932D01*
X74348340Y-56396680D02*
X74348340Y-56846680D01*
X74358500Y-58019740D02*
X74358500Y-58469740D01*
X74339940Y-60999160D02*
X74339940Y-61449160D01*
X74335640Y-63150540D02*
X74335640Y-63600540D01*
X75644800Y-76652120D02*
X76094800Y-76652120D01*
X74328020Y-66076620D02*
X74328020Y-66526620D01*
X76092260Y-78656180D02*
X75642260Y-78656180D01*
X74371980Y-68179740D02*
X74371980Y-68629740D01*
X75614320Y-81633060D02*
X76064320Y-81633060D01*
X74361040Y-71197260D02*
X74361040Y-71647260D01*
X76069400Y-83642200D02*
X75619400Y-83642200D01*
X74366120Y-72800000D02*
X74366120Y-73250000D01*
X75634640Y-46068760D02*
X76084640Y-46068760D01*
X76082100Y-48086500D02*
X75632100Y-48086500D01*
X77080320Y-46075600D02*
X76630320Y-46075600D01*
X76630320Y-48077120D02*
X77080320Y-48077120D01*
X75667660Y-51138600D02*
X76117660Y-51138600D01*
X76115120Y-53141100D02*
X75665120Y-53141100D01*
X77110800Y-51144660D02*
X76660800Y-51144660D01*
X76655720Y-53142660D02*
X77105720Y-53142660D01*
X77095560Y-76651340D02*
X76645560Y-76651340D01*
X76637940Y-78663800D02*
X77087940Y-78663800D01*
X91865799Y-73742201D02*
X91547601Y-74060399D01*
X77062540Y-81633840D02*
X76612540Y-81633840D01*
X76622700Y-83644740D02*
X77072700Y-83644740D01*
X93866928Y-75763650D02*
X93548730Y-76081848D01*
D14*
X65734680Y-90278340D02*
X65734680Y-87603340D01*
D12*
X65734680Y-87603340D02*
X65734680Y-39363340D01*
X69634680Y-39363340D02*
X65734680Y-39363340D01*
X69634680Y-90273340D02*
X69634680Y-39363340D01*
X69634680Y-90283340D02*
X65734680Y-90283340D01*
X74355960Y-46386540D02*
X74355960Y-46836540D01*
X74355960Y-47323800D02*
X74355960Y-47773800D01*
X74383900Y-51438600D02*
X74383900Y-51888600D01*
X74383900Y-52373320D02*
X74383900Y-52823320D01*
X74345800Y-55406080D02*
X74345800Y-55856080D01*
X74355180Y-59023040D02*
X74355180Y-59473040D01*
X74345020Y-60013640D02*
X74345020Y-60463640D01*
X74335640Y-64138600D02*
X74335640Y-64588600D01*
X74327240Y-65121580D02*
X74327240Y-65571580D01*
X74352640Y-69180500D02*
X74352640Y-69630500D01*
X74348340Y-70183800D02*
X74348340Y-70633800D01*
X74355960Y-73795680D02*
X74355960Y-74245680D01*
X74368660Y-76937660D02*
X74368660Y-77387660D01*
X74367880Y-77880000D02*
X74367880Y-78330000D01*
X74333100Y-81944000D02*
X74333100Y-82394000D01*
X74344040Y-82883800D02*
X74344040Y-83333800D01*
X70014500Y-66188740D02*
X70014500Y-68588740D01*
X73114500Y-68588740D02*
X73114500Y-66188740D01*
X69996720Y-61121440D02*
X69996720Y-63521440D01*
X73096720Y-63521440D02*
X73096720Y-61121440D01*
X70011960Y-71261120D02*
X70011960Y-73661120D01*
X73111960Y-73661120D02*
X73111960Y-71261120D01*
X70014500Y-56005880D02*
X70014500Y-58405880D01*
X73114500Y-58405880D02*
X73114500Y-56005880D01*
X70024660Y-76369060D02*
X70024660Y-78769060D01*
X73124660Y-78769060D02*
X73124660Y-76369060D01*
X70011960Y-50943660D02*
X70011960Y-53343660D01*
X73111960Y-53343660D02*
X73111960Y-50943660D01*
X70017040Y-81398260D02*
X70017040Y-83798260D01*
X73117040Y-83798260D02*
X73117040Y-81398260D01*
X70019580Y-45850960D02*
X70019580Y-48250960D01*
X73119580Y-48250960D02*
X73119580Y-45850960D01*
X134739380Y-70204540D02*
X134739380Y-69754540D01*
X137678300Y-69536760D02*
X137378300Y-69536760D01*
X137678300Y-70386760D02*
X137378300Y-70386760D01*
X131905420Y-74117284D02*
X131905420Y-72913156D01*
X130085420Y-74117284D02*
X130085420Y-72913156D01*
X141603560Y-82538300D02*
X141603560Y-73138300D01*
X135803560Y-73138300D02*
X137803560Y-73138300D01*
X139703560Y-73138300D02*
X141603560Y-73138300D01*
X135803560Y-82538300D02*
X137803560Y-82538300D01*
X139703560Y-82538300D02*
X141603560Y-82538300D01*
X119953400Y-44611060D02*
X119953400Y-43636060D01*
X124953400Y-44611060D02*
X119953400Y-44611060D01*
X124953400Y-43636060D02*
X124953400Y-44611060D01*
X124953400Y-39636060D02*
X124953400Y-40636060D01*
X119953400Y-39636060D02*
X124953400Y-39636060D01*
X119953400Y-40636060D02*
X119953400Y-39636060D01*
X127281300Y-44651700D02*
X127281300Y-43676700D01*
X132281300Y-44651700D02*
X127281300Y-44651700D01*
X132281300Y-43676700D02*
X132281300Y-44651700D01*
X132281300Y-39676700D02*
X132281300Y-40676700D01*
X127281300Y-39676700D02*
X132281300Y-39676700D01*
X127281300Y-40676700D02*
X127281300Y-39676700D01*
X119938100Y-61400460D02*
X119938100Y-60425460D01*
X124938100Y-61400460D02*
X119938100Y-61400460D01*
X124938100Y-60425460D02*
X124938100Y-61400460D01*
X124938100Y-56425460D02*
X124938100Y-57425460D01*
X119938100Y-56425460D02*
X124938100Y-56425460D01*
X119938100Y-57425460D02*
X119938100Y-56425460D01*
X137231760Y-56478400D02*
X137231760Y-57453400D01*
X132231760Y-56478400D02*
X137231760Y-56478400D01*
X132231760Y-57453400D02*
X132231760Y-56478400D01*
X132231760Y-61453400D02*
X132231760Y-60453400D01*
X137231760Y-61453400D02*
X132231760Y-61453400D01*
X137231760Y-60453400D02*
X137231760Y-61453400D01*
X111197600Y-84439760D02*
X110747600Y-84439760D01*
X110085080Y-84437220D02*
X109635080Y-84437220D01*
X110300980Y-81889600D02*
X109850980Y-81889600D01*
X93031540Y-49498740D02*
X93031540Y-42498740D01*
X93031540Y-42498740D02*
X107031540Y-42498740D01*
X107031540Y-42498740D02*
X107031540Y-50498740D01*
X107031540Y-50498740D02*
X94031540Y-50498740D01*
X94031540Y-50498740D02*
X93031540Y-49498740D01*
D10*
X93131540Y-50498740D02*
G75*
G03X93131540Y-50498740I-100000J0D01*
G01*
D12*
X95265240Y-41098680D02*
X95265240Y-40648680D01*
X97548700Y-41098680D02*
X97548700Y-40648680D01*
X99788980Y-41101220D02*
X99788980Y-40651220D01*
D10*
X87879633Y-67469987D02*
X86889684Y-67469987D01*
D12*
X99511540Y-79681721D02*
X88042268Y-68212449D01*
X111687919Y-67505342D02*
X99511540Y-79681721D01*
X99511540Y-55328963D02*
X111687919Y-67505342D01*
X88042268Y-66798235D02*
X99511540Y-55328963D01*
X124489320Y-87228620D02*
X125664320Y-87228620D01*
X124489320Y-86478620D02*
X124489320Y-87228620D01*
X134721600Y-71797120D02*
X134721600Y-71347120D01*
X125752860Y-78578920D02*
X125752860Y-78128920D01*
X116140020Y-86342220D02*
X116590020Y-86342220D01*
X120303780Y-50394660D02*
X120303780Y-50844660D01*
X137566400Y-49546720D02*
X137566400Y-49096720D01*
X120289320Y-51786580D02*
X120289320Y-52236580D01*
X137523220Y-52002900D02*
X137523220Y-51552900D01*
X137533380Y-50895460D02*
X137533380Y-50445460D01*
X122372120Y-50414980D02*
X122372120Y-50864980D01*
X135498840Y-49554340D02*
X135498840Y-49104340D01*
X122392440Y-51789120D02*
X122392440Y-52239120D01*
X127350520Y-64230040D02*
X127350520Y-64680040D01*
X129915920Y-64230040D02*
X129915920Y-64680040D01*
X135478520Y-50895460D02*
X135478520Y-50445460D01*
X122364500Y-49518780D02*
X122364500Y-49068780D01*
X135478520Y-47742900D02*
X135478520Y-48192900D01*
X122448320Y-53559920D02*
X122448320Y-53109920D01*
X135440420Y-52650180D02*
X135440420Y-53100180D01*
X120281700Y-47595580D02*
X120281700Y-48045580D01*
X137670540Y-46966080D02*
X137670540Y-46516080D01*
X137662920Y-45764660D02*
X137662920Y-45314660D01*
X137520680Y-53996380D02*
X137520680Y-54446380D01*
X122308620Y-47572720D02*
X122308620Y-48022720D01*
X135470900Y-46966080D02*
X135470900Y-46516080D01*
X135465820Y-45762120D02*
X135465820Y-45312120D01*
X135511540Y-54448920D02*
X135511540Y-53998920D01*
X109300220Y-81889600D02*
X108850220Y-81889600D01*
X108304540Y-81894680D02*
X107854540Y-81894680D01*
X101885540Y-81894680D02*
X102335540Y-81894680D01*
X112320280Y-84432140D02*
X111870280Y-84432140D01*
X112292340Y-81892140D02*
X111842340Y-81892140D01*
X111299200Y-81889600D02*
X110849200Y-81889600D01*
X105322580Y-81892140D02*
X104872580Y-81892140D01*
X106313180Y-81892140D02*
X105863180Y-81892140D01*
X104326900Y-81892140D02*
X103876900Y-81892140D01*
X107308860Y-81892140D02*
X106858860Y-81892140D01*
D14*
X126030040Y-60065920D02*
X126030040Y-63515920D01*
X126030040Y-60065920D02*
X126030040Y-58115920D01*
X131150040Y-60065920D02*
X131150040Y-62015920D01*
X131150040Y-60065920D02*
X131150040Y-58115920D01*
D12*
X137385920Y-71986960D02*
X137685920Y-71986960D01*
X137385920Y-71136960D02*
X137685920Y-71136960D01*
X100026160Y-88089740D02*
X100026160Y-86759740D01*
X100026160Y-86759740D02*
X101356160Y-86759740D01*
X102626160Y-86759740D02*
X115386160Y-86759740D01*
X115386160Y-89419740D02*
X115386160Y-86759740D01*
X102626160Y-89419740D02*
X115386160Y-89419740D01*
X102626160Y-89419740D02*
X102626160Y-86759740D01*
X111561314Y-74263460D02*
X110924917Y-73627064D01*
X107760615Y-73114412D02*
X110076389Y-70798637D01*
X110235488Y-75589285D02*
X112551263Y-73273511D01*
D15*
X119925040Y-85082060D02*
X119925040Y-84757060D01*
X119475040Y-85082060D02*
X119925040Y-85082060D01*
X119475040Y-84757060D02*
X119475040Y-85082060D01*
X120600040Y-84722060D02*
X118775040Y-84722060D01*
X118800040Y-87942060D02*
X120600040Y-87942060D01*
D12*
X132259280Y-47209100D02*
X132634280Y-46834100D01*
X132459280Y-47434100D02*
X132034280Y-47009100D01*
X125249280Y-54194100D02*
X125724280Y-54194100D01*
X125249280Y-53719100D02*
X125249280Y-54194100D01*
X125249280Y-46974100D02*
X125724280Y-46974100D01*
X125249280Y-47449100D02*
X125249280Y-46974100D01*
X132469280Y-54194100D02*
X131994280Y-54194100D01*
X132469280Y-53719100D02*
X132469280Y-54194100D01*
X123499040Y-80978160D02*
X124149040Y-81628160D01*
X123074040Y-81403160D02*
X123949040Y-80528160D01*
X115814040Y-73243160D02*
X115814040Y-74218160D01*
X116789040Y-73243160D02*
X115814040Y-73243160D01*
X124034040Y-73243160D02*
X124034040Y-74218160D01*
X123059040Y-73243160D02*
X124034040Y-73243160D01*
X115814040Y-81463160D02*
X115814040Y-80488160D01*
X116789040Y-81463160D02*
X115814040Y-81463160D01*
X126748540Y-81662480D02*
X126748540Y-81212480D01*
X126740920Y-74497140D02*
X126740920Y-74047140D01*
X111519621Y-74991881D02*
X111837819Y-75310079D01*
X126733300Y-75129180D02*
X126733300Y-75579180D01*
X126733300Y-76208680D02*
X126733300Y-76658680D01*
X122021600Y-82518040D02*
X122021600Y-82968040D01*
X126735840Y-80221880D02*
X126735840Y-80671880D01*
X126735840Y-79266840D02*
X126735840Y-79716840D01*
X116226800Y-83315900D02*
X115776800Y-83315900D01*
X117280900Y-83317080D02*
X116830900Y-83317080D01*
X129129580Y-85488780D02*
X129579580Y-85488780D01*
X126588520Y-87524380D02*
X126588520Y-87974380D01*
X118734840Y-82518040D02*
X118734840Y-82968040D01*
X135288104Y-61904200D02*
X134083976Y-61904200D01*
X135288104Y-63724200D02*
X134083976Y-63724200D01*
X127347980Y-55878940D02*
X127347980Y-55428940D01*
X129867660Y-55423860D02*
X129867660Y-55873860D01*
X125943360Y-45649940D02*
X125943360Y-46099940D01*
X131660900Y-46077080D02*
X131660900Y-45627080D01*
X120317260Y-49073860D02*
X120317260Y-49523860D01*
X137599420Y-48192900D02*
X137599420Y-47742900D01*
X120286780Y-53107380D02*
X120286780Y-53557380D01*
X137459720Y-53100180D02*
X137459720Y-52650180D01*
X122396067Y-54265100D02*
X122053533Y-54265100D01*
X122396067Y-55285100D02*
X122053533Y-55285100D01*
X135131993Y-56003920D02*
X135474527Y-56003920D01*
X135131993Y-54983920D02*
X135474527Y-54983920D01*
X115460100Y-62252776D02*
X115460100Y-63456904D01*
X117280100Y-62252776D02*
X117280100Y-63456904D01*
X113015820Y-84429600D02*
X113465820Y-84429600D01*
M02*
