G04 #@! TF.GenerationSoftware,KiCad,Pcbnew,(5.1.5)-3*
G04 #@! TF.CreationDate,2020-11-02T01:39:05+01:00*
G04 #@! TF.ProjectId,LogAn,4c6f6741-6e2e-46b6-9963-61645f706362,rev?*
G04 #@! TF.SameCoordinates,Original*
G04 #@! TF.FileFunction,Other,ECO1*
%FSLAX46Y46*%
G04 Gerber Fmt 4.6, Leading zero omitted, Abs format (unit mm)*
G04 Created by KiCad (PCBNEW (5.1.5)-3) date 2020-11-02 01:39:05*
%MOMM*%
%LPD*%
G04 APERTURE LIST*
%ADD10C,0.150000*%
%ADD11C,0.050000*%
G04 APERTURE END LIST*
D10*
X143714334Y-68233502D02*
X144381000Y-68233502D01*
X143333381Y-68471597D02*
X144047667Y-68709692D01*
X144047667Y-68090645D01*
X143714334Y-67281121D02*
X144381000Y-67281121D01*
X143333381Y-67519216D02*
X144047667Y-67757311D01*
X144047667Y-67138264D01*
X144333381Y-66709692D02*
X144381000Y-66709692D01*
X144476239Y-66757311D01*
X144523858Y-66804930D01*
X143809572Y-66138264D02*
X143761953Y-66233502D01*
X143714334Y-66281121D01*
X143619096Y-66328740D01*
X143571477Y-66328740D01*
X143476239Y-66281121D01*
X143428620Y-66233502D01*
X143381000Y-66138264D01*
X143381000Y-65947788D01*
X143428620Y-65852550D01*
X143476239Y-65804930D01*
X143571477Y-65757311D01*
X143619096Y-65757311D01*
X143714334Y-65804930D01*
X143761953Y-65852550D01*
X143809572Y-65947788D01*
X143809572Y-66138264D01*
X143857191Y-66233502D01*
X143904810Y-66281121D01*
X144000048Y-66328740D01*
X144190524Y-66328740D01*
X144285762Y-66281121D01*
X144333381Y-66233502D01*
X144381000Y-66138264D01*
X144381000Y-65947788D01*
X144333381Y-65852550D01*
X144285762Y-65804930D01*
X144190524Y-65757311D01*
X144000048Y-65757311D01*
X143904810Y-65804930D01*
X143857191Y-65852550D01*
X143809572Y-65947788D01*
X143381000Y-65423978D02*
X143381000Y-64804930D01*
X143761953Y-65138264D01*
X143761953Y-64995407D01*
X143809572Y-64900169D01*
X143857191Y-64852550D01*
X143952429Y-64804930D01*
X144190524Y-64804930D01*
X144285762Y-64852550D01*
X144333381Y-64900169D01*
X144381000Y-64995407D01*
X144381000Y-65281121D01*
X144333381Y-65376359D01*
X144285762Y-65423978D01*
X144381000Y-64328740D02*
X144381000Y-64138264D01*
X144333381Y-64043026D01*
X144285762Y-63995407D01*
X144142905Y-63900169D01*
X143952429Y-63852550D01*
X143571477Y-63852550D01*
X143476239Y-63900169D01*
X143428620Y-63947788D01*
X143381000Y-64043026D01*
X143381000Y-64233502D01*
X143428620Y-64328740D01*
X143476239Y-64376359D01*
X143571477Y-64423978D01*
X143809572Y-64423978D01*
X143904810Y-64376359D01*
X143952429Y-64328740D01*
X144000048Y-64233502D01*
X144000048Y-64043026D01*
X143952429Y-63947788D01*
X143904810Y-63900169D01*
X143809572Y-63852550D01*
X144381000Y-62662073D02*
X143714334Y-62662073D01*
X144238143Y-62376359D01*
X143714334Y-62090645D01*
X144381000Y-62090645D01*
X144381000Y-61614454D02*
X143714334Y-61614454D01*
X144238143Y-61328740D01*
X143714334Y-61043026D01*
X144381000Y-61043026D01*
X142628620Y-87271860D02*
X142628620Y-42433240D01*
X137198100Y-87271860D02*
X143215041Y-87271860D01*
X137198100Y-42433240D02*
X143215041Y-42433240D01*
X142628620Y-42433240D02*
X143215041Y-43559744D01*
X142628620Y-42433240D02*
X142042199Y-43559744D01*
X142628620Y-87271860D02*
X143215041Y-86145356D01*
X142628620Y-87271860D02*
X142042199Y-86145356D01*
X102080862Y-93108102D02*
X101890386Y-93108102D01*
X101795148Y-93155722D01*
X101747529Y-93203341D01*
X101652291Y-93346198D01*
X101604672Y-93536674D01*
X101604672Y-93917626D01*
X101652291Y-94012864D01*
X101699910Y-94060483D01*
X101795148Y-94108102D01*
X101985624Y-94108102D01*
X102080862Y-94060483D01*
X102128481Y-94012864D01*
X102176100Y-93917626D01*
X102176100Y-93679531D01*
X102128481Y-93584293D01*
X102080862Y-93536674D01*
X101985624Y-93489055D01*
X101795148Y-93489055D01*
X101699910Y-93536674D01*
X101652291Y-93584293D01*
X101604672Y-93679531D01*
X102509434Y-93108102D02*
X103128481Y-93108102D01*
X102795148Y-93489055D01*
X102938005Y-93489055D01*
X103033243Y-93536674D01*
X103080862Y-93584293D01*
X103128481Y-93679531D01*
X103128481Y-93917626D01*
X103080862Y-94012864D01*
X103033243Y-94060483D01*
X102938005Y-94108102D01*
X102652291Y-94108102D01*
X102557053Y-94060483D01*
X102509434Y-94012864D01*
X103604672Y-94060483D02*
X103604672Y-94108102D01*
X103557053Y-94203341D01*
X103509434Y-94250960D01*
X104461815Y-93441436D02*
X104461815Y-94108102D01*
X104223719Y-93060483D02*
X103985624Y-93774769D01*
X104604672Y-93774769D01*
X104890386Y-93108102D02*
X105557053Y-93108102D01*
X105128481Y-94108102D01*
X105890386Y-93203341D02*
X105938005Y-93155722D01*
X106033243Y-93108102D01*
X106271338Y-93108102D01*
X106366576Y-93155722D01*
X106414195Y-93203341D01*
X106461815Y-93298579D01*
X106461815Y-93393817D01*
X106414195Y-93536674D01*
X105842767Y-94108102D01*
X106461815Y-94108102D01*
X107652291Y-94108102D02*
X107652291Y-93441436D01*
X107938005Y-93965245D01*
X108223719Y-93441436D01*
X108223719Y-94108102D01*
X108699910Y-94108102D02*
X108699910Y-93441436D01*
X108985624Y-93965245D01*
X109271338Y-93441436D01*
X109271338Y-94108102D01*
X73725837Y-92354452D02*
X137197897Y-92356992D01*
X73726040Y-87271860D02*
X73725813Y-92940873D01*
X137198100Y-87274400D02*
X137197873Y-92943413D01*
X137197897Y-92356992D02*
X136071370Y-92943368D01*
X137197897Y-92356992D02*
X136071417Y-91770526D01*
X73725837Y-92354452D02*
X74852317Y-92940918D01*
X73725837Y-92354452D02*
X74852364Y-91768076D01*
X99338442Y-35452280D02*
X100005108Y-35452280D01*
X99576537Y-36452280D01*
X100814632Y-35785614D02*
X100814632Y-36452280D01*
X100576537Y-35404661D02*
X100338442Y-36118947D01*
X100957489Y-36118947D01*
X101386061Y-36404661D02*
X101386061Y-36452280D01*
X101338442Y-36547519D01*
X101290823Y-36595138D01*
X101862251Y-36452280D02*
X102052727Y-36452280D01*
X102147965Y-36404661D01*
X102195584Y-36357042D01*
X102290823Y-36214185D01*
X102338442Y-36023709D01*
X102338442Y-35642757D01*
X102290823Y-35547519D01*
X102243204Y-35499900D01*
X102147965Y-35452280D01*
X101957489Y-35452280D01*
X101862251Y-35499900D01*
X101814632Y-35547519D01*
X101767013Y-35642757D01*
X101767013Y-35880852D01*
X101814632Y-35976090D01*
X101862251Y-36023709D01*
X101957489Y-36071328D01*
X102147965Y-36071328D01*
X102243204Y-36023709D01*
X102290823Y-35976090D01*
X102338442Y-35880852D01*
X102671775Y-35452280D02*
X103290823Y-35452280D01*
X102957489Y-35833233D01*
X103100346Y-35833233D01*
X103195584Y-35880852D01*
X103243204Y-35928471D01*
X103290823Y-36023709D01*
X103290823Y-36261804D01*
X103243204Y-36357042D01*
X103195584Y-36404661D01*
X103100346Y-36452280D01*
X102814632Y-36452280D01*
X102719394Y-36404661D01*
X102671775Y-36357042D01*
X104195584Y-35452280D02*
X103719394Y-35452280D01*
X103671775Y-35928471D01*
X103719394Y-35880852D01*
X103814632Y-35833233D01*
X104052727Y-35833233D01*
X104147965Y-35880852D01*
X104195584Y-35928471D01*
X104243204Y-36023709D01*
X104243204Y-36261804D01*
X104195584Y-36357042D01*
X104147965Y-36404661D01*
X104052727Y-36452280D01*
X103814632Y-36452280D01*
X103719394Y-36404661D01*
X103671775Y-36357042D01*
X105433680Y-36452280D02*
X105433680Y-35785614D01*
X105719394Y-36309423D01*
X106005108Y-35785614D01*
X106005108Y-36452280D01*
X106481299Y-36452280D02*
X106481299Y-35785614D01*
X106767013Y-36309423D01*
X107052727Y-35785614D01*
X107052727Y-36452280D01*
X140710920Y-37294820D02*
X65775840Y-37304980D01*
X140711130Y-38846735D02*
X140710840Y-36708399D01*
X65776050Y-38856895D02*
X65775760Y-36718559D01*
X65775840Y-37304980D02*
X66902264Y-36718407D01*
X65775840Y-37304980D02*
X66902423Y-37891248D01*
X140710920Y-37294820D02*
X139584337Y-36708552D01*
X140710920Y-37294820D02*
X139584496Y-37881393D01*
X61997820Y-68187026D02*
X61997820Y-68663216D01*
X62474011Y-68710835D01*
X62426392Y-68663216D01*
X62378773Y-68567978D01*
X62378773Y-68329883D01*
X62426392Y-68234645D01*
X62474011Y-68187026D01*
X62569249Y-68139407D01*
X62807344Y-68139407D01*
X62902582Y-68187026D01*
X62950201Y-68234645D01*
X62997820Y-68329883D01*
X62997820Y-68567978D01*
X62950201Y-68663216D01*
X62902582Y-68710835D01*
X62997820Y-67187026D02*
X62997820Y-67758454D01*
X62997820Y-67472740D02*
X61997820Y-67472740D01*
X62140678Y-67567978D01*
X62235916Y-67663216D01*
X62283535Y-67758454D01*
X62950201Y-66710835D02*
X62997820Y-66710835D01*
X63093059Y-66758454D01*
X63140678Y-66806073D01*
X62997820Y-66234645D02*
X62997820Y-66044169D01*
X62950201Y-65948931D01*
X62902582Y-65901312D01*
X62759725Y-65806073D01*
X62569249Y-65758454D01*
X62188297Y-65758454D01*
X62093059Y-65806073D01*
X62045440Y-65853693D01*
X61997820Y-65948931D01*
X61997820Y-66139407D01*
X62045440Y-66234645D01*
X62093059Y-66282264D01*
X62188297Y-66329883D01*
X62426392Y-66329883D01*
X62521630Y-66282264D01*
X62569249Y-66234645D01*
X62616868Y-66139407D01*
X62616868Y-65948931D01*
X62569249Y-65853693D01*
X62521630Y-65806073D01*
X62426392Y-65758454D01*
X62997820Y-65282264D02*
X62997820Y-65091788D01*
X62950201Y-64996550D01*
X62902582Y-64948931D01*
X62759725Y-64853693D01*
X62569249Y-64806073D01*
X62188297Y-64806073D01*
X62093059Y-64853693D01*
X62045440Y-64901312D01*
X61997820Y-64996550D01*
X61997820Y-65187026D01*
X62045440Y-65282264D01*
X62093059Y-65329883D01*
X62188297Y-65377502D01*
X62426392Y-65377502D01*
X62521630Y-65329883D01*
X62569249Y-65282264D01*
X62616868Y-65187026D01*
X62616868Y-64996550D01*
X62569249Y-64901312D01*
X62521630Y-64853693D01*
X62426392Y-64806073D01*
X62331154Y-63948931D02*
X62997820Y-63948931D01*
X61950201Y-64187026D02*
X62664487Y-64425121D01*
X62664487Y-63806073D01*
X62997820Y-62663216D02*
X62331154Y-62663216D01*
X62854963Y-62377502D01*
X62331154Y-62091788D01*
X62997820Y-62091788D01*
X62997820Y-61615597D02*
X62331154Y-61615597D01*
X62854963Y-61329883D01*
X62331154Y-61044169D01*
X62997820Y-61044169D01*
X63847980Y-38856920D02*
X63842900Y-90850720D01*
X65773407Y-38857108D02*
X63261559Y-38856863D01*
X65768327Y-90850908D02*
X63256479Y-90850663D01*
X63842900Y-90850720D02*
X63256589Y-89724159D01*
X63842900Y-90850720D02*
X64429431Y-89724274D01*
X63847980Y-38856920D02*
X63261449Y-39983366D01*
X63847980Y-38856920D02*
X64434291Y-39983481D01*
D11*
X140710920Y-90850720D02*
X65778380Y-90850720D01*
X140716000Y-38854380D02*
X140710920Y-90850720D01*
X65773300Y-38858340D02*
X140716000Y-38854380D01*
X65778380Y-90850720D02*
X65773300Y-38858340D01*
M02*
