M48
INCH,TZ
T1C0.0079
T2C0.0098
T3C0.0118
T4C0.0236
T5C0.0394
T6C0.0866
T7C0.0256
T8C0.0315
T9C0.1063
%
G90
G05
T1
X30830Y-21018
X30834Y-20767
X31034Y-21229
X31037Y-20554
X34480Y-24298
X34684Y-24485
X34684Y-26577
X34829Y-23939
X34957Y-26855
X35017Y-24151
X35258Y-26577
X35314Y-27133
X35555Y-27419
X35562Y-26301
X35565Y-26856
X35835Y-27135
X35838Y-27687
X35841Y-26577
X36113Y-25183
X36121Y-26855
X36250Y-29737
X36394Y-25462
X36397Y-26021
X36401Y-26578
X36406Y-24657
X36670Y-27968
X36672Y-25739
X36672Y-26853
X36674Y-26299
X36789Y-17359
X36949Y-25465
X36953Y-27692
X37019Y-16811
X37044Y-19819
X37178Y-19409
X37227Y-25743
X37337Y-16809
X37341Y-19822
X37493Y-19094
X37499Y-28249
X37505Y-24906
X37507Y-26019
X37510Y-26578
X37510Y-29363
X37533Y-23571
X37654Y-16813
X37662Y-19822
X37783Y-26302
X37783Y-28525
X37786Y-26854
X37789Y-25740
X37790Y-27970
X37808Y-19409
X37944Y-19822
X37967Y-16786
X38062Y-26576
X38064Y-28804
X38065Y-27691
X38066Y-25463
X38066Y-27133
X38068Y-26020
X38069Y-29362
X38123Y-17204
X38123Y-19409
X38190Y-19822
X38262Y-30869
X38276Y-16783
X38288Y-24683
X38288Y-25233
X38341Y-25741
X38343Y-26299
X38343Y-30198
X38345Y-28526
X38419Y-30681
X38438Y-17204
X38544Y-19822
X38564Y-24405
X38577Y-17987
X38603Y-16783
X38619Y-24917
X38620Y-26019
X38622Y-25463
X38624Y-27692
X38624Y-29359
X38666Y-23274
X38803Y-17867
X38846Y-24685
X38879Y-34465
X38880Y-31907
X38896Y-27970
X38900Y-30199
X38902Y-25199
X38903Y-27409
X38905Y-26294
X38908Y-25742
X38910Y-16783
X38925Y-19822
X38926Y-24082
X38926Y-24082
X39068Y-17204
X39137Y-34463
X39167Y-22083
X39176Y-25467
X39178Y-24307
X39178Y-26019
X39178Y-28247
X39178Y-28805
X39180Y-27692
X39180Y-30471
X39184Y-27132
X39229Y-16779
X39236Y-23296
X39381Y-17518
X39381Y-19408
X39382Y-19736
X39457Y-27415
X39458Y-24628
X39460Y-25741
X39460Y-27964
X39522Y-31555
X39697Y-17518
X39697Y-17200
X39697Y-19094
X39697Y-19409
X39697Y-19736
X39732Y-29355
X39733Y-23803
X39734Y-29917
X39737Y-24358
X39737Y-25476
X39738Y-26021
X39738Y-26575
X39738Y-27693
X39738Y-28251
X39770Y-31097
X39770Y-31361
X39774Y-30846
X39819Y-33849
X39943Y-16799
X39961Y-24590
X40008Y-23523
X40011Y-17519
X40011Y-28531
X40012Y-17204
X40012Y-19094
X40012Y-19409
X40012Y-25748
X40013Y-25207
X40014Y-26852
X40016Y-27967
X40016Y-24082
X40021Y-31361
X40025Y-26301
X40027Y-31101
X40029Y-30847
X40241Y-16816
X40241Y-24404
X40274Y-31361
X40275Y-24941
X40277Y-31100
X40282Y-30847
X40288Y-23248
X40291Y-26577
X40292Y-23795
X40292Y-25472
X40292Y-28252
X40294Y-28799
X40296Y-26033
X40296Y-27132
X40327Y-19094
X40361Y-20083
X40484Y-19872
X40504Y-16816
X40519Y-24673
X40547Y-31110
X40547Y-31371
X40551Y-30850
X40568Y-23523
X40568Y-24082
X40570Y-27411
X40571Y-25192
X40572Y-26298
X40584Y-26853
X40586Y-15994
X40642Y-17205
X40642Y-19094
X40642Y-19409
X40713Y-19752
X40764Y-33297
X40779Y-29566
X40801Y-16818
X40802Y-31110
X40804Y-31375
X40814Y-30847
X40843Y-26577
X40847Y-23803
X40847Y-24358
X40851Y-24917
X40853Y-27133
X40957Y-17204
X40957Y-17519
X40957Y-19094
X40957Y-19409
X41058Y-31115
X41060Y-30852
X41070Y-25678
X41113Y-16810
X41124Y-27411
X41125Y-26293
X41126Y-26851
X41131Y-24082
X41131Y-24637
X41267Y-31623
X41272Y-17204
X41272Y-17519
X41272Y-19094
X41272Y-19409
X41305Y-19752
X41402Y-27133
X41402Y-24354
X41404Y-28245
X41410Y-24917
X41427Y-16810
X41518Y-31509
X41587Y-17204
X41587Y-17519
X41587Y-19094
X41587Y-19409
X41595Y-33400
X41611Y-19749
X41682Y-24633
X41685Y-26296
X41689Y-27414
X41691Y-26857
X41742Y-16810
X41775Y-31510
X41902Y-17519
X41906Y-17204
X41910Y-19411
X41953Y-19094
X41961Y-26021
X41964Y-27135
X42004Y-19780
X42035Y-31509
X42241Y-26290
X42242Y-27412
X42304Y-28039
X42519Y-26023
X42528Y-27691
X42566Y-31715
X42644Y-25118
X42798Y-26853
X42851Y-17179
X42936Y-24802
X42956Y-31713
X43026Y-25061
X43239Y-24475
X43252Y-32750
X43360Y-24758
X43470Y-31715
X43483Y-25223
X43567Y-29970
X43636Y-26573
X43683Y-32751
X44007Y-26573
X44127Y-32754
X44133Y-22207
X44404Y-29162
X44520Y-24524
X44563Y-25222
X44583Y-32657
X44826Y-22840
X44876Y-25094
X45230Y-25097
X45593Y-24896
X45844Y-24598
X45853Y-24899
X46080Y-24598
X46123Y-28585
X46524Y-28581
X46669Y-25888
X46671Y-26132
X46917Y-25896
X46925Y-26130
X49845Y-32520
X52386Y-17730
X52389Y-17465
X52397Y-20801
X52460Y-20014
X52462Y-20408
X52794Y-20834
X52816Y-21347
X52835Y-19387
X50023Y-19206
X50023Y-19679
X50023Y-20151
X50023Y-20624
X50496Y-19206
X50496Y-19679
X50496Y-20151
X50496Y-20624
X50968Y-19206
X50968Y-19679
X50968Y-20151
X50968Y-20624
X51441Y-19206
X51441Y-19679
X51441Y-20151
X51441Y-20624
T2
X26255Y-16030
X26255Y-17017
X26275Y-34023
X26280Y-35025
X26630Y-16032
X26630Y-17019
X26637Y-35027
X26650Y-34025
X26992Y-16038
X26992Y-17025
X27002Y-35032
X27012Y-34031
X27509Y-28521
X27513Y-26511
X27515Y-22524
X27516Y-24516
X27692Y-17563
X27697Y-19533
X27697Y-31522
X27697Y-33477
X27705Y-29628
X27708Y-21437
X28060Y-17561
X28065Y-19531
X28065Y-31520
X28065Y-33475
X28073Y-29626
X28076Y-21435
X28244Y-22522
X28249Y-24516
X28260Y-26511
X28267Y-28513
X29057Y-26514
X29058Y-24525
X29064Y-22604
X29068Y-28431
X29865Y-31542
X29865Y-33494
X29866Y-19534
X29870Y-29628
X29872Y-17586
X29894Y-21472
X30201Y-34383
X30209Y-16694
X30253Y-31545
X30254Y-17583
X30254Y-33510
X30259Y-29626
X30260Y-19535
X30266Y-21470
X30481Y-29241
X30752Y-24107
X30825Y-28478
X31058Y-16186
X31058Y-22047
X31101Y-29768
X31124Y-29367
X31356Y-24909
X31360Y-25201
X31375Y-27719
X31425Y-35434
X31734Y-24785
X31752Y-35434
X32059Y-32936
X32062Y-33230
X32086Y-35434
X32283Y-16697
X32299Y-34389
X32510Y-31472
X32701Y-24908
X32740Y-27728
X32803Y-31471
X32845Y-17860
X32886Y-34054
X32890Y-33712
X32890Y-34404
X32894Y-34730
X32904Y-35069
X33270Y-24636
X33341Y-28010
X33358Y-24193
X33581Y-33271
X33620Y-31793
X33711Y-28779
X34145Y-30789
X35136Y-33375
X35139Y-33067
X35288Y-31118
X35439Y-33377
X35440Y-33066
X35498Y-32270
X35626Y-30741
X35727Y-35059
X36045Y-30742
X36181Y-32836
X36189Y-31921
X38074Y-34120
X38074Y-34411
X38076Y-34732
X38078Y-33836
X38082Y-33067
X38084Y-33393
X38086Y-31779
X38088Y-35048
X38407Y-33067
X38409Y-33390
X38414Y-31789
X38471Y-32551
X39827Y-30471
X42984Y-16082
X43456Y-24286
X44192Y-31631
X44535Y-31370
X44535Y-32062
X44939Y-31378
X45276Y-30553
X45278Y-30943
X45279Y-31375
X45321Y-30164
X45877Y-33305
X46164Y-33620
X46164Y-33997
X46168Y-34358
X46310Y-29491
X46317Y-31304
X46472Y-32904
X46473Y-19594
X46665Y-23701
X46669Y-23031
X46671Y-23374
X46672Y-22708
X46771Y-16536
X46771Y-16865
X46775Y-17202
X46782Y-16208
X46784Y-32901
X46955Y-22548
X46955Y-22864
X46960Y-23203
X46964Y-23866
X46968Y-23537
X47088Y-15719
X47088Y-16040
X47092Y-16373
X47096Y-16699
X47096Y-17032
X47098Y-17373
X47161Y-21437
X47165Y-21697
X47468Y-18470
X47811Y-32900
X48090Y-33614
X48095Y-33992
X48095Y-34363
X48168Y-29491
X48178Y-31319
X48258Y-32904
X48348Y-26504
X48348Y-26820
X48643Y-18155
X48644Y-17855
X48657Y-34370
X48776Y-20475
X48778Y-19939
X48783Y-18806
X48940Y-28951
X48992Y-21433
X48994Y-21777
X49108Y-29654
X49111Y-28406
X49131Y-29142
X49221Y-25063
X49228Y-24607
X49304Y-21777
X49306Y-21433
X49395Y-15820
X49399Y-16110
X49454Y-28406
X49773Y-28412
X49874Y-24007
X49898Y-16235
X49900Y-15942
X49907Y-16551
X49907Y-16877
X49907Y-17211
X49913Y-26351
X50094Y-30829
X50104Y-25955
X50121Y-26810
X50266Y-17862
X50267Y-18201
X50336Y-26363
X50384Y-24001
X50438Y-31285
X50438Y-31600
X50457Y-29239
X50460Y-21606
X50480Y-29657
X50497Y-27824
X50562Y-25955
X50562Y-26804
X50766Y-26369
X50804Y-21600
X50807Y-27834
X50808Y-28163
X50867Y-24004
X50964Y-25955
X50975Y-26799
X51116Y-27836
X51173Y-26369
X51191Y-17891
X51191Y-18208
X51353Y-34609
X51357Y-32839
X51357Y-33735
X51375Y-24007
X51383Y-25972
X51399Y-26799
X51410Y-31123
X51410Y-31837
X51411Y-31409
X51416Y-30226
X51416Y-30683
X51422Y-27836
X51547Y-29003
X51581Y-26374
X51635Y-35418
X51731Y-27836
X51802Y-24610
X51802Y-25076
X51834Y-29003
X51883Y-35208
X52063Y-21437
X52069Y-21783
X52196Y-35210
X52323Y-28179
X52331Y-27557
X52360Y-21437
X52362Y-21781
X52508Y-35210
X52769Y-16700
X52795Y-17809
X52796Y-18432
X52821Y-35214
X52836Y-19672
X53143Y-29910
X53152Y-31006
X53276Y-31320
X53558Y-31320
X53603Y-25951
X54016Y-33120
X54264Y-22043
X54272Y-21774
X54803Y-18882
X54812Y-18081
X54812Y-19599
X54812Y-20196
X54812Y-21093
X54835Y-27539
X54835Y-28156
T3
X36985Y-32070
X36985Y-32424
X36985Y-32778
X37339Y-32070
X37339Y-32424
X37339Y-32778
X37693Y-32070
X37693Y-32424
X37693Y-32778
X34019Y-32072
X34019Y-32426
X34019Y-32780
X34373Y-32072
X34373Y-32426
X34373Y-32780
X34727Y-32072
X34727Y-32426
X34727Y-32780
T5
X39904Y-34681
X40904Y-34681
X41904Y-34681
X42904Y-34681
X43904Y-34681
X44904Y-34681
T6
X32280Y-22033
X32280Y-29021
T7
X53190Y-29507
X53190Y-31783
T8
X32831Y-16730
T9
X54015Y-34361
X29013Y-16697
X29013Y-16697
X29027Y-34363
X29027Y-34363
X54015Y-16706
X54015Y-16706
X54015Y-34361
T4
G00X52765Y-28944
M15
G01X53198Y-28944
M16
G05
G00X52765Y-32346
M15
G01X53198Y-32346
M16
G05
G00X54509Y-28944
M15
G01X54745Y-28944
M16
G05
G00X54509Y-32346
M15
G01X54745Y-32346
M16
G05
T0
M30
