G04 #@! TF.GenerationSoftware,KiCad,Pcbnew,(5.1.5)-3*
G04 #@! TF.CreationDate,2020-11-02T01:39:05+01:00*
G04 #@! TF.ProjectId,LogAn,4c6f6741-6e2e-46b6-9963-61645f706362,rev?*
G04 #@! TF.SameCoordinates,Original*
G04 #@! TF.FileFunction,Other,User*
%FSLAX46Y46*%
G04 Gerber Fmt 4.6, Leading zero omitted, Abs format (unit mm)*
G04 Created by KiCad (PCBNEW (5.1.5)-3) date 2020-11-02 01:39:05*
%MOMM*%
%LPD*%
G04 APERTURE LIST*
%ADD10C,0.050000*%
G04 APERTURE END LIST*
D10*
X140710920Y-90850720D02*
X65778380Y-90850720D01*
X140716000Y-38854380D02*
X140710920Y-90850720D01*
X65773300Y-38858340D02*
X140716000Y-38854380D01*
X65778380Y-90850720D02*
X65773300Y-38858340D01*
X102636220Y-82869680D02*
X102636220Y-80919680D01*
X103576220Y-82869680D02*
X102636220Y-82869680D01*
X103576220Y-80919680D02*
X103576220Y-82869680D01*
X102636220Y-80919680D02*
X103576220Y-80919680D01*
X114576500Y-81120080D02*
X112626500Y-81120080D01*
X114576500Y-80180080D02*
X114576500Y-81120080D01*
X112626500Y-80180080D02*
X114576500Y-80180080D01*
X112626500Y-81120080D02*
X112626500Y-80180080D01*
X80210560Y-45534220D02*
X80210560Y-43584220D01*
X81150560Y-45534220D02*
X80210560Y-45534220D01*
X81150560Y-43584220D02*
X81150560Y-45534220D01*
X80210560Y-43584220D02*
X81150560Y-43584220D01*
X81809320Y-44825620D02*
X85109320Y-44825620D01*
X81809320Y-40025620D02*
X81809320Y-44825620D01*
X85109320Y-40025620D02*
X81809320Y-40025620D01*
X85109320Y-44825620D02*
X85109320Y-40025620D01*
X86062460Y-79568140D02*
X84112460Y-79568140D01*
X86062460Y-78628140D02*
X86062460Y-79568140D01*
X84112460Y-78628140D02*
X86062460Y-78628140D01*
X84112460Y-79568140D02*
X84112460Y-78628140D01*
X75193020Y-42410380D02*
G75*
G03X75193020Y-42410380I-1500000J0D01*
G01*
X123215240Y-46900960D02*
X118315240Y-46900960D01*
X123215240Y-44660960D02*
X123215240Y-46900960D01*
X118315240Y-44660960D02*
X123215240Y-44660960D01*
X118315240Y-46900960D02*
X118315240Y-44660960D01*
X124457300Y-64178040D02*
X119557300Y-64178040D01*
X124457300Y-61938040D02*
X124457300Y-64178040D01*
X119557300Y-61938040D02*
X124457300Y-61938040D01*
X119557300Y-64178040D02*
X119557300Y-61938040D01*
X125480940Y-66762460D02*
X125480940Y-71662460D01*
X123240940Y-66762460D02*
X125480940Y-66762460D01*
X123240940Y-71662460D02*
X123240940Y-66762460D01*
X125480940Y-71662460D02*
X123240940Y-71662460D01*
X133938520Y-67017900D02*
G75*
G03X133938520Y-67017900I-1000000J0D01*
G01*
X111220760Y-40853360D02*
G75*
G03X111220760Y-40853360I-1000000J0D01*
G01*
X129844040Y-45473620D02*
G75*
G03X129844040Y-45473620I-1000000J0D01*
G01*
X117349780Y-59418220D02*
G75*
G03X117349780Y-59418220I-1000000J0D01*
G01*
X118289580Y-52108100D02*
G75*
G03X118289580Y-52108100I-1000000J0D01*
G01*
X128134620Y-70693280D02*
G75*
G03X128134620Y-70693280I-1000000J0D01*
G01*
X82142840Y-85623400D02*
G75*
G03X82142840Y-85623400I-1000000J0D01*
G01*
X78477620Y-40721280D02*
G75*
G03X78477620Y-40721280I-1000000J0D01*
G01*
X130562860Y-81760060D02*
G75*
G03X130562860Y-81760060I-1000000J0D01*
G01*
X130291080Y-74919840D02*
G75*
G03X130291080Y-74919840I-1000000J0D01*
G01*
X138698100Y-87276940D02*
G75*
G03X138698100Y-87276940I-1500000J0D01*
G01*
X75228580Y-87282020D02*
G75*
G03X75228580Y-87282020I-1500000J0D01*
G01*
X138698100Y-42433240D02*
G75*
G03X138698100Y-42433240I-1500000J0D01*
G01*
X83491200Y-73713820D02*
G75*
G03X83491200Y-73713820I-1500000J0D01*
G01*
X83491200Y-55963820D02*
G75*
G03X83491200Y-55963820I-1500000J0D01*
G01*
X78123780Y-41670220D02*
X81423780Y-41670220D01*
X78123780Y-43130220D02*
X78123780Y-41670220D01*
X81423780Y-43130220D02*
X78123780Y-43130220D01*
X81423780Y-41670220D02*
X81423780Y-43130220D01*
X81568560Y-88065360D02*
X78268560Y-88065360D01*
X81568560Y-86605360D02*
X81568560Y-88065360D01*
X78268560Y-86605360D02*
X81568560Y-86605360D01*
X78268560Y-88065360D02*
X78268560Y-86605360D01*
X86095940Y-60948860D02*
X86095940Y-63048860D01*
X85155940Y-60948860D02*
X86095940Y-60948860D01*
X85150940Y-63048860D02*
X85150940Y-60948860D01*
X86090940Y-63048860D02*
X85150940Y-63048860D01*
X85148320Y-72685620D02*
X85148320Y-70585620D01*
X86088320Y-72685620D02*
X85148320Y-72685620D01*
X86093320Y-70585620D02*
X86093320Y-72685620D01*
X85153320Y-70585620D02*
X86093320Y-70585620D01*
X79917000Y-62484100D02*
X77817000Y-62484100D01*
X79917000Y-61544100D02*
X79917000Y-62484100D01*
X77817000Y-61539100D02*
X79917000Y-61539100D01*
X77817000Y-62479100D02*
X77817000Y-61539100D01*
X79896680Y-72054820D02*
X77796680Y-72054820D01*
X79896680Y-71114820D02*
X79896680Y-72054820D01*
X77796680Y-71109820D02*
X79896680Y-71109820D01*
X77796680Y-72049820D02*
X77796680Y-71109820D01*
X82064500Y-62481560D02*
X80114500Y-62481560D01*
X82064500Y-61541560D02*
X82064500Y-62481560D01*
X80114500Y-61541560D02*
X82064500Y-61541560D01*
X80114500Y-62481560D02*
X80114500Y-61541560D01*
X77822960Y-74706900D02*
X77822960Y-72756900D01*
X78762960Y-74706900D02*
X77822960Y-74706900D01*
X78762960Y-72756900D02*
X78762960Y-74706900D01*
X77822960Y-72756900D02*
X78762960Y-72756900D01*
X77795100Y-71040100D02*
X85095100Y-71040100D01*
X77795100Y-62640100D02*
X85095100Y-62640100D01*
X85095100Y-62640100D02*
X85095100Y-71040100D01*
X77795100Y-62640100D02*
X77795100Y-71040100D01*
X88171120Y-77749760D02*
X88171120Y-79699760D01*
X87231120Y-77749760D02*
X88171120Y-77749760D01*
X87231120Y-79699760D02*
X87231120Y-77749760D01*
X88171120Y-79699760D02*
X87231120Y-79699760D01*
X131498480Y-88947340D02*
X131498480Y-84387340D01*
X133738480Y-88947340D02*
X131498480Y-88947340D01*
X133738480Y-84387340D02*
X133738480Y-88947340D01*
X131498480Y-84387340D02*
X133738480Y-84387340D01*
X92243000Y-78559560D02*
X94193000Y-78559560D01*
X92243000Y-79499560D02*
X92243000Y-78559560D01*
X94193000Y-79499560D02*
X92243000Y-79499560D01*
X94193000Y-78559560D02*
X94193000Y-79499560D01*
X94325800Y-78562100D02*
X96275800Y-78562100D01*
X94325800Y-79502100D02*
X94325800Y-78562100D01*
X96275800Y-79502100D02*
X94325800Y-79502100D01*
X96275800Y-78562100D02*
X96275800Y-79502100D01*
X90106860Y-79776220D02*
X92056860Y-79776220D01*
X90106860Y-80716220D02*
X90106860Y-79776220D01*
X92056860Y-80716220D02*
X90106860Y-80716220D01*
X92056860Y-79776220D02*
X92056860Y-80716220D01*
X99631400Y-82872220D02*
X99631400Y-80922220D01*
X100571400Y-82872220D02*
X99631400Y-82872220D01*
X100571400Y-80922220D02*
X100571400Y-82872220D01*
X99631400Y-80922220D02*
X100571400Y-80922220D01*
X90448380Y-85017880D02*
X90448380Y-81717880D01*
X91908380Y-85017880D02*
X90448380Y-85017880D01*
X91908380Y-81717880D02*
X91908380Y-85017880D01*
X90448380Y-81717880D02*
X91908380Y-81717880D01*
X101579780Y-80922220D02*
X101579780Y-82872220D01*
X100639780Y-80922220D02*
X101579780Y-80922220D01*
X100639780Y-82872220D02*
X100639780Y-80922220D01*
X101579780Y-82872220D02*
X100639780Y-82872220D01*
X97974400Y-85043280D02*
X97974400Y-81743280D01*
X99434400Y-85043280D02*
X97974400Y-85043280D01*
X99434400Y-81743280D02*
X99434400Y-85043280D01*
X97974400Y-81743280D02*
X99434400Y-81743280D01*
X88875240Y-90323040D02*
X88875240Y-85323040D01*
X83875240Y-90323040D02*
X83875240Y-85323040D01*
X83875240Y-85323040D02*
X88875240Y-85323040D01*
X83875240Y-90323040D02*
X88875240Y-90323040D01*
X91317440Y-85317960D02*
X91317440Y-90317960D01*
X96317440Y-85317960D02*
X96317440Y-90317960D01*
X96317440Y-90317960D02*
X91317440Y-90317960D01*
X96317440Y-85317960D02*
X91317440Y-85317960D01*
X89927420Y-84982040D02*
X89927420Y-79742040D01*
X84687420Y-84982040D02*
X89927420Y-84982040D01*
X84687420Y-79742040D02*
X84687420Y-84982040D01*
X89927420Y-79742040D02*
X84687420Y-79742040D01*
X97461060Y-84976960D02*
X97461060Y-79736960D01*
X92221060Y-84976960D02*
X97461060Y-84976960D01*
X92221060Y-79736960D02*
X92221060Y-84976960D01*
X97461060Y-79736960D02*
X92221060Y-79736960D01*
X84264360Y-80209220D02*
X84264360Y-85109220D01*
X82024360Y-80209220D02*
X84264360Y-80209220D01*
X82024360Y-85109220D02*
X82024360Y-80209220D01*
X84264360Y-85109220D02*
X82024360Y-85109220D01*
X99374820Y-85431460D02*
X99374820Y-90331460D01*
X97134820Y-85431460D02*
X99374820Y-85431460D01*
X97134820Y-90331460D02*
X97134820Y-85431460D01*
X99374820Y-90331460D02*
X97134820Y-90331460D01*
X91905820Y-76945740D02*
X95205820Y-76945740D01*
X91905820Y-78405740D02*
X91905820Y-76945740D01*
X95205820Y-78405740D02*
X91905820Y-78405740D01*
X95205820Y-76945740D02*
X95205820Y-78405740D01*
X90021700Y-78551940D02*
X92121700Y-78551940D01*
X90021700Y-79491940D02*
X90021700Y-78551940D01*
X92121700Y-79496940D02*
X90021700Y-79496940D01*
X92121700Y-78556940D02*
X92121700Y-79496940D01*
X89455240Y-88642460D02*
X89455240Y-85342460D01*
X90915240Y-88642460D02*
X89455240Y-88642460D01*
X90915240Y-85342460D02*
X90915240Y-88642460D01*
X89455240Y-85342460D02*
X90915240Y-85342460D01*
X99506940Y-85759000D02*
X99506940Y-83659000D01*
X100446940Y-85759000D02*
X99506940Y-85759000D01*
X100451940Y-83659000D02*
X100451940Y-85759000D01*
X99511940Y-83659000D02*
X100451940Y-83659000D01*
X107025900Y-86161680D02*
X107025900Y-82961680D01*
X104225900Y-86161680D02*
X104225900Y-82961680D01*
X104225900Y-86161680D02*
X107025900Y-86161680D01*
X107025900Y-82961680D02*
X104225900Y-82961680D01*
X102947220Y-83109620D02*
X102947220Y-86069620D01*
X101487220Y-83109620D02*
X102947220Y-83109620D01*
X101487220Y-86069620D02*
X101487220Y-83109620D01*
X102947220Y-86069620D02*
X101487220Y-86069620D01*
X91748029Y-61761151D02*
X90369171Y-63140009D01*
X91083349Y-61096471D02*
X91748029Y-61761151D01*
X89704491Y-62475329D02*
X91083349Y-61096471D01*
X90369171Y-63140009D02*
X89704491Y-62475329D01*
X90073778Y-61913942D02*
X88694920Y-63292800D01*
X89409098Y-61249262D02*
X90073778Y-61913942D01*
X88030240Y-62628120D02*
X89409098Y-61249262D01*
X88694920Y-63292800D02*
X88030240Y-62628120D01*
X73373340Y-56151680D02*
X75323340Y-56151680D01*
X73373340Y-57091680D02*
X73373340Y-56151680D01*
X75323340Y-57091680D02*
X73373340Y-57091680D01*
X75323340Y-56151680D02*
X75323340Y-57091680D01*
X73383500Y-57774740D02*
X75333500Y-57774740D01*
X73383500Y-58714740D02*
X73383500Y-57774740D01*
X75333500Y-58714740D02*
X73383500Y-58714740D01*
X75333500Y-57774740D02*
X75333500Y-58714740D01*
X73364940Y-60754160D02*
X75314940Y-60754160D01*
X73364940Y-61694160D02*
X73364940Y-60754160D01*
X75314940Y-61694160D02*
X73364940Y-61694160D01*
X75314940Y-60754160D02*
X75314940Y-61694160D01*
X73360640Y-62905540D02*
X75310640Y-62905540D01*
X73360640Y-63845540D02*
X73360640Y-62905540D01*
X75310640Y-63845540D02*
X73360640Y-63845540D01*
X75310640Y-62905540D02*
X75310640Y-63845540D01*
X75399800Y-77627120D02*
X75399800Y-75677120D01*
X76339800Y-77627120D02*
X75399800Y-77627120D01*
X76339800Y-75677120D02*
X76339800Y-77627120D01*
X75399800Y-75677120D02*
X76339800Y-75677120D01*
X73353020Y-65831620D02*
X75303020Y-65831620D01*
X73353020Y-66771620D02*
X73353020Y-65831620D01*
X75303020Y-66771620D02*
X73353020Y-66771620D01*
X75303020Y-65831620D02*
X75303020Y-66771620D01*
X76337260Y-77681180D02*
X76337260Y-79631180D01*
X75397260Y-77681180D02*
X76337260Y-77681180D01*
X75397260Y-79631180D02*
X75397260Y-77681180D01*
X76337260Y-79631180D02*
X75397260Y-79631180D01*
X73396980Y-67934740D02*
X75346980Y-67934740D01*
X73396980Y-68874740D02*
X73396980Y-67934740D01*
X75346980Y-68874740D02*
X73396980Y-68874740D01*
X75346980Y-67934740D02*
X75346980Y-68874740D01*
X75369320Y-82608060D02*
X75369320Y-80658060D01*
X76309320Y-82608060D02*
X75369320Y-82608060D01*
X76309320Y-80658060D02*
X76309320Y-82608060D01*
X75369320Y-80658060D02*
X76309320Y-80658060D01*
X73386040Y-70952260D02*
X75336040Y-70952260D01*
X73386040Y-71892260D02*
X73386040Y-70952260D01*
X75336040Y-71892260D02*
X73386040Y-71892260D01*
X75336040Y-70952260D02*
X75336040Y-71892260D01*
X76314400Y-82667200D02*
X76314400Y-84617200D01*
X75374400Y-82667200D02*
X76314400Y-82667200D01*
X75374400Y-84617200D02*
X75374400Y-82667200D01*
X76314400Y-84617200D02*
X75374400Y-84617200D01*
X73391120Y-72555000D02*
X75341120Y-72555000D01*
X73391120Y-73495000D02*
X73391120Y-72555000D01*
X75341120Y-73495000D02*
X73391120Y-73495000D01*
X75341120Y-72555000D02*
X75341120Y-73495000D01*
X75389640Y-47043760D02*
X75389640Y-45093760D01*
X76329640Y-47043760D02*
X75389640Y-47043760D01*
X76329640Y-45093760D02*
X76329640Y-47043760D01*
X75389640Y-45093760D02*
X76329640Y-45093760D01*
X76327100Y-47111500D02*
X76327100Y-49061500D01*
X75387100Y-47111500D02*
X76327100Y-47111500D01*
X75387100Y-49061500D02*
X75387100Y-47111500D01*
X76327100Y-49061500D02*
X75387100Y-49061500D01*
X77325320Y-45100600D02*
X77325320Y-47050600D01*
X76385320Y-45100600D02*
X77325320Y-45100600D01*
X76385320Y-47050600D02*
X76385320Y-45100600D01*
X77325320Y-47050600D02*
X76385320Y-47050600D01*
X76385320Y-49052120D02*
X76385320Y-47102120D01*
X77325320Y-49052120D02*
X76385320Y-49052120D01*
X77325320Y-47102120D02*
X77325320Y-49052120D01*
X76385320Y-47102120D02*
X77325320Y-47102120D01*
X75422660Y-52113600D02*
X75422660Y-50163600D01*
X76362660Y-52113600D02*
X75422660Y-52113600D01*
X76362660Y-50163600D02*
X76362660Y-52113600D01*
X75422660Y-50163600D02*
X76362660Y-50163600D01*
X76360120Y-52166100D02*
X76360120Y-54116100D01*
X75420120Y-52166100D02*
X76360120Y-52166100D01*
X75420120Y-54116100D02*
X75420120Y-52166100D01*
X76360120Y-54116100D02*
X75420120Y-54116100D01*
X77355800Y-50169660D02*
X77355800Y-52119660D01*
X76415800Y-50169660D02*
X77355800Y-50169660D01*
X76415800Y-52119660D02*
X76415800Y-50169660D01*
X77355800Y-52119660D02*
X76415800Y-52119660D01*
X76410720Y-54117660D02*
X76410720Y-52167660D01*
X77350720Y-54117660D02*
X76410720Y-54117660D01*
X77350720Y-52167660D02*
X77350720Y-54117660D01*
X76410720Y-52167660D02*
X77350720Y-52167660D01*
X77340560Y-75676340D02*
X77340560Y-77626340D01*
X76400560Y-75676340D02*
X77340560Y-75676340D01*
X76400560Y-77626340D02*
X76400560Y-75676340D01*
X77340560Y-77626340D02*
X76400560Y-77626340D01*
X76392940Y-79638800D02*
X76392940Y-77688800D01*
X77332940Y-79638800D02*
X76392940Y-79638800D01*
X77332940Y-77688800D02*
X77332940Y-79638800D01*
X76392940Y-77688800D02*
X77332940Y-77688800D01*
X91349611Y-72879531D02*
X92728469Y-74258389D01*
X90684931Y-73544211D02*
X91349611Y-72879531D01*
X92063789Y-74923069D02*
X90684931Y-73544211D01*
X92728469Y-74258389D02*
X92063789Y-74923069D01*
X77307540Y-80658840D02*
X77307540Y-82608840D01*
X76367540Y-80658840D02*
X77307540Y-80658840D01*
X76367540Y-82608840D02*
X76367540Y-80658840D01*
X77307540Y-82608840D02*
X76367540Y-82608840D01*
X76377700Y-84619740D02*
X76377700Y-82669740D01*
X77317700Y-84619740D02*
X76377700Y-84619740D01*
X77317700Y-82669740D02*
X77317700Y-84619740D01*
X76377700Y-82669740D02*
X77317700Y-82669740D01*
X93350740Y-74900980D02*
X94729598Y-76279838D01*
X92686060Y-75565660D02*
X93350740Y-74900980D01*
X94064918Y-76944518D02*
X92686060Y-75565660D01*
X94729598Y-76279838D02*
X94064918Y-76944518D01*
X69759680Y-38953340D02*
X69759680Y-90753340D01*
X65584680Y-38953340D02*
X69759680Y-38953340D01*
X65609680Y-90753340D02*
X65584680Y-38953340D01*
X69759680Y-90753340D02*
X65609680Y-90753340D01*
X73380960Y-46141540D02*
X75330960Y-46141540D01*
X73380960Y-47081540D02*
X73380960Y-46141540D01*
X75330960Y-47081540D02*
X73380960Y-47081540D01*
X75330960Y-46141540D02*
X75330960Y-47081540D01*
X73380960Y-47078800D02*
X75330960Y-47078800D01*
X73380960Y-48018800D02*
X73380960Y-47078800D01*
X75330960Y-48018800D02*
X73380960Y-48018800D01*
X75330960Y-47078800D02*
X75330960Y-48018800D01*
X73408900Y-51193600D02*
X75358900Y-51193600D01*
X73408900Y-52133600D02*
X73408900Y-51193600D01*
X75358900Y-52133600D02*
X73408900Y-52133600D01*
X75358900Y-51193600D02*
X75358900Y-52133600D01*
X73408900Y-52128320D02*
X75358900Y-52128320D01*
X73408900Y-53068320D02*
X73408900Y-52128320D01*
X75358900Y-53068320D02*
X73408900Y-53068320D01*
X75358900Y-52128320D02*
X75358900Y-53068320D01*
X73370800Y-55161080D02*
X75320800Y-55161080D01*
X73370800Y-56101080D02*
X73370800Y-55161080D01*
X75320800Y-56101080D02*
X73370800Y-56101080D01*
X75320800Y-55161080D02*
X75320800Y-56101080D01*
X73380180Y-58778040D02*
X75330180Y-58778040D01*
X73380180Y-59718040D02*
X73380180Y-58778040D01*
X75330180Y-59718040D02*
X73380180Y-59718040D01*
X75330180Y-58778040D02*
X75330180Y-59718040D01*
X73370020Y-59768640D02*
X75320020Y-59768640D01*
X73370020Y-60708640D02*
X73370020Y-59768640D01*
X75320020Y-60708640D02*
X73370020Y-60708640D01*
X75320020Y-59768640D02*
X75320020Y-60708640D01*
X73360640Y-63893600D02*
X75310640Y-63893600D01*
X73360640Y-64833600D02*
X73360640Y-63893600D01*
X75310640Y-64833600D02*
X73360640Y-64833600D01*
X75310640Y-63893600D02*
X75310640Y-64833600D01*
X73352240Y-64876580D02*
X75302240Y-64876580D01*
X73352240Y-65816580D02*
X73352240Y-64876580D01*
X75302240Y-65816580D02*
X73352240Y-65816580D01*
X75302240Y-64876580D02*
X75302240Y-65816580D01*
X73377640Y-68935500D02*
X75327640Y-68935500D01*
X73377640Y-69875500D02*
X73377640Y-68935500D01*
X75327640Y-69875500D02*
X73377640Y-69875500D01*
X75327640Y-68935500D02*
X75327640Y-69875500D01*
X73373340Y-69938800D02*
X75323340Y-69938800D01*
X73373340Y-70878800D02*
X73373340Y-69938800D01*
X75323340Y-70878800D02*
X73373340Y-70878800D01*
X75323340Y-69938800D02*
X75323340Y-70878800D01*
X73380960Y-73550680D02*
X75330960Y-73550680D01*
X73380960Y-74490680D02*
X73380960Y-73550680D01*
X75330960Y-74490680D02*
X73380960Y-74490680D01*
X75330960Y-73550680D02*
X75330960Y-74490680D01*
X73393660Y-76692660D02*
X75343660Y-76692660D01*
X73393660Y-77632660D02*
X73393660Y-76692660D01*
X75343660Y-77632660D02*
X73393660Y-77632660D01*
X75343660Y-76692660D02*
X75343660Y-77632660D01*
X73392880Y-77635000D02*
X75342880Y-77635000D01*
X73392880Y-78575000D02*
X73392880Y-77635000D01*
X75342880Y-78575000D02*
X73392880Y-78575000D01*
X75342880Y-77635000D02*
X75342880Y-78575000D01*
X73358100Y-81699000D02*
X75308100Y-81699000D01*
X73358100Y-82639000D02*
X73358100Y-81699000D01*
X75308100Y-82639000D02*
X73358100Y-82639000D01*
X75308100Y-81699000D02*
X75308100Y-82639000D01*
X73369040Y-82638800D02*
X75319040Y-82638800D01*
X73369040Y-83578800D02*
X73369040Y-82638800D01*
X75319040Y-83578800D02*
X73369040Y-83578800D01*
X75319040Y-82638800D02*
X75319040Y-83578800D01*
X73314500Y-69438740D02*
X69814500Y-69438740D01*
X73314500Y-69438740D02*
X73314500Y-65338740D01*
X69814500Y-65338740D02*
X69814500Y-69438740D01*
X69814500Y-65338740D02*
X73314500Y-65338740D01*
X73296720Y-64371440D02*
X69796720Y-64371440D01*
X73296720Y-64371440D02*
X73296720Y-60271440D01*
X69796720Y-60271440D02*
X69796720Y-64371440D01*
X69796720Y-60271440D02*
X73296720Y-60271440D01*
X73311960Y-74511120D02*
X69811960Y-74511120D01*
X73311960Y-74511120D02*
X73311960Y-70411120D01*
X69811960Y-70411120D02*
X69811960Y-74511120D01*
X69811960Y-70411120D02*
X73311960Y-70411120D01*
X73314500Y-59255880D02*
X69814500Y-59255880D01*
X73314500Y-59255880D02*
X73314500Y-55155880D01*
X69814500Y-55155880D02*
X69814500Y-59255880D01*
X69814500Y-55155880D02*
X73314500Y-55155880D01*
X73324660Y-79619060D02*
X69824660Y-79619060D01*
X73324660Y-79619060D02*
X73324660Y-75519060D01*
X69824660Y-75519060D02*
X69824660Y-79619060D01*
X69824660Y-75519060D02*
X73324660Y-75519060D01*
X73311960Y-54193660D02*
X69811960Y-54193660D01*
X73311960Y-54193660D02*
X73311960Y-50093660D01*
X69811960Y-50093660D02*
X69811960Y-54193660D01*
X69811960Y-50093660D02*
X73311960Y-50093660D01*
X73317040Y-84648260D02*
X69817040Y-84648260D01*
X73317040Y-84648260D02*
X73317040Y-80548260D01*
X69817040Y-80548260D02*
X69817040Y-84648260D01*
X69817040Y-80548260D02*
X73317040Y-80548260D01*
X73319580Y-49100960D02*
X69819580Y-49100960D01*
X73319580Y-49100960D02*
X73319580Y-45000960D01*
X69819580Y-45000960D02*
X69819580Y-49100960D01*
X69819580Y-45000960D02*
X73319580Y-45000960D01*
X135714380Y-70449540D02*
X133764380Y-70449540D01*
X135714380Y-69509540D02*
X135714380Y-70449540D01*
X133764380Y-69509540D02*
X135714380Y-69509540D01*
X133764380Y-70449540D02*
X133764380Y-69509540D01*
X136048300Y-69231760D02*
X139008300Y-69231760D01*
X136048300Y-70691760D02*
X136048300Y-69231760D01*
X139008300Y-70691760D02*
X136048300Y-70691760D01*
X139008300Y-69231760D02*
X139008300Y-70691760D01*
X132115420Y-71235220D02*
X132115420Y-75795220D01*
X129875420Y-71235220D02*
X132115420Y-71235220D01*
X129875420Y-75795220D02*
X129875420Y-71235220D01*
X132115420Y-75795220D02*
X129875420Y-75795220D01*
X132433560Y-83158300D02*
X132433560Y-72518300D01*
X141853560Y-83158300D02*
X141853560Y-72518300D01*
X132433560Y-83158300D02*
X141853560Y-83158300D01*
X132433560Y-72518300D02*
X141853560Y-72518300D01*
X124953400Y-44636060D02*
X124953400Y-39636060D01*
X119953400Y-44636060D02*
X119953400Y-39636060D01*
X119953400Y-39636060D02*
X124953400Y-39636060D01*
X119953400Y-44636060D02*
X124953400Y-44636060D01*
X132281300Y-44676700D02*
X132281300Y-39676700D01*
X127281300Y-44676700D02*
X127281300Y-39676700D01*
X127281300Y-39676700D02*
X132281300Y-39676700D01*
X127281300Y-44676700D02*
X132281300Y-44676700D01*
X124938100Y-61425460D02*
X124938100Y-56425460D01*
X119938100Y-61425460D02*
X119938100Y-56425460D01*
X119938100Y-56425460D02*
X124938100Y-56425460D01*
X119938100Y-61425460D02*
X124938100Y-61425460D01*
X132231760Y-56453400D02*
X132231760Y-61453400D01*
X137231760Y-56453400D02*
X137231760Y-61453400D01*
X137231760Y-61453400D02*
X132231760Y-61453400D01*
X137231760Y-56453400D02*
X132231760Y-56453400D01*
X111442600Y-83464760D02*
X111442600Y-85414760D01*
X110502600Y-83464760D02*
X111442600Y-83464760D01*
X110502600Y-85414760D02*
X110502600Y-83464760D01*
X111442600Y-85414760D02*
X110502600Y-85414760D01*
X110330080Y-83462220D02*
X110330080Y-85412220D01*
X109390080Y-83462220D02*
X110330080Y-83462220D01*
X109390080Y-85412220D02*
X109390080Y-83462220D01*
X110330080Y-85412220D02*
X109390080Y-85412220D01*
X110545980Y-80914600D02*
X110545980Y-82864600D01*
X109605980Y-80914600D02*
X110545980Y-80914600D01*
X109605980Y-82864600D02*
X109605980Y-80914600D01*
X110545980Y-82864600D02*
X109605980Y-82864600D01*
X91981540Y-51548740D02*
X91981540Y-41448740D01*
X91981540Y-41448740D02*
X108081540Y-41448740D01*
X108081540Y-41448740D02*
X108081540Y-51548740D01*
X108081540Y-51548740D02*
X91981540Y-51548740D01*
X94215240Y-40403680D02*
X96315240Y-40403680D01*
X94215240Y-41343680D02*
X94215240Y-40403680D01*
X96315240Y-41348680D02*
X94215240Y-41348680D01*
X96315240Y-40408680D02*
X96315240Y-41348680D01*
X96498700Y-40403680D02*
X98598700Y-40403680D01*
X96498700Y-41343680D02*
X96498700Y-40403680D01*
X98598700Y-41348680D02*
X96498700Y-41348680D01*
X98598700Y-40408680D02*
X98598700Y-41348680D01*
X98738980Y-40406220D02*
X100838980Y-40406220D01*
X98738980Y-41346220D02*
X98738980Y-40406220D01*
X100838980Y-41351220D02*
X98738980Y-41351220D01*
X100838980Y-40411220D02*
X100838980Y-41351220D01*
X99511540Y-54070313D02*
X86076511Y-67505342D01*
X112946569Y-67505342D02*
X99511540Y-54070313D01*
X99511540Y-80940371D02*
X112946569Y-67505342D01*
X86076511Y-67505342D02*
X99511540Y-80940371D01*
X128739320Y-83778620D02*
X124539320Y-83778620D01*
X128739320Y-87178620D02*
X128739320Y-83778620D01*
X124539320Y-87178620D02*
X128739320Y-87178620D01*
X124539320Y-83778620D02*
X124539320Y-87178620D01*
X135696600Y-72042120D02*
X133746600Y-72042120D01*
X135696600Y-71102120D02*
X135696600Y-72042120D01*
X133746600Y-71102120D02*
X135696600Y-71102120D01*
X133746600Y-72042120D02*
X133746600Y-71102120D01*
X126727860Y-78823920D02*
X124777860Y-78823920D01*
X126727860Y-77883920D02*
X126727860Y-78823920D01*
X124777860Y-77883920D02*
X126727860Y-77883920D01*
X124777860Y-78823920D02*
X124777860Y-77883920D01*
X115895020Y-87317220D02*
X115895020Y-85367220D01*
X116835020Y-87317220D02*
X115895020Y-87317220D01*
X116835020Y-85367220D02*
X116835020Y-87317220D01*
X115895020Y-85367220D02*
X116835020Y-85367220D01*
X119328780Y-50149660D02*
X121278780Y-50149660D01*
X119328780Y-51089660D02*
X119328780Y-50149660D01*
X121278780Y-51089660D02*
X119328780Y-51089660D01*
X121278780Y-50149660D02*
X121278780Y-51089660D01*
X138541400Y-49791720D02*
X136591400Y-49791720D01*
X138541400Y-48851720D02*
X138541400Y-49791720D01*
X136591400Y-48851720D02*
X138541400Y-48851720D01*
X136591400Y-49791720D02*
X136591400Y-48851720D01*
X119314320Y-51541580D02*
X121264320Y-51541580D01*
X119314320Y-52481580D02*
X119314320Y-51541580D01*
X121264320Y-52481580D02*
X119314320Y-52481580D01*
X121264320Y-51541580D02*
X121264320Y-52481580D01*
X138498220Y-52247900D02*
X136548220Y-52247900D01*
X138498220Y-51307900D02*
X138498220Y-52247900D01*
X136548220Y-51307900D02*
X138498220Y-51307900D01*
X136548220Y-52247900D02*
X136548220Y-51307900D01*
X138508380Y-51140460D02*
X136558380Y-51140460D01*
X138508380Y-50200460D02*
X138508380Y-51140460D01*
X136558380Y-50200460D02*
X138508380Y-50200460D01*
X136558380Y-51140460D02*
X136558380Y-50200460D01*
X121397120Y-50169980D02*
X123347120Y-50169980D01*
X121397120Y-51109980D02*
X121397120Y-50169980D01*
X123347120Y-51109980D02*
X121397120Y-51109980D01*
X123347120Y-50169980D02*
X123347120Y-51109980D01*
X136473840Y-49799340D02*
X134523840Y-49799340D01*
X136473840Y-48859340D02*
X136473840Y-49799340D01*
X134523840Y-48859340D02*
X136473840Y-48859340D01*
X134523840Y-49799340D02*
X134523840Y-48859340D01*
X121417440Y-51544120D02*
X123367440Y-51544120D01*
X121417440Y-52484120D02*
X121417440Y-51544120D01*
X123367440Y-52484120D02*
X121417440Y-52484120D01*
X123367440Y-51544120D02*
X123367440Y-52484120D01*
X126375520Y-63985040D02*
X128325520Y-63985040D01*
X126375520Y-64925040D02*
X126375520Y-63985040D01*
X128325520Y-64925040D02*
X126375520Y-64925040D01*
X128325520Y-63985040D02*
X128325520Y-64925040D01*
X128940920Y-63985040D02*
X130890920Y-63985040D01*
X128940920Y-64925040D02*
X128940920Y-63985040D01*
X130890920Y-64925040D02*
X128940920Y-64925040D01*
X130890920Y-63985040D02*
X130890920Y-64925040D01*
X136453520Y-51140460D02*
X134503520Y-51140460D01*
X136453520Y-50200460D02*
X136453520Y-51140460D01*
X134503520Y-50200460D02*
X136453520Y-50200460D01*
X134503520Y-51140460D02*
X134503520Y-50200460D01*
X123339500Y-49763780D02*
X121389500Y-49763780D01*
X123339500Y-48823780D02*
X123339500Y-49763780D01*
X121389500Y-48823780D02*
X123339500Y-48823780D01*
X121389500Y-49763780D02*
X121389500Y-48823780D01*
X134503520Y-47497900D02*
X136453520Y-47497900D01*
X134503520Y-48437900D02*
X134503520Y-47497900D01*
X136453520Y-48437900D02*
X134503520Y-48437900D01*
X136453520Y-47497900D02*
X136453520Y-48437900D01*
X123423320Y-53804920D02*
X121473320Y-53804920D01*
X123423320Y-52864920D02*
X123423320Y-53804920D01*
X121473320Y-52864920D02*
X123423320Y-52864920D01*
X121473320Y-53804920D02*
X121473320Y-52864920D01*
X134465420Y-52405180D02*
X136415420Y-52405180D01*
X134465420Y-53345180D02*
X134465420Y-52405180D01*
X136415420Y-53345180D02*
X134465420Y-53345180D01*
X136415420Y-52405180D02*
X136415420Y-53345180D01*
X119306700Y-47350580D02*
X121256700Y-47350580D01*
X119306700Y-48290580D02*
X119306700Y-47350580D01*
X121256700Y-48290580D02*
X119306700Y-48290580D01*
X121256700Y-47350580D02*
X121256700Y-48290580D01*
X138645540Y-47211080D02*
X136695540Y-47211080D01*
X138645540Y-46271080D02*
X138645540Y-47211080D01*
X136695540Y-46271080D02*
X138645540Y-46271080D01*
X136695540Y-47211080D02*
X136695540Y-46271080D01*
X138637920Y-46009660D02*
X136687920Y-46009660D01*
X138637920Y-45069660D02*
X138637920Y-46009660D01*
X136687920Y-45069660D02*
X138637920Y-45069660D01*
X136687920Y-46009660D02*
X136687920Y-45069660D01*
X136545680Y-53751380D02*
X138495680Y-53751380D01*
X136545680Y-54691380D02*
X136545680Y-53751380D01*
X138495680Y-54691380D02*
X136545680Y-54691380D01*
X138495680Y-53751380D02*
X138495680Y-54691380D01*
X121333620Y-47327720D02*
X123283620Y-47327720D01*
X121333620Y-48267720D02*
X121333620Y-47327720D01*
X123283620Y-48267720D02*
X121333620Y-48267720D01*
X123283620Y-47327720D02*
X123283620Y-48267720D01*
X136445900Y-47211080D02*
X134495900Y-47211080D01*
X136445900Y-46271080D02*
X136445900Y-47211080D01*
X134495900Y-46271080D02*
X136445900Y-46271080D01*
X134495900Y-47211080D02*
X134495900Y-46271080D01*
X136440820Y-46007120D02*
X134490820Y-46007120D01*
X136440820Y-45067120D02*
X136440820Y-46007120D01*
X134490820Y-45067120D02*
X136440820Y-45067120D01*
X134490820Y-46007120D02*
X134490820Y-45067120D01*
X136486540Y-54693920D02*
X134536540Y-54693920D01*
X136486540Y-53753920D02*
X136486540Y-54693920D01*
X134536540Y-53753920D02*
X136486540Y-53753920D01*
X134536540Y-54693920D02*
X134536540Y-53753920D01*
X109545220Y-80914600D02*
X109545220Y-82864600D01*
X108605220Y-80914600D02*
X109545220Y-80914600D01*
X108605220Y-82864600D02*
X108605220Y-80914600D01*
X109545220Y-82864600D02*
X108605220Y-82864600D01*
X108549540Y-80919680D02*
X108549540Y-82869680D01*
X107609540Y-80919680D02*
X108549540Y-80919680D01*
X107609540Y-82869680D02*
X107609540Y-80919680D01*
X108549540Y-82869680D02*
X107609540Y-82869680D01*
X101640540Y-82869680D02*
X101640540Y-80919680D01*
X102580540Y-82869680D02*
X101640540Y-82869680D01*
X102580540Y-80919680D02*
X102580540Y-82869680D01*
X101640540Y-80919680D02*
X102580540Y-80919680D01*
X112565280Y-83457140D02*
X112565280Y-85407140D01*
X111625280Y-83457140D02*
X112565280Y-83457140D01*
X111625280Y-85407140D02*
X111625280Y-83457140D01*
X112565280Y-85407140D02*
X111625280Y-85407140D01*
X112537340Y-80917140D02*
X112537340Y-82867140D01*
X111597340Y-80917140D02*
X112537340Y-80917140D01*
X111597340Y-82867140D02*
X111597340Y-80917140D01*
X112537340Y-82867140D02*
X111597340Y-82867140D01*
X111544200Y-80914600D02*
X111544200Y-82864600D01*
X110604200Y-80914600D02*
X111544200Y-80914600D01*
X110604200Y-82864600D02*
X110604200Y-80914600D01*
X111544200Y-82864600D02*
X110604200Y-82864600D01*
X105567580Y-80917140D02*
X105567580Y-82867140D01*
X104627580Y-80917140D02*
X105567580Y-80917140D01*
X104627580Y-82867140D02*
X104627580Y-80917140D01*
X105567580Y-82867140D02*
X104627580Y-82867140D01*
X106558180Y-80917140D02*
X106558180Y-82867140D01*
X105618180Y-80917140D02*
X106558180Y-80917140D01*
X105618180Y-82867140D02*
X105618180Y-80917140D01*
X106558180Y-82867140D02*
X105618180Y-82867140D01*
X104571900Y-80917140D02*
X104571900Y-82867140D01*
X103631900Y-80917140D02*
X104571900Y-80917140D01*
X103631900Y-82867140D02*
X103631900Y-80917140D01*
X104571900Y-82867140D02*
X103631900Y-82867140D01*
X107553860Y-80917140D02*
X107553860Y-82867140D01*
X106613860Y-80917140D02*
X107553860Y-80917140D01*
X106613860Y-82867140D02*
X106613860Y-80917140D01*
X107553860Y-82867140D02*
X106613860Y-82867140D01*
X125890040Y-56365920D02*
X125890040Y-63765920D01*
X131290040Y-56365920D02*
X125890040Y-56365920D01*
X131290040Y-63765920D02*
X131290040Y-56365920D01*
X125890040Y-63765920D02*
X131290040Y-63765920D01*
X139015920Y-72291960D02*
X136055920Y-72291960D01*
X139015920Y-70831960D02*
X139015920Y-72291960D01*
X136055920Y-70831960D02*
X139015920Y-70831960D01*
X136055920Y-72291960D02*
X136055920Y-70831960D01*
X115806160Y-89889740D02*
X99556160Y-89889740D01*
X115806160Y-86339740D02*
X115806160Y-89889740D01*
X99556160Y-86339740D02*
X115806160Y-86339740D01*
X99556160Y-89889740D02*
X99556160Y-86339740D01*
X107760615Y-73220478D02*
X110129422Y-75589285D01*
X110164778Y-70816315D02*
X107760615Y-73220478D01*
X112533585Y-73185122D02*
X110164778Y-70816315D01*
X110129422Y-75589285D02*
X112533585Y-73185122D01*
X117800040Y-84532060D02*
X117800040Y-88132060D01*
X117800040Y-88132060D02*
X121600040Y-88132060D01*
X121600040Y-88132060D02*
X121600040Y-84532060D01*
X121600040Y-84532060D02*
X117800040Y-84532060D01*
X132959280Y-54684100D02*
X132959280Y-46484100D01*
X124759280Y-54684100D02*
X132959280Y-54684100D01*
X124759280Y-46484100D02*
X124759280Y-54684100D01*
X132959280Y-46484100D02*
X124759280Y-46484100D01*
X115324040Y-81953160D02*
X124524040Y-81953160D01*
X115324040Y-72753160D02*
X115324040Y-81953160D01*
X124524040Y-72753160D02*
X115324040Y-72753160D01*
X124524040Y-81953160D02*
X124524040Y-72753160D01*
X125818540Y-80967480D02*
X127678540Y-80967480D01*
X125818540Y-81907480D02*
X125818540Y-80967480D01*
X127678540Y-81907480D02*
X125818540Y-81907480D01*
X127678540Y-80967480D02*
X127678540Y-81907480D01*
X125810920Y-73802140D02*
X127670920Y-73802140D01*
X125810920Y-74742140D02*
X125810920Y-73802140D01*
X127670920Y-74742140D02*
X125810920Y-74742140D01*
X127670920Y-73802140D02*
X127670920Y-74742140D01*
X112753522Y-74740858D02*
X111268598Y-76225782D01*
X112088842Y-74076178D02*
X112753522Y-74740858D01*
X110600382Y-75557566D02*
X112085306Y-74072642D01*
X111265063Y-76222247D02*
X110600382Y-75557566D01*
X127783300Y-75824180D02*
X125683300Y-75824180D01*
X127783300Y-74884180D02*
X127783300Y-75824180D01*
X125683300Y-74879180D02*
X127783300Y-74879180D01*
X125683300Y-75819180D02*
X125683300Y-74879180D01*
X127783300Y-76903680D02*
X125683300Y-76903680D01*
X127783300Y-75963680D02*
X127783300Y-76903680D01*
X125683300Y-75958680D02*
X127783300Y-75958680D01*
X125683300Y-76898680D02*
X125683300Y-75958680D01*
X123071600Y-83213040D02*
X120971600Y-83213040D01*
X123071600Y-82273040D02*
X123071600Y-83213040D01*
X120971600Y-82268040D02*
X123071600Y-82268040D01*
X120971600Y-83208040D02*
X120971600Y-82268040D01*
X127785840Y-80916880D02*
X125685840Y-80916880D01*
X127785840Y-79976880D02*
X127785840Y-80916880D01*
X125685840Y-79971880D02*
X127785840Y-79971880D01*
X125685840Y-80911880D02*
X125685840Y-79971880D01*
X127785840Y-79961840D02*
X125685840Y-79961840D01*
X127785840Y-79021840D02*
X127785840Y-79961840D01*
X125685840Y-79016840D02*
X127785840Y-79016840D01*
X125685840Y-79956840D02*
X125685840Y-79016840D01*
X115531800Y-84365900D02*
X115531800Y-82265900D01*
X116471800Y-84365900D02*
X115531800Y-84365900D01*
X116476800Y-82265900D02*
X116476800Y-84365900D01*
X115536800Y-82265900D02*
X116476800Y-82265900D01*
X116585900Y-84367080D02*
X116585900Y-82267080D01*
X117525900Y-84367080D02*
X116585900Y-84367080D01*
X117530900Y-82267080D02*
X117530900Y-84367080D01*
X116590900Y-82267080D02*
X117530900Y-82267080D01*
X129824580Y-84438780D02*
X129824580Y-86538780D01*
X128884580Y-84438780D02*
X129824580Y-84438780D01*
X128879580Y-86538780D02*
X128879580Y-84438780D01*
X129819580Y-86538780D02*
X128879580Y-86538780D01*
X127638520Y-88219380D02*
X125538520Y-88219380D01*
X127638520Y-87279380D02*
X127638520Y-88219380D01*
X125538520Y-87274380D02*
X127638520Y-87274380D01*
X125538520Y-88214380D02*
X125538520Y-87274380D01*
X119784840Y-83213040D02*
X117684840Y-83213040D01*
X119784840Y-82273040D02*
X119784840Y-83213040D01*
X117684840Y-82268040D02*
X119784840Y-82268040D01*
X117684840Y-83208040D02*
X117684840Y-82268040D01*
X132236040Y-61694200D02*
X137136040Y-61694200D01*
X132236040Y-63934200D02*
X132236040Y-61694200D01*
X137136040Y-63934200D02*
X132236040Y-63934200D01*
X137136040Y-61694200D02*
X137136040Y-63934200D01*
X126297980Y-55183940D02*
X128397980Y-55183940D01*
X126297980Y-56123940D02*
X126297980Y-55183940D01*
X128397980Y-56128940D02*
X126297980Y-56128940D01*
X128397980Y-55188940D02*
X128397980Y-56128940D01*
X130917660Y-56118860D02*
X128817660Y-56118860D01*
X130917660Y-55178860D02*
X130917660Y-56118860D01*
X128817660Y-55173860D02*
X130917660Y-55173860D01*
X128817660Y-56113860D02*
X128817660Y-55173860D01*
X126993360Y-46344940D02*
X124893360Y-46344940D01*
X126993360Y-45404940D02*
X126993360Y-46344940D01*
X124893360Y-45399940D02*
X126993360Y-45399940D01*
X124893360Y-46339940D02*
X124893360Y-45399940D01*
X130610900Y-45382080D02*
X132710900Y-45382080D01*
X130610900Y-46322080D02*
X130610900Y-45382080D01*
X132710900Y-46327080D02*
X130610900Y-46327080D01*
X132710900Y-45387080D02*
X132710900Y-46327080D01*
X121367260Y-49768860D02*
X119267260Y-49768860D01*
X121367260Y-48828860D02*
X121367260Y-49768860D01*
X119267260Y-48823860D02*
X121367260Y-48823860D01*
X119267260Y-49763860D02*
X119267260Y-48823860D01*
X136549420Y-47497900D02*
X138649420Y-47497900D01*
X136549420Y-48437900D02*
X136549420Y-47497900D01*
X138649420Y-48442900D02*
X136549420Y-48442900D01*
X138649420Y-47502900D02*
X138649420Y-48442900D01*
X121336780Y-53802380D02*
X119236780Y-53802380D01*
X121336780Y-52862380D02*
X121336780Y-53802380D01*
X119236780Y-52857380D02*
X121336780Y-52857380D01*
X119236780Y-53797380D02*
X119236780Y-52857380D01*
X136409720Y-52405180D02*
X138509720Y-52405180D01*
X136409720Y-53345180D02*
X136409720Y-52405180D01*
X138509720Y-53350180D02*
X136409720Y-53350180D01*
X138509720Y-52410180D02*
X138509720Y-53350180D01*
X120574800Y-54045100D02*
X123874800Y-54045100D01*
X120574800Y-55505100D02*
X120574800Y-54045100D01*
X123874800Y-55505100D02*
X120574800Y-55505100D01*
X123874800Y-54045100D02*
X123874800Y-55505100D01*
X136953260Y-56223920D02*
X133653260Y-56223920D01*
X136953260Y-54763920D02*
X136953260Y-56223920D01*
X133653260Y-54763920D02*
X136953260Y-54763920D01*
X133653260Y-56223920D02*
X133653260Y-54763920D01*
X115250100Y-65304840D02*
X115250100Y-60404840D01*
X117490100Y-65304840D02*
X115250100Y-65304840D01*
X117490100Y-60404840D02*
X117490100Y-65304840D01*
X115250100Y-60404840D02*
X117490100Y-60404840D01*
X113710820Y-83379600D02*
X113710820Y-85479600D01*
X112770820Y-83379600D02*
X113710820Y-83379600D01*
X112765820Y-85479600D02*
X112765820Y-83379600D01*
X113705820Y-85479600D02*
X112765820Y-85479600D01*
M02*
