G04 #@! TF.GenerationSoftware,KiCad,Pcbnew,(5.1.5)-3*
G04 #@! TF.CreationDate,2020-11-02T01:39:04+01:00*
G04 #@! TF.ProjectId,LogAn,4c6f6741-6e2e-46b6-9963-61645f706362,rev?*
G04 #@! TF.SameCoordinates,Original*
G04 #@! TF.FileFunction,Legend,Bot*
G04 #@! TF.FilePolarity,Positive*
%FSLAX46Y46*%
G04 Gerber Fmt 4.6, Leading zero omitted, Abs format (unit mm)*
G04 Created by KiCad (PCBNEW (5.1.5)-3) date 2020-11-02 01:39:04*
%MOMM*%
%LPD*%
G04 APERTURE LIST*
%ADD10C,0.200000*%
%ADD11C,0.120000*%
%ADD12C,0.050000*%
%ADD13C,0.160000*%
%ADD14C,0.150000*%
G04 APERTURE END LIST*
D10*
X124196582Y-85751917D02*
X123296582Y-85751917D01*
X123296582Y-85966202D01*
X123339440Y-86094774D01*
X123425154Y-86180488D01*
X123510868Y-86223345D01*
X123682297Y-86266202D01*
X123810868Y-86266202D01*
X123982297Y-86223345D01*
X124068011Y-86180488D01*
X124153725Y-86094774D01*
X124196582Y-85966202D01*
X124196582Y-85751917D01*
X123296582Y-86823345D02*
X123296582Y-86994774D01*
X123339440Y-87080488D01*
X123425154Y-87166202D01*
X123596582Y-87209060D01*
X123896582Y-87209060D01*
X124068011Y-87166202D01*
X124153725Y-87080488D01*
X124196582Y-86994774D01*
X124196582Y-86823345D01*
X124153725Y-86737631D01*
X124068011Y-86651917D01*
X123896582Y-86609060D01*
X123596582Y-86609060D01*
X123425154Y-86651917D01*
X123339440Y-86737631D01*
X123296582Y-86823345D01*
X125611362Y-86301160D02*
X124711362Y-86301160D01*
X124711362Y-86515445D01*
X124754220Y-86644017D01*
X124839934Y-86729731D01*
X124925648Y-86772588D01*
X125097077Y-86815445D01*
X125225648Y-86815445D01*
X125397077Y-86772588D01*
X125482791Y-86729731D01*
X125568505Y-86644017D01*
X125611362Y-86515445D01*
X125611362Y-86301160D01*
X125611362Y-87201160D02*
X124711362Y-87201160D01*
X126892168Y-85727765D02*
X126935025Y-85684908D01*
X126977882Y-85556337D01*
X126977882Y-85470622D01*
X126935025Y-85342051D01*
X126849311Y-85256337D01*
X126763597Y-85213480D01*
X126592168Y-85170622D01*
X126463597Y-85170622D01*
X126292168Y-85213480D01*
X126206454Y-85256337D01*
X126120740Y-85342051D01*
X126077882Y-85470622D01*
X126077882Y-85556337D01*
X126120740Y-85684908D01*
X126163597Y-85727765D01*
X126977882Y-86542051D02*
X126977882Y-86113480D01*
X126077882Y-86113480D01*
X126977882Y-86842051D02*
X126077882Y-86842051D01*
X126977882Y-87356337D02*
X126463597Y-86970622D01*
X126077882Y-87356337D02*
X126592168Y-86842051D01*
X127507580Y-85511725D02*
X127464722Y-85426011D01*
X127464722Y-85297440D01*
X127507580Y-85168868D01*
X127593294Y-85083154D01*
X127679008Y-85040297D01*
X127850437Y-84997440D01*
X127979008Y-84997440D01*
X128150437Y-85040297D01*
X128236151Y-85083154D01*
X128321865Y-85168868D01*
X128364722Y-85297440D01*
X128364722Y-85383154D01*
X128321865Y-85511725D01*
X128279008Y-85554582D01*
X127979008Y-85554582D01*
X127979008Y-85383154D01*
X128364722Y-85940297D02*
X127464722Y-85940297D01*
X128364722Y-86454582D01*
X127464722Y-86454582D01*
X128364722Y-86883154D02*
X127464722Y-86883154D01*
X127464722Y-87097440D01*
X127507580Y-87226011D01*
X127593294Y-87311725D01*
X127679008Y-87354582D01*
X127850437Y-87397440D01*
X127979008Y-87397440D01*
X128150437Y-87354582D01*
X128236151Y-87311725D01*
X128321865Y-87226011D01*
X128364722Y-87097440D01*
X128364722Y-86883154D01*
X129632828Y-86555440D02*
X129675685Y-86512582D01*
X129718542Y-86384011D01*
X129718542Y-86298297D01*
X129675685Y-86169725D01*
X129589971Y-86084011D01*
X129504257Y-86041154D01*
X129332828Y-85998297D01*
X129204257Y-85998297D01*
X129032828Y-86041154D01*
X128947114Y-86084011D01*
X128861400Y-86169725D01*
X128818542Y-86298297D01*
X128818542Y-86384011D01*
X128861400Y-86512582D01*
X128904257Y-86555440D01*
X129675685Y-86898297D02*
X129718542Y-87026868D01*
X129718542Y-87241154D01*
X129675685Y-87326868D01*
X129632828Y-87369725D01*
X129547114Y-87412582D01*
X129461400Y-87412582D01*
X129375685Y-87369725D01*
X129332828Y-87326868D01*
X129289971Y-87241154D01*
X129247114Y-87069725D01*
X129204257Y-86984011D01*
X129161400Y-86941154D01*
X129075685Y-86898297D01*
X128989971Y-86898297D01*
X128904257Y-86941154D01*
X128861400Y-86984011D01*
X128818542Y-87069725D01*
X128818542Y-87284011D01*
X128861400Y-87412582D01*
X130159662Y-86062905D02*
X130159662Y-86620048D01*
X130502520Y-86320048D01*
X130502520Y-86448620D01*
X130545377Y-86534334D01*
X130588234Y-86577191D01*
X130673948Y-86620048D01*
X130888234Y-86620048D01*
X130973948Y-86577191D01*
X131016805Y-86534334D01*
X131059662Y-86448620D01*
X131059662Y-86191477D01*
X131016805Y-86105762D01*
X130973948Y-86062905D01*
X130159662Y-86877191D02*
X131059662Y-87177191D01*
X130159662Y-87477191D01*
D11*
X82126999Y-59847480D02*
G75*
G03X82126999Y-59847480I-222159J0D01*
G01*
D12*
X140710920Y-90850720D02*
X65778380Y-90850720D01*
X140716000Y-38854380D02*
X140710920Y-90850720D01*
X65773300Y-38858340D02*
X140716000Y-38854380D01*
X65778380Y-90850720D02*
X65773300Y-38858340D01*
D11*
X127237720Y-88602820D02*
G75*
G03X127237720Y-88602820I-700000J0D01*
G01*
X122236460Y-88602820D02*
G75*
G03X122236460Y-88602820I-700000J0D01*
G01*
X119765040Y-88590120D02*
G75*
G03X119765040Y-88590120I-700000J0D01*
G01*
X117263140Y-88582500D02*
G75*
G03X117263140Y-88582500I-700000J0D01*
G01*
X124740900Y-88600280D02*
G75*
G03X124740900Y-88600280I-700000J0D01*
G01*
X129721840Y-88600280D02*
G75*
G03X129721840Y-88600280I-700000J0D01*
G01*
D13*
X123739180Y-42946167D02*
X123739180Y-42603633D01*
X124759180Y-42946167D02*
X124759180Y-42603633D01*
D11*
X95764580Y-87393780D02*
G75*
G03X95764580Y-87393780I-700000J0D01*
G01*
X99041180Y-49344580D02*
G75*
G03X99041180Y-49344580I-700000J0D01*
G01*
D13*
X131806220Y-86531267D02*
X131806220Y-86188733D01*
X132826220Y-86531267D02*
X132826220Y-86188733D01*
X79752373Y-86822820D02*
X80094907Y-86822820D01*
X79752373Y-87842820D02*
X80094907Y-87842820D01*
X136945553Y-47422340D02*
X137288087Y-47422340D01*
X136945553Y-48442340D02*
X137288087Y-48442340D01*
X79610133Y-41892760D02*
X79952667Y-41892760D01*
X79610133Y-42912760D02*
X79952667Y-42912760D01*
X82095100Y-70267640D02*
X82095100Y-70892640D01*
X80770100Y-70267640D02*
X82095100Y-70267640D01*
X80770100Y-70917640D02*
X80770100Y-70267640D01*
D14*
X79120100Y-62817640D02*
X83770100Y-62817640D01*
X79245100Y-70917640D02*
X83770100Y-70917640D01*
X79120100Y-62817640D02*
X79120100Y-62842640D01*
X83770100Y-62817640D02*
X83770100Y-62842640D01*
D13*
X99137560Y-85660540D02*
X104362560Y-85660540D01*
X104362560Y-85660540D02*
X104362560Y-80435540D01*
X104362560Y-80435540D02*
X99137560Y-80435540D01*
X99137560Y-80435540D02*
X99137560Y-85660540D01*
X98345339Y-79114301D02*
X98027141Y-79432499D01*
X99056539Y-78415801D02*
X98738341Y-78733999D01*
X91352580Y-83643960D02*
X90902580Y-83643960D01*
X90894960Y-81605120D02*
X91344960Y-81605120D01*
X82163480Y-84501160D02*
X82313480Y-84501160D01*
X82163480Y-81381160D02*
X82313480Y-81381160D01*
X85283480Y-81381160D02*
X85133480Y-81381160D01*
X82163480Y-81381160D02*
X82163480Y-84501160D01*
X85283480Y-81381160D02*
X85283480Y-84501160D01*
X85283480Y-84501160D02*
X85133480Y-84501160D01*
X82313480Y-81381160D02*
X82313480Y-81121160D01*
X81174380Y-82176620D02*
X81624380Y-82176620D01*
X87001533Y-84018660D02*
X87344067Y-84018660D01*
X87001533Y-85038660D02*
X87344067Y-85038660D01*
X94953907Y-85033580D02*
X94611373Y-85033580D01*
X94953907Y-84013580D02*
X94611373Y-84013580D01*
X91365112Y-62380390D02*
X91683310Y-62698588D01*
X89449561Y-64361981D02*
X89767759Y-64680179D01*
X74345800Y-56849220D02*
X74345800Y-56399220D01*
X74350880Y-58474820D02*
X74350880Y-58024820D01*
X74330560Y-61454240D02*
X74330560Y-61004240D01*
X74338180Y-63615780D02*
X74338180Y-63165780D01*
X74330560Y-66519000D02*
X74330560Y-66069000D01*
X76092260Y-76649580D02*
X75642260Y-76649580D01*
X75637180Y-78638400D02*
X76087180Y-78638400D01*
X74362800Y-68639900D02*
X74362800Y-68189900D01*
X74361040Y-71621860D02*
X74361040Y-71171860D01*
X76077020Y-81633060D02*
X75627020Y-81633060D01*
X75632100Y-83642980D02*
X76082100Y-83642980D01*
X74355960Y-73252540D02*
X74355960Y-72802540D01*
X76087180Y-46071300D02*
X75637180Y-46071300D01*
X75627020Y-48074580D02*
X76077020Y-48074580D01*
X76625240Y-46082440D02*
X77075240Y-46082440D01*
X77077780Y-48087280D02*
X76627780Y-48087280D01*
X76110040Y-51145440D02*
X75660040Y-51145440D01*
X75654960Y-53149500D02*
X76104960Y-53149500D01*
X76658260Y-51137040D02*
X77108260Y-51137040D01*
X77100640Y-53152040D02*
X76650640Y-53152040D01*
X76637940Y-76654660D02*
X77087940Y-76654660D01*
X77085400Y-78643480D02*
X76635400Y-78643480D01*
X92291430Y-73374208D02*
X92609628Y-73056010D01*
X76615080Y-81640680D02*
X77065080Y-81640680D01*
X77065080Y-83639660D02*
X76615080Y-83639660D01*
X94829281Y-75912059D02*
X95147479Y-75593861D01*
X74361040Y-46836540D02*
X74361040Y-46386540D01*
X74350880Y-47771260D02*
X74350880Y-47321260D01*
X74373740Y-51901300D02*
X74373740Y-51451300D01*
X74373740Y-52830940D02*
X74373740Y-52380940D01*
X74348340Y-55851000D02*
X74348340Y-55401000D01*
X74343260Y-59473040D02*
X74343260Y-59023040D01*
X74338180Y-60463640D02*
X74338180Y-60013640D01*
X74340720Y-64614000D02*
X74340720Y-64164000D01*
X74322940Y-65571580D02*
X74322940Y-65121580D01*
X74353420Y-69638120D02*
X74353420Y-69188120D01*
X74350100Y-70631260D02*
X74350100Y-70181260D01*
X74366120Y-74250760D02*
X74366120Y-73800760D01*
X74362800Y-77385120D02*
X74362800Y-76935120D01*
X74362800Y-78319840D02*
X74362800Y-77869840D01*
X74333100Y-82394000D02*
X74333100Y-81944000D01*
X74335640Y-83326180D02*
X74335640Y-82876180D01*
X70019580Y-63531600D02*
X70019580Y-61131600D01*
X73119580Y-61131600D02*
X73119580Y-63531600D01*
X70037360Y-68593820D02*
X70037360Y-66193820D01*
X73137360Y-66193820D02*
X73137360Y-68593820D01*
X70014500Y-58426200D02*
X70014500Y-56026200D01*
X73114500Y-56026200D02*
X73114500Y-58426200D01*
X70009420Y-73676360D02*
X70009420Y-71276360D01*
X73109420Y-71276360D02*
X73109420Y-73676360D01*
X70017400Y-53340540D02*
X70017400Y-50940540D01*
X73117400Y-50940540D02*
X73117400Y-53340540D01*
X70024660Y-78753820D02*
X70024660Y-76353820D01*
X73124660Y-76353820D02*
X73124660Y-78753820D01*
X70022120Y-48250960D02*
X70022120Y-45850960D01*
X73122120Y-45850960D02*
X73122120Y-48250960D01*
X70017040Y-83798260D02*
X70017040Y-81398260D01*
X73117040Y-81398260D02*
X73117040Y-83798260D01*
X135557260Y-77646320D02*
X135557260Y-78096320D01*
X135549640Y-76597300D02*
X135549640Y-77047300D01*
X133934800Y-76143000D02*
X133934800Y-78543000D01*
X130834800Y-78543000D02*
X130834800Y-76143000D01*
X114356960Y-66273740D02*
X114356960Y-67173740D01*
X112481960Y-69773740D02*
X115756960Y-69773740D01*
X112481960Y-66273740D02*
X115756960Y-66273740D01*
X100379181Y-68782279D02*
X100697379Y-68464081D01*
X106519980Y-51946600D02*
X106519980Y-52396600D01*
X106377740Y-41764160D02*
X106377740Y-41314160D01*
X98038920Y-51052520D02*
X98038920Y-51502520D01*
X104005380Y-41761620D02*
X104005380Y-41311620D01*
X95267780Y-41962280D02*
X95267780Y-41512280D01*
X104226360Y-51332340D02*
X104226360Y-50882340D01*
X106509820Y-51339960D02*
X106509820Y-50889960D01*
X99783900Y-41512280D02*
X99783900Y-41962280D01*
X101140260Y-51510140D02*
X101140260Y-51060140D01*
X92645440Y-43390820D02*
X92195440Y-43390820D01*
X97543620Y-41959740D02*
X97543620Y-41509740D01*
X93667580Y-51039820D02*
X93667580Y-51489820D01*
X96588580Y-48337260D02*
X96588580Y-48787260D01*
X95849440Y-51489820D02*
X95849440Y-51039820D01*
X93661440Y-48701960D02*
X93211440Y-48701960D01*
X116221300Y-68049140D02*
X116671300Y-68049140D01*
X114372600Y-78171040D02*
X113922600Y-78171040D01*
X112906600Y-78183740D02*
X113356600Y-78183740D01*
X113644680Y-76836480D02*
X113644680Y-76386480D01*
X119781320Y-86157860D02*
X119781320Y-86607860D01*
X119788940Y-87090040D02*
X119788940Y-87540040D01*
X119771160Y-85655360D02*
X119771160Y-85205360D01*
X113634520Y-80435240D02*
X113634520Y-80885240D01*
X102449840Y-41244520D02*
X101999840Y-41244520D01*
X104155240Y-51946600D02*
X104155240Y-52396600D01*
X101528880Y-47361900D02*
X101528880Y-47811900D01*
X98554540Y-46795900D02*
X98554540Y-46345900D01*
X100457000Y-45096220D02*
X100457000Y-45546220D01*
X137467340Y-52650180D02*
X137467340Y-53100180D01*
X135432800Y-52650180D02*
X135432800Y-53100180D01*
X137523220Y-53998920D02*
X137523220Y-54448920D01*
X135463280Y-53986220D02*
X135463280Y-54436220D01*
X114343180Y-64466260D02*
X114343180Y-64916260D01*
X114211100Y-52536300D02*
X114211100Y-52086300D01*
X111780320Y-61618920D02*
X111780320Y-62068920D01*
X109200740Y-57424320D02*
X109650740Y-57424320D01*
X111787940Y-62650160D02*
X111787940Y-63100160D01*
X113643200Y-62344300D02*
X114093200Y-62344300D01*
X112082580Y-52093920D02*
X112082580Y-52543920D01*
X109205820Y-55158640D02*
X109655820Y-55158640D01*
X114605860Y-62349380D02*
X115055860Y-62349380D01*
X111772700Y-63838880D02*
X111772700Y-64288880D01*
X93976539Y-63409481D02*
X93658341Y-63727679D01*
D10*
X111180140Y-55775400D02*
X110305140Y-55775400D01*
X111180140Y-55400400D02*
X111180140Y-55775400D01*
X110305140Y-55400400D02*
X111180140Y-55400400D01*
X115490140Y-54175400D02*
X115490140Y-60175400D01*
X110270140Y-54250400D02*
X110270140Y-60175400D01*
D13*
X97512219Y-69445219D02*
X97194021Y-69127021D01*
X98517361Y-67798601D02*
X98835559Y-68116799D01*
X117675660Y-72079060D02*
X117675660Y-71629060D01*
X123559360Y-74691240D02*
X124009360Y-74691240D01*
X119966740Y-81806840D02*
X119966740Y-82256840D01*
X98541840Y-47811900D02*
X98541840Y-47361900D01*
X103633060Y-46956980D02*
X104083060Y-46956980D01*
X105856500Y-46379313D02*
X105856500Y-46721847D01*
X104836500Y-46379313D02*
X104836500Y-46721847D01*
X125072680Y-42947407D02*
X125072680Y-42604873D01*
X126092680Y-42947407D02*
X126092680Y-42604873D01*
X137267767Y-51886580D02*
X136925233Y-51886580D01*
X137267767Y-50866580D02*
X136925233Y-50866580D01*
X137260147Y-50225420D02*
X136917613Y-50225420D01*
X137260147Y-49205420D02*
X136917613Y-49205420D01*
X131976073Y-45436060D02*
X132318607Y-45436060D01*
X131976073Y-46456060D02*
X132318607Y-46456060D01*
X125634567Y-46463680D02*
X125292033Y-46463680D01*
X125634567Y-45443680D02*
X125292033Y-45443680D01*
X109632960Y-59712860D02*
X109182960Y-59712860D01*
X88730907Y-67118960D02*
X88388373Y-67118960D01*
X88730907Y-66098960D02*
X88388373Y-66098960D01*
X101058440Y-57413073D02*
X101058440Y-57755607D01*
X100038440Y-57413073D02*
X100038440Y-57755607D01*
X94816581Y-73269761D02*
X95134779Y-73587959D01*
X95871379Y-61458761D02*
X95553181Y-61776959D01*
X99660361Y-64121379D02*
X99978559Y-63803181D01*
X91270741Y-65167859D02*
X91588939Y-64849661D01*
X97905360Y-60492640D02*
X98355360Y-60492640D01*
X96379379Y-64253459D02*
X96061181Y-63935261D01*
X92020041Y-68974621D02*
X92338239Y-69292819D01*
X103377079Y-65223739D02*
X103058881Y-64905541D01*
X96787621Y-71319041D02*
X97105819Y-71637239D01*
X92924979Y-70527259D02*
X92606781Y-70209061D01*
X105223659Y-60155741D02*
X104905461Y-60473939D01*
X100295920Y-60495180D02*
X99845920Y-60495180D01*
X94187359Y-69294661D02*
X93869161Y-69612859D01*
X103881841Y-70839679D02*
X104200039Y-70521481D01*
X98573380Y-57716420D02*
X99023380Y-57716420D01*
X101882861Y-70280879D02*
X102201059Y-69962681D01*
X106346500Y-72000509D02*
X106104291Y-71758300D01*
X107067749Y-71279260D02*
X106825540Y-71037051D01*
X94621699Y-66195861D02*
X94303501Y-66514059D01*
X99489800Y-75563547D02*
X99489800Y-75221013D01*
X100509800Y-75563547D02*
X100509800Y-75221013D01*
X103303419Y-77088079D02*
X102985221Y-76769881D01*
X98629869Y-73231500D02*
X98387660Y-73473709D01*
X97908620Y-72510251D02*
X97666411Y-72752460D01*
X102587139Y-76361639D02*
X102268941Y-76043441D01*
X107924600Y-68697900D02*
X107924600Y-69147900D01*
X94388180Y-68795029D02*
X94145971Y-68552820D01*
X95109429Y-68073780D02*
X94867220Y-67831571D01*
X103422101Y-73943559D02*
X103740299Y-73625361D01*
X104980740Y-66196420D02*
X104980740Y-65746420D01*
X98598780Y-75422760D02*
X99048780Y-75422760D01*
X105056940Y-67720420D02*
X105056940Y-67270420D01*
X100587461Y-73148539D02*
X100905659Y-72830341D01*
X106150593Y-64133000D02*
X106493127Y-64133000D01*
X106150593Y-65153000D02*
X106493127Y-65153000D01*
X97473421Y-67417601D02*
X97791619Y-67735799D01*
X100263960Y-66577000D02*
X100263960Y-67027000D01*
X136888760Y-77615867D02*
X136888760Y-77273333D01*
X137908760Y-77615867D02*
X137908760Y-77273333D01*
X138947100Y-77378560D02*
X138497100Y-77378560D01*
M02*
