G04 #@! TF.GenerationSoftware,KiCad,Pcbnew,(5.1.5)-3*
G04 #@! TF.CreationDate,2020-04-21T01:16:50+02:00*
G04 #@! TF.ProjectId,GND_PCB,474e445f-5043-4422-9e6b-696361645f70,rev?*
G04 #@! TF.SameCoordinates,Original*
G04 #@! TF.FileFunction,Copper,L1,Top*
G04 #@! TF.FilePolarity,Positive*
%FSLAX46Y46*%
G04 Gerber Fmt 4.6, Leading zero omitted, Abs format (unit mm)*
G04 Created by KiCad (PCBNEW (5.1.5)-3) date 2020-04-21 01:16:50*
%MOMM*%
%LPD*%
G04 APERTURE LIST*
%ADD10R,3.600000X1.400000*%
%ADD11C,0.800000*%
%ADD12C,5.500000*%
%ADD13C,2.000000*%
%ADD14C,0.150000*%
%ADD15C,0.300000*%
G04 APERTURE END LIST*
D10*
X103300160Y-70571200D03*
X103325160Y-73101200D03*
X103325160Y-75646200D03*
X103325160Y-78181200D03*
X103325160Y-80721200D03*
X103325160Y-83271200D03*
X103325160Y-85801200D03*
X103325160Y-88346200D03*
X103325160Y-90896200D03*
X103325160Y-93446200D03*
X103325160Y-95971200D03*
X103325160Y-98521200D03*
X103325160Y-101046200D03*
X103325160Y-103596200D03*
X103325160Y-106146200D03*
X103325160Y-108696200D03*
X103325160Y-111201200D03*
X103325160Y-113746200D03*
X103325160Y-116281200D03*
X103325160Y-118821200D03*
D11*
X117533420Y-103588460D03*
D12*
X117577780Y-103588460D03*
D11*
X117577780Y-85837120D03*
D12*
X117577780Y-85837120D03*
D13*
X117577780Y-103588460D02*
X117577780Y-109594740D01*
X117577780Y-103588460D02*
X111348880Y-103588460D01*
D14*
X103312460Y-101043660D02*
X104444880Y-101043660D01*
X103312460Y-108693660D02*
X104463140Y-108693660D01*
X103312460Y-106143660D02*
X104347880Y-106143660D01*
X103312460Y-98518660D02*
X104408920Y-98518660D01*
X103312460Y-95968660D02*
X104452580Y-95968660D01*
X103312460Y-93443660D02*
X104406300Y-93443660D01*
X103312460Y-90893660D02*
X104447580Y-90893660D01*
D13*
X117577780Y-103544100D02*
X117533420Y-103588460D01*
X117577780Y-85837120D02*
X117577780Y-103544100D01*
X117577780Y-85837120D02*
X117577780Y-78545780D01*
X117577780Y-85837120D02*
X110957720Y-85837120D01*
D15*
G36*
X120440316Y-69615013D02*
G01*
X120443740Y-83632103D01*
X120380297Y-83537154D01*
X119877746Y-83034603D01*
X119286809Y-82639751D01*
X118630195Y-82367773D01*
X117933137Y-82229120D01*
X117222423Y-82229120D01*
X116525365Y-82367773D01*
X115868751Y-82639751D01*
X115277814Y-83034603D01*
X114775263Y-83537154D01*
X114380411Y-84128091D01*
X114108433Y-84784705D01*
X113969780Y-85481763D01*
X113969780Y-86192477D01*
X114108433Y-86889535D01*
X114380411Y-87546149D01*
X114775263Y-88137086D01*
X115277814Y-88639637D01*
X115868751Y-89034489D01*
X116525365Y-89306467D01*
X117222423Y-89445120D01*
X117933137Y-89445120D01*
X118630195Y-89306467D01*
X119286809Y-89034489D01*
X119877746Y-88639637D01*
X120380297Y-88137086D01*
X120444817Y-88040526D01*
X120448077Y-101389934D01*
X120380297Y-101288494D01*
X119877746Y-100785943D01*
X119286809Y-100391091D01*
X118630195Y-100119113D01*
X117933137Y-99980460D01*
X117222423Y-99980460D01*
X116525365Y-100119113D01*
X115868751Y-100391091D01*
X115277814Y-100785943D01*
X114775263Y-101288494D01*
X114380411Y-101879431D01*
X114108433Y-102536045D01*
X113969780Y-103233103D01*
X113969780Y-103943817D01*
X114108433Y-104640875D01*
X114380411Y-105297489D01*
X114775263Y-105888426D01*
X115277814Y-106390977D01*
X115868751Y-106785829D01*
X116525365Y-107057807D01*
X117222423Y-107196460D01*
X117933137Y-107196460D01*
X118630195Y-107057807D01*
X119286809Y-106785829D01*
X119877746Y-106390977D01*
X120380297Y-105888426D01*
X120449151Y-105785379D01*
X120452585Y-119842752D01*
X105926467Y-119835365D01*
X105970745Y-119689397D01*
X105987311Y-119521200D01*
X105983160Y-119189700D01*
X105768660Y-118975200D01*
X103479160Y-118975200D01*
X103479160Y-118995200D01*
X103171160Y-118995200D01*
X103171160Y-118975200D01*
X103151160Y-118975200D01*
X103151160Y-118667200D01*
X103171160Y-118667200D01*
X103171160Y-116435200D01*
X103479160Y-116435200D01*
X103479160Y-118667200D01*
X105768660Y-118667200D01*
X105983160Y-118452700D01*
X105987311Y-118121200D01*
X105970745Y-117953003D01*
X105921684Y-117791269D01*
X105842012Y-117642215D01*
X105767319Y-117551200D01*
X105842012Y-117460185D01*
X105921684Y-117311131D01*
X105970745Y-117149397D01*
X105987311Y-116981200D01*
X105986637Y-116927331D01*
X107095820Y-116927331D01*
X107095820Y-117362269D01*
X107180672Y-117788850D01*
X107347115Y-118190680D01*
X107588754Y-118552318D01*
X107896302Y-118859866D01*
X108257940Y-119101505D01*
X108659770Y-119267948D01*
X109086351Y-119352800D01*
X109521289Y-119352800D01*
X109947870Y-119267948D01*
X110349700Y-119101505D01*
X110711338Y-118859866D01*
X111018886Y-118552318D01*
X111260525Y-118190680D01*
X111426968Y-117788850D01*
X111511820Y-117362269D01*
X111511820Y-116927331D01*
X111426968Y-116500750D01*
X111260525Y-116098920D01*
X111018886Y-115737282D01*
X110711338Y-115429734D01*
X110349700Y-115188095D01*
X109947870Y-115021652D01*
X109521289Y-114936800D01*
X109086351Y-114936800D01*
X108659770Y-115021652D01*
X108257940Y-115188095D01*
X107896302Y-115429734D01*
X107588754Y-115737282D01*
X107347115Y-116098920D01*
X107180672Y-116500750D01*
X107095820Y-116927331D01*
X105986637Y-116927331D01*
X105983160Y-116649700D01*
X105768660Y-116435200D01*
X103479160Y-116435200D01*
X103171160Y-116435200D01*
X103151160Y-116435200D01*
X103151160Y-116127200D01*
X103171160Y-116127200D01*
X103171160Y-113900200D01*
X103479160Y-113900200D01*
X103479160Y-116127200D01*
X105768660Y-116127200D01*
X105983160Y-115912700D01*
X105987311Y-115581200D01*
X105970745Y-115413003D01*
X105921684Y-115251269D01*
X105842012Y-115102215D01*
X105769370Y-115013700D01*
X105842012Y-114925185D01*
X105921684Y-114776131D01*
X105970745Y-114614397D01*
X105987311Y-114446200D01*
X105983160Y-114114700D01*
X105768660Y-113900200D01*
X103479160Y-113900200D01*
X103171160Y-113900200D01*
X103151160Y-113900200D01*
X103151160Y-113592200D01*
X103171160Y-113592200D01*
X103171160Y-111355200D01*
X103479160Y-111355200D01*
X103479160Y-113592200D01*
X105768660Y-113592200D01*
X105983160Y-113377700D01*
X105987311Y-113046200D01*
X105970745Y-112878003D01*
X105921684Y-112716269D01*
X105842012Y-112567215D01*
X105765267Y-112473700D01*
X105842012Y-112380185D01*
X105921684Y-112231131D01*
X105970745Y-112069397D01*
X105987311Y-111901200D01*
X105983160Y-111569700D01*
X105768660Y-111355200D01*
X103479160Y-111355200D01*
X103171160Y-111355200D01*
X103151160Y-111355200D01*
X103151160Y-111047200D01*
X103171160Y-111047200D01*
X103171160Y-108850200D01*
X103479160Y-108850200D01*
X103479160Y-111047200D01*
X105768660Y-111047200D01*
X105983160Y-110832700D01*
X105987311Y-110501200D01*
X105970745Y-110333003D01*
X105921684Y-110171269D01*
X105842012Y-110022215D01*
X105781680Y-109948700D01*
X105842012Y-109875185D01*
X105921684Y-109726131D01*
X105970745Y-109564397D01*
X105987311Y-109396200D01*
X105983160Y-109064700D01*
X105768660Y-108850200D01*
X103479160Y-108850200D01*
X103171160Y-108850200D01*
X103151160Y-108850200D01*
X103151160Y-108542200D01*
X103171160Y-108542200D01*
X103171160Y-106300200D01*
X103479160Y-106300200D01*
X103479160Y-108542200D01*
X105768660Y-108542200D01*
X105983160Y-108327700D01*
X105987311Y-107996200D01*
X105970745Y-107828003D01*
X105921684Y-107666269D01*
X105842012Y-107517215D01*
X105763215Y-107421200D01*
X105842012Y-107325185D01*
X105921684Y-107176131D01*
X105970745Y-107014397D01*
X105987311Y-106846200D01*
X105983160Y-106514700D01*
X105768660Y-106300200D01*
X103479160Y-106300200D01*
X103171160Y-106300200D01*
X103151160Y-106300200D01*
X103151160Y-105992200D01*
X103171160Y-105992200D01*
X103171160Y-103750200D01*
X103479160Y-103750200D01*
X103479160Y-105992200D01*
X105768660Y-105992200D01*
X105983160Y-105777700D01*
X105987311Y-105446200D01*
X105970745Y-105278003D01*
X105921684Y-105116269D01*
X105842012Y-104967215D01*
X105763215Y-104871200D01*
X105842012Y-104775185D01*
X105921684Y-104626131D01*
X105970745Y-104464397D01*
X105987311Y-104296200D01*
X105983160Y-103964700D01*
X105768660Y-103750200D01*
X103479160Y-103750200D01*
X103171160Y-103750200D01*
X103151160Y-103750200D01*
X103151160Y-103442200D01*
X103171160Y-103442200D01*
X103171160Y-101200200D01*
X103479160Y-101200200D01*
X103479160Y-103442200D01*
X105768660Y-103442200D01*
X105983160Y-103227700D01*
X105987311Y-102896200D01*
X105970745Y-102728003D01*
X105921684Y-102566269D01*
X105842012Y-102417215D01*
X105763215Y-102321200D01*
X105842012Y-102225185D01*
X105921684Y-102076131D01*
X105970745Y-101914397D01*
X105987311Y-101746200D01*
X105983160Y-101414700D01*
X105768660Y-101200200D01*
X103479160Y-101200200D01*
X103171160Y-101200200D01*
X103151160Y-101200200D01*
X103151160Y-100892200D01*
X103171160Y-100892200D01*
X103171160Y-98675200D01*
X103479160Y-98675200D01*
X103479160Y-100892200D01*
X105768660Y-100892200D01*
X105983160Y-100677700D01*
X105987311Y-100346200D01*
X105970745Y-100178003D01*
X105921684Y-100016269D01*
X105842012Y-99867215D01*
X105773474Y-99783700D01*
X105842012Y-99700185D01*
X105921684Y-99551131D01*
X105970745Y-99389397D01*
X105987311Y-99221200D01*
X105983160Y-98889700D01*
X105768660Y-98675200D01*
X103479160Y-98675200D01*
X103171160Y-98675200D01*
X103151160Y-98675200D01*
X103151160Y-98367200D01*
X103171160Y-98367200D01*
X103171160Y-96125200D01*
X103479160Y-96125200D01*
X103479160Y-98367200D01*
X105768660Y-98367200D01*
X105983160Y-98152700D01*
X105987311Y-97821200D01*
X105970745Y-97653003D01*
X105921684Y-97491269D01*
X105842012Y-97342215D01*
X105763215Y-97246200D01*
X105842012Y-97150185D01*
X105921684Y-97001131D01*
X105970745Y-96839397D01*
X105987311Y-96671200D01*
X105983160Y-96339700D01*
X105768660Y-96125200D01*
X103479160Y-96125200D01*
X103171160Y-96125200D01*
X103151160Y-96125200D01*
X103151160Y-95817200D01*
X103171160Y-95817200D01*
X103171160Y-93600200D01*
X103479160Y-93600200D01*
X103479160Y-95817200D01*
X105768660Y-95817200D01*
X105983160Y-95602700D01*
X105987311Y-95271200D01*
X105970745Y-95103003D01*
X105921684Y-94941269D01*
X105842012Y-94792215D01*
X105773474Y-94708700D01*
X105842012Y-94625185D01*
X105921684Y-94476131D01*
X105970745Y-94314397D01*
X105987311Y-94146200D01*
X105983160Y-93814700D01*
X105768660Y-93600200D01*
X103479160Y-93600200D01*
X103171160Y-93600200D01*
X103151160Y-93600200D01*
X103151160Y-93292200D01*
X103171160Y-93292200D01*
X103171160Y-91050200D01*
X103479160Y-91050200D01*
X103479160Y-93292200D01*
X105768660Y-93292200D01*
X105983160Y-93077700D01*
X105987311Y-92746200D01*
X105970745Y-92578003D01*
X105921684Y-92416269D01*
X105842012Y-92267215D01*
X105763215Y-92171200D01*
X105842012Y-92075185D01*
X105921684Y-91926131D01*
X105970745Y-91764397D01*
X105987311Y-91596200D01*
X105983160Y-91264700D01*
X105768660Y-91050200D01*
X103479160Y-91050200D01*
X103171160Y-91050200D01*
X103151160Y-91050200D01*
X103151160Y-90742200D01*
X103171160Y-90742200D01*
X103171160Y-88500200D01*
X103479160Y-88500200D01*
X103479160Y-90742200D01*
X105768660Y-90742200D01*
X105983160Y-90527700D01*
X105987311Y-90196200D01*
X105970745Y-90028003D01*
X105921684Y-89866269D01*
X105842012Y-89717215D01*
X105763215Y-89621200D01*
X105842012Y-89525185D01*
X105921684Y-89376131D01*
X105970745Y-89214397D01*
X105987311Y-89046200D01*
X105983160Y-88714700D01*
X105768660Y-88500200D01*
X103479160Y-88500200D01*
X103171160Y-88500200D01*
X103151160Y-88500200D01*
X103151160Y-88192200D01*
X103171160Y-88192200D01*
X103171160Y-85955200D01*
X103479160Y-85955200D01*
X103479160Y-88192200D01*
X105768660Y-88192200D01*
X105983160Y-87977700D01*
X105987311Y-87646200D01*
X105970745Y-87478003D01*
X105921684Y-87316269D01*
X105842012Y-87167215D01*
X105765267Y-87073700D01*
X105842012Y-86980185D01*
X105921684Y-86831131D01*
X105970745Y-86669397D01*
X105987311Y-86501200D01*
X105983160Y-86169700D01*
X105768660Y-85955200D01*
X103479160Y-85955200D01*
X103171160Y-85955200D01*
X103151160Y-85955200D01*
X103151160Y-85647200D01*
X103171160Y-85647200D01*
X103171160Y-83425200D01*
X103479160Y-83425200D01*
X103479160Y-85647200D01*
X105768660Y-85647200D01*
X105983160Y-85432700D01*
X105987311Y-85101200D01*
X105970745Y-84933003D01*
X105921684Y-84771269D01*
X105842012Y-84622215D01*
X105771422Y-84536200D01*
X105842012Y-84450185D01*
X105921684Y-84301131D01*
X105970745Y-84139397D01*
X105987311Y-83971200D01*
X105983160Y-83639700D01*
X105768660Y-83425200D01*
X103479160Y-83425200D01*
X103171160Y-83425200D01*
X103151160Y-83425200D01*
X103151160Y-83117200D01*
X103171160Y-83117200D01*
X103171160Y-80875200D01*
X103479160Y-80875200D01*
X103479160Y-83117200D01*
X105768660Y-83117200D01*
X105983160Y-82902700D01*
X105987311Y-82571200D01*
X105970745Y-82403003D01*
X105921684Y-82241269D01*
X105842012Y-82092215D01*
X105763215Y-81996200D01*
X105842012Y-81900185D01*
X105921684Y-81751131D01*
X105970745Y-81589397D01*
X105987311Y-81421200D01*
X105983160Y-81089700D01*
X105768660Y-80875200D01*
X103479160Y-80875200D01*
X103171160Y-80875200D01*
X103151160Y-80875200D01*
X103151160Y-80567200D01*
X103171160Y-80567200D01*
X103171160Y-78335200D01*
X103479160Y-78335200D01*
X103479160Y-80567200D01*
X105768660Y-80567200D01*
X105983160Y-80352700D01*
X105987311Y-80021200D01*
X105970745Y-79853003D01*
X105921684Y-79691269D01*
X105842012Y-79542215D01*
X105767319Y-79451200D01*
X105842012Y-79360185D01*
X105921684Y-79211131D01*
X105970745Y-79049397D01*
X105987311Y-78881200D01*
X105983160Y-78549700D01*
X105768660Y-78335200D01*
X103479160Y-78335200D01*
X103171160Y-78335200D01*
X103151160Y-78335200D01*
X103151160Y-78027200D01*
X103171160Y-78027200D01*
X103171160Y-75800200D01*
X103479160Y-75800200D01*
X103479160Y-78027200D01*
X105768660Y-78027200D01*
X105983160Y-77812700D01*
X105987311Y-77481200D01*
X105970745Y-77313003D01*
X105921684Y-77151269D01*
X105842012Y-77002215D01*
X105769370Y-76913700D01*
X105842012Y-76825185D01*
X105921684Y-76676131D01*
X105970745Y-76514397D01*
X105987311Y-76346200D01*
X105983160Y-76014700D01*
X105768660Y-75800200D01*
X103479160Y-75800200D01*
X103171160Y-75800200D01*
X103151160Y-75800200D01*
X103151160Y-75492200D01*
X103171160Y-75492200D01*
X103171160Y-73255200D01*
X103479160Y-73255200D01*
X103479160Y-75492200D01*
X105768660Y-75492200D01*
X105983160Y-75277700D01*
X105987311Y-74946200D01*
X105970745Y-74778003D01*
X105921684Y-74616269D01*
X105842012Y-74467215D01*
X105765267Y-74373700D01*
X105842012Y-74280185D01*
X105921684Y-74131131D01*
X105970745Y-73969397D01*
X105987311Y-73801200D01*
X105983160Y-73469700D01*
X105768660Y-73255200D01*
X103479160Y-73255200D01*
X103171160Y-73255200D01*
X103151160Y-73255200D01*
X103151160Y-72947200D01*
X103171160Y-72947200D01*
X103171160Y-71757700D01*
X103146160Y-71732700D01*
X103146160Y-70725200D01*
X103454160Y-70725200D01*
X103454160Y-71914700D01*
X103479160Y-71939700D01*
X103479160Y-72947200D01*
X105768660Y-72947200D01*
X105983160Y-72732700D01*
X105987311Y-72401200D01*
X105970745Y-72233003D01*
X105921684Y-72071269D01*
X105913358Y-72055691D01*
X107067880Y-72055691D01*
X107067880Y-72490629D01*
X107152732Y-72917210D01*
X107319175Y-73319040D01*
X107560814Y-73680678D01*
X107868362Y-73988226D01*
X108230000Y-74229865D01*
X108631830Y-74396308D01*
X109058411Y-74481160D01*
X109493349Y-74481160D01*
X109919930Y-74396308D01*
X110321760Y-74229865D01*
X110683398Y-73988226D01*
X110990946Y-73680678D01*
X111232585Y-73319040D01*
X111399028Y-72917210D01*
X111483880Y-72490629D01*
X111483880Y-72055691D01*
X111399028Y-71629110D01*
X111232585Y-71227280D01*
X110990946Y-70865642D01*
X110683398Y-70558094D01*
X110321760Y-70316455D01*
X109919930Y-70150012D01*
X109493349Y-70065160D01*
X109058411Y-70065160D01*
X108631830Y-70150012D01*
X108230000Y-70316455D01*
X107868362Y-70558094D01*
X107560814Y-70865642D01*
X107319175Y-71227280D01*
X107152732Y-71629110D01*
X107067880Y-72055691D01*
X105913358Y-72055691D01*
X105842012Y-71922215D01*
X105758922Y-71820969D01*
X105817012Y-71750185D01*
X105896684Y-71601131D01*
X105945745Y-71439397D01*
X105962311Y-71271200D01*
X105958160Y-70939700D01*
X105743660Y-70725200D01*
X103454160Y-70725200D01*
X103146160Y-70725200D01*
X103126160Y-70725200D01*
X103126160Y-70417200D01*
X103146160Y-70417200D01*
X103146160Y-70397200D01*
X103454160Y-70397200D01*
X103454160Y-70417200D01*
X105743660Y-70417200D01*
X105958160Y-70202700D01*
X105962311Y-69871200D01*
X105945745Y-69703003D01*
X105917126Y-69608657D01*
X120440316Y-69615013D01*
G37*
X120440316Y-69615013D02*
X120443740Y-83632103D01*
X120380297Y-83537154D01*
X119877746Y-83034603D01*
X119286809Y-82639751D01*
X118630195Y-82367773D01*
X117933137Y-82229120D01*
X117222423Y-82229120D01*
X116525365Y-82367773D01*
X115868751Y-82639751D01*
X115277814Y-83034603D01*
X114775263Y-83537154D01*
X114380411Y-84128091D01*
X114108433Y-84784705D01*
X113969780Y-85481763D01*
X113969780Y-86192477D01*
X114108433Y-86889535D01*
X114380411Y-87546149D01*
X114775263Y-88137086D01*
X115277814Y-88639637D01*
X115868751Y-89034489D01*
X116525365Y-89306467D01*
X117222423Y-89445120D01*
X117933137Y-89445120D01*
X118630195Y-89306467D01*
X119286809Y-89034489D01*
X119877746Y-88639637D01*
X120380297Y-88137086D01*
X120444817Y-88040526D01*
X120448077Y-101389934D01*
X120380297Y-101288494D01*
X119877746Y-100785943D01*
X119286809Y-100391091D01*
X118630195Y-100119113D01*
X117933137Y-99980460D01*
X117222423Y-99980460D01*
X116525365Y-100119113D01*
X115868751Y-100391091D01*
X115277814Y-100785943D01*
X114775263Y-101288494D01*
X114380411Y-101879431D01*
X114108433Y-102536045D01*
X113969780Y-103233103D01*
X113969780Y-103943817D01*
X114108433Y-104640875D01*
X114380411Y-105297489D01*
X114775263Y-105888426D01*
X115277814Y-106390977D01*
X115868751Y-106785829D01*
X116525365Y-107057807D01*
X117222423Y-107196460D01*
X117933137Y-107196460D01*
X118630195Y-107057807D01*
X119286809Y-106785829D01*
X119877746Y-106390977D01*
X120380297Y-105888426D01*
X120449151Y-105785379D01*
X120452585Y-119842752D01*
X105926467Y-119835365D01*
X105970745Y-119689397D01*
X105987311Y-119521200D01*
X105983160Y-119189700D01*
X105768660Y-118975200D01*
X103479160Y-118975200D01*
X103479160Y-118995200D01*
X103171160Y-118995200D01*
X103171160Y-118975200D01*
X103151160Y-118975200D01*
X103151160Y-118667200D01*
X103171160Y-118667200D01*
X103171160Y-116435200D01*
X103479160Y-116435200D01*
X103479160Y-118667200D01*
X105768660Y-118667200D01*
X105983160Y-118452700D01*
X105987311Y-118121200D01*
X105970745Y-117953003D01*
X105921684Y-117791269D01*
X105842012Y-117642215D01*
X105767319Y-117551200D01*
X105842012Y-117460185D01*
X105921684Y-117311131D01*
X105970745Y-117149397D01*
X105987311Y-116981200D01*
X105986637Y-116927331D01*
X107095820Y-116927331D01*
X107095820Y-117362269D01*
X107180672Y-117788850D01*
X107347115Y-118190680D01*
X107588754Y-118552318D01*
X107896302Y-118859866D01*
X108257940Y-119101505D01*
X108659770Y-119267948D01*
X109086351Y-119352800D01*
X109521289Y-119352800D01*
X109947870Y-119267948D01*
X110349700Y-119101505D01*
X110711338Y-118859866D01*
X111018886Y-118552318D01*
X111260525Y-118190680D01*
X111426968Y-117788850D01*
X111511820Y-117362269D01*
X111511820Y-116927331D01*
X111426968Y-116500750D01*
X111260525Y-116098920D01*
X111018886Y-115737282D01*
X110711338Y-115429734D01*
X110349700Y-115188095D01*
X109947870Y-115021652D01*
X109521289Y-114936800D01*
X109086351Y-114936800D01*
X108659770Y-115021652D01*
X108257940Y-115188095D01*
X107896302Y-115429734D01*
X107588754Y-115737282D01*
X107347115Y-116098920D01*
X107180672Y-116500750D01*
X107095820Y-116927331D01*
X105986637Y-116927331D01*
X105983160Y-116649700D01*
X105768660Y-116435200D01*
X103479160Y-116435200D01*
X103171160Y-116435200D01*
X103151160Y-116435200D01*
X103151160Y-116127200D01*
X103171160Y-116127200D01*
X103171160Y-113900200D01*
X103479160Y-113900200D01*
X103479160Y-116127200D01*
X105768660Y-116127200D01*
X105983160Y-115912700D01*
X105987311Y-115581200D01*
X105970745Y-115413003D01*
X105921684Y-115251269D01*
X105842012Y-115102215D01*
X105769370Y-115013700D01*
X105842012Y-114925185D01*
X105921684Y-114776131D01*
X105970745Y-114614397D01*
X105987311Y-114446200D01*
X105983160Y-114114700D01*
X105768660Y-113900200D01*
X103479160Y-113900200D01*
X103171160Y-113900200D01*
X103151160Y-113900200D01*
X103151160Y-113592200D01*
X103171160Y-113592200D01*
X103171160Y-111355200D01*
X103479160Y-111355200D01*
X103479160Y-113592200D01*
X105768660Y-113592200D01*
X105983160Y-113377700D01*
X105987311Y-113046200D01*
X105970745Y-112878003D01*
X105921684Y-112716269D01*
X105842012Y-112567215D01*
X105765267Y-112473700D01*
X105842012Y-112380185D01*
X105921684Y-112231131D01*
X105970745Y-112069397D01*
X105987311Y-111901200D01*
X105983160Y-111569700D01*
X105768660Y-111355200D01*
X103479160Y-111355200D01*
X103171160Y-111355200D01*
X103151160Y-111355200D01*
X103151160Y-111047200D01*
X103171160Y-111047200D01*
X103171160Y-108850200D01*
X103479160Y-108850200D01*
X103479160Y-111047200D01*
X105768660Y-111047200D01*
X105983160Y-110832700D01*
X105987311Y-110501200D01*
X105970745Y-110333003D01*
X105921684Y-110171269D01*
X105842012Y-110022215D01*
X105781680Y-109948700D01*
X105842012Y-109875185D01*
X105921684Y-109726131D01*
X105970745Y-109564397D01*
X105987311Y-109396200D01*
X105983160Y-109064700D01*
X105768660Y-108850200D01*
X103479160Y-108850200D01*
X103171160Y-108850200D01*
X103151160Y-108850200D01*
X103151160Y-108542200D01*
X103171160Y-108542200D01*
X103171160Y-106300200D01*
X103479160Y-106300200D01*
X103479160Y-108542200D01*
X105768660Y-108542200D01*
X105983160Y-108327700D01*
X105987311Y-107996200D01*
X105970745Y-107828003D01*
X105921684Y-107666269D01*
X105842012Y-107517215D01*
X105763215Y-107421200D01*
X105842012Y-107325185D01*
X105921684Y-107176131D01*
X105970745Y-107014397D01*
X105987311Y-106846200D01*
X105983160Y-106514700D01*
X105768660Y-106300200D01*
X103479160Y-106300200D01*
X103171160Y-106300200D01*
X103151160Y-106300200D01*
X103151160Y-105992200D01*
X103171160Y-105992200D01*
X103171160Y-103750200D01*
X103479160Y-103750200D01*
X103479160Y-105992200D01*
X105768660Y-105992200D01*
X105983160Y-105777700D01*
X105987311Y-105446200D01*
X105970745Y-105278003D01*
X105921684Y-105116269D01*
X105842012Y-104967215D01*
X105763215Y-104871200D01*
X105842012Y-104775185D01*
X105921684Y-104626131D01*
X105970745Y-104464397D01*
X105987311Y-104296200D01*
X105983160Y-103964700D01*
X105768660Y-103750200D01*
X103479160Y-103750200D01*
X103171160Y-103750200D01*
X103151160Y-103750200D01*
X103151160Y-103442200D01*
X103171160Y-103442200D01*
X103171160Y-101200200D01*
X103479160Y-101200200D01*
X103479160Y-103442200D01*
X105768660Y-103442200D01*
X105983160Y-103227700D01*
X105987311Y-102896200D01*
X105970745Y-102728003D01*
X105921684Y-102566269D01*
X105842012Y-102417215D01*
X105763215Y-102321200D01*
X105842012Y-102225185D01*
X105921684Y-102076131D01*
X105970745Y-101914397D01*
X105987311Y-101746200D01*
X105983160Y-101414700D01*
X105768660Y-101200200D01*
X103479160Y-101200200D01*
X103171160Y-101200200D01*
X103151160Y-101200200D01*
X103151160Y-100892200D01*
X103171160Y-100892200D01*
X103171160Y-98675200D01*
X103479160Y-98675200D01*
X103479160Y-100892200D01*
X105768660Y-100892200D01*
X105983160Y-100677700D01*
X105987311Y-100346200D01*
X105970745Y-100178003D01*
X105921684Y-100016269D01*
X105842012Y-99867215D01*
X105773474Y-99783700D01*
X105842012Y-99700185D01*
X105921684Y-99551131D01*
X105970745Y-99389397D01*
X105987311Y-99221200D01*
X105983160Y-98889700D01*
X105768660Y-98675200D01*
X103479160Y-98675200D01*
X103171160Y-98675200D01*
X103151160Y-98675200D01*
X103151160Y-98367200D01*
X103171160Y-98367200D01*
X103171160Y-96125200D01*
X103479160Y-96125200D01*
X103479160Y-98367200D01*
X105768660Y-98367200D01*
X105983160Y-98152700D01*
X105987311Y-97821200D01*
X105970745Y-97653003D01*
X105921684Y-97491269D01*
X105842012Y-97342215D01*
X105763215Y-97246200D01*
X105842012Y-97150185D01*
X105921684Y-97001131D01*
X105970745Y-96839397D01*
X105987311Y-96671200D01*
X105983160Y-96339700D01*
X105768660Y-96125200D01*
X103479160Y-96125200D01*
X103171160Y-96125200D01*
X103151160Y-96125200D01*
X103151160Y-95817200D01*
X103171160Y-95817200D01*
X103171160Y-93600200D01*
X103479160Y-93600200D01*
X103479160Y-95817200D01*
X105768660Y-95817200D01*
X105983160Y-95602700D01*
X105987311Y-95271200D01*
X105970745Y-95103003D01*
X105921684Y-94941269D01*
X105842012Y-94792215D01*
X105773474Y-94708700D01*
X105842012Y-94625185D01*
X105921684Y-94476131D01*
X105970745Y-94314397D01*
X105987311Y-94146200D01*
X105983160Y-93814700D01*
X105768660Y-93600200D01*
X103479160Y-93600200D01*
X103171160Y-93600200D01*
X103151160Y-93600200D01*
X103151160Y-93292200D01*
X103171160Y-93292200D01*
X103171160Y-91050200D01*
X103479160Y-91050200D01*
X103479160Y-93292200D01*
X105768660Y-93292200D01*
X105983160Y-93077700D01*
X105987311Y-92746200D01*
X105970745Y-92578003D01*
X105921684Y-92416269D01*
X105842012Y-92267215D01*
X105763215Y-92171200D01*
X105842012Y-92075185D01*
X105921684Y-91926131D01*
X105970745Y-91764397D01*
X105987311Y-91596200D01*
X105983160Y-91264700D01*
X105768660Y-91050200D01*
X103479160Y-91050200D01*
X103171160Y-91050200D01*
X103151160Y-91050200D01*
X103151160Y-90742200D01*
X103171160Y-90742200D01*
X103171160Y-88500200D01*
X103479160Y-88500200D01*
X103479160Y-90742200D01*
X105768660Y-90742200D01*
X105983160Y-90527700D01*
X105987311Y-90196200D01*
X105970745Y-90028003D01*
X105921684Y-89866269D01*
X105842012Y-89717215D01*
X105763215Y-89621200D01*
X105842012Y-89525185D01*
X105921684Y-89376131D01*
X105970745Y-89214397D01*
X105987311Y-89046200D01*
X105983160Y-88714700D01*
X105768660Y-88500200D01*
X103479160Y-88500200D01*
X103171160Y-88500200D01*
X103151160Y-88500200D01*
X103151160Y-88192200D01*
X103171160Y-88192200D01*
X103171160Y-85955200D01*
X103479160Y-85955200D01*
X103479160Y-88192200D01*
X105768660Y-88192200D01*
X105983160Y-87977700D01*
X105987311Y-87646200D01*
X105970745Y-87478003D01*
X105921684Y-87316269D01*
X105842012Y-87167215D01*
X105765267Y-87073700D01*
X105842012Y-86980185D01*
X105921684Y-86831131D01*
X105970745Y-86669397D01*
X105987311Y-86501200D01*
X105983160Y-86169700D01*
X105768660Y-85955200D01*
X103479160Y-85955200D01*
X103171160Y-85955200D01*
X103151160Y-85955200D01*
X103151160Y-85647200D01*
X103171160Y-85647200D01*
X103171160Y-83425200D01*
X103479160Y-83425200D01*
X103479160Y-85647200D01*
X105768660Y-85647200D01*
X105983160Y-85432700D01*
X105987311Y-85101200D01*
X105970745Y-84933003D01*
X105921684Y-84771269D01*
X105842012Y-84622215D01*
X105771422Y-84536200D01*
X105842012Y-84450185D01*
X105921684Y-84301131D01*
X105970745Y-84139397D01*
X105987311Y-83971200D01*
X105983160Y-83639700D01*
X105768660Y-83425200D01*
X103479160Y-83425200D01*
X103171160Y-83425200D01*
X103151160Y-83425200D01*
X103151160Y-83117200D01*
X103171160Y-83117200D01*
X103171160Y-80875200D01*
X103479160Y-80875200D01*
X103479160Y-83117200D01*
X105768660Y-83117200D01*
X105983160Y-82902700D01*
X105987311Y-82571200D01*
X105970745Y-82403003D01*
X105921684Y-82241269D01*
X105842012Y-82092215D01*
X105763215Y-81996200D01*
X105842012Y-81900185D01*
X105921684Y-81751131D01*
X105970745Y-81589397D01*
X105987311Y-81421200D01*
X105983160Y-81089700D01*
X105768660Y-80875200D01*
X103479160Y-80875200D01*
X103171160Y-80875200D01*
X103151160Y-80875200D01*
X103151160Y-80567200D01*
X103171160Y-80567200D01*
X103171160Y-78335200D01*
X103479160Y-78335200D01*
X103479160Y-80567200D01*
X105768660Y-80567200D01*
X105983160Y-80352700D01*
X105987311Y-80021200D01*
X105970745Y-79853003D01*
X105921684Y-79691269D01*
X105842012Y-79542215D01*
X105767319Y-79451200D01*
X105842012Y-79360185D01*
X105921684Y-79211131D01*
X105970745Y-79049397D01*
X105987311Y-78881200D01*
X105983160Y-78549700D01*
X105768660Y-78335200D01*
X103479160Y-78335200D01*
X103171160Y-78335200D01*
X103151160Y-78335200D01*
X103151160Y-78027200D01*
X103171160Y-78027200D01*
X103171160Y-75800200D01*
X103479160Y-75800200D01*
X103479160Y-78027200D01*
X105768660Y-78027200D01*
X105983160Y-77812700D01*
X105987311Y-77481200D01*
X105970745Y-77313003D01*
X105921684Y-77151269D01*
X105842012Y-77002215D01*
X105769370Y-76913700D01*
X105842012Y-76825185D01*
X105921684Y-76676131D01*
X105970745Y-76514397D01*
X105987311Y-76346200D01*
X105983160Y-76014700D01*
X105768660Y-75800200D01*
X103479160Y-75800200D01*
X103171160Y-75800200D01*
X103151160Y-75800200D01*
X103151160Y-75492200D01*
X103171160Y-75492200D01*
X103171160Y-73255200D01*
X103479160Y-73255200D01*
X103479160Y-75492200D01*
X105768660Y-75492200D01*
X105983160Y-75277700D01*
X105987311Y-74946200D01*
X105970745Y-74778003D01*
X105921684Y-74616269D01*
X105842012Y-74467215D01*
X105765267Y-74373700D01*
X105842012Y-74280185D01*
X105921684Y-74131131D01*
X105970745Y-73969397D01*
X105987311Y-73801200D01*
X105983160Y-73469700D01*
X105768660Y-73255200D01*
X103479160Y-73255200D01*
X103171160Y-73255200D01*
X103151160Y-73255200D01*
X103151160Y-72947200D01*
X103171160Y-72947200D01*
X103171160Y-71757700D01*
X103146160Y-71732700D01*
X103146160Y-70725200D01*
X103454160Y-70725200D01*
X103454160Y-71914700D01*
X103479160Y-71939700D01*
X103479160Y-72947200D01*
X105768660Y-72947200D01*
X105983160Y-72732700D01*
X105987311Y-72401200D01*
X105970745Y-72233003D01*
X105921684Y-72071269D01*
X105913358Y-72055691D01*
X107067880Y-72055691D01*
X107067880Y-72490629D01*
X107152732Y-72917210D01*
X107319175Y-73319040D01*
X107560814Y-73680678D01*
X107868362Y-73988226D01*
X108230000Y-74229865D01*
X108631830Y-74396308D01*
X109058411Y-74481160D01*
X109493349Y-74481160D01*
X109919930Y-74396308D01*
X110321760Y-74229865D01*
X110683398Y-73988226D01*
X110990946Y-73680678D01*
X111232585Y-73319040D01*
X111399028Y-72917210D01*
X111483880Y-72490629D01*
X111483880Y-72055691D01*
X111399028Y-71629110D01*
X111232585Y-71227280D01*
X110990946Y-70865642D01*
X110683398Y-70558094D01*
X110321760Y-70316455D01*
X109919930Y-70150012D01*
X109493349Y-70065160D01*
X109058411Y-70065160D01*
X108631830Y-70150012D01*
X108230000Y-70316455D01*
X107868362Y-70558094D01*
X107560814Y-70865642D01*
X107319175Y-71227280D01*
X107152732Y-71629110D01*
X107067880Y-72055691D01*
X105913358Y-72055691D01*
X105842012Y-71922215D01*
X105758922Y-71820969D01*
X105817012Y-71750185D01*
X105896684Y-71601131D01*
X105945745Y-71439397D01*
X105962311Y-71271200D01*
X105958160Y-70939700D01*
X105743660Y-70725200D01*
X103454160Y-70725200D01*
X103146160Y-70725200D01*
X103126160Y-70725200D01*
X103126160Y-70417200D01*
X103146160Y-70417200D01*
X103146160Y-70397200D01*
X103454160Y-70397200D01*
X103454160Y-70417200D01*
X105743660Y-70417200D01*
X105958160Y-70202700D01*
X105962311Y-69871200D01*
X105945745Y-69703003D01*
X105917126Y-69608657D01*
X120440316Y-69615013D01*
M02*
