G04 #@! TF.GenerationSoftware,KiCad,Pcbnew,(5.1.5)-3*
G04 #@! TF.CreationDate,2020-04-21T01:16:50+02:00*
G04 #@! TF.ProjectId,GND_PCB,474e445f-5043-4422-9e6b-696361645f70,rev?*
G04 #@! TF.SameCoordinates,Original*
G04 #@! TF.FileFunction,Legend,Top*
G04 #@! TF.FilePolarity,Positive*
%FSLAX46Y46*%
G04 Gerber Fmt 4.6, Leading zero omitted, Abs format (unit mm)*
G04 Created by KiCad (PCBNEW (5.1.5)-3) date 2020-04-21 01:16:50*
%MOMM*%
%LPD*%
G04 APERTURE LIST*
%ADD10C,0.120000*%
%ADD11C,0.150000*%
G04 APERTURE END LIST*
D10*
X101325160Y-120146200D02*
X101325160Y-117471200D01*
X101325160Y-117471200D02*
X101325160Y-69231200D01*
X105225160Y-69231200D02*
X101325160Y-69231200D01*
X105225160Y-120141200D02*
X105225160Y-69231200D01*
X105225160Y-120151200D02*
X101325160Y-120151200D01*
D11*
X100959445Y-121043580D02*
X100959445Y-121757866D01*
X100911826Y-121900723D01*
X100816588Y-121995961D01*
X100673731Y-122043580D01*
X100578493Y-122043580D01*
X101959445Y-122043580D02*
X101388017Y-122043580D01*
X101673731Y-122043580D02*
X101673731Y-121043580D01*
X101578493Y-121186438D01*
X101483255Y-121281676D01*
X101388017Y-121329295D01*
X102578493Y-121043580D02*
X102673731Y-121043580D01*
X102768969Y-121091200D01*
X102816588Y-121138819D01*
X102864207Y-121234057D01*
X102911826Y-121424533D01*
X102911826Y-121662628D01*
X102864207Y-121853104D01*
X102816588Y-121948342D01*
X102768969Y-121995961D01*
X102673731Y-122043580D01*
X102578493Y-122043580D01*
X102483255Y-121995961D01*
X102435636Y-121948342D01*
X102388017Y-121853104D01*
X102340398Y-121662628D01*
X102340398Y-121424533D01*
X102388017Y-121234057D01*
X102435636Y-121138819D01*
X102483255Y-121091200D01*
X102578493Y-121043580D01*
X103768969Y-121376914D02*
X103768969Y-122043580D01*
X103530874Y-120995961D02*
X103292779Y-121710247D01*
X103911826Y-121710247D01*
M02*
