G04 #@! TF.GenerationSoftware,KiCad,Pcbnew,(5.1.5)-3*
G04 #@! TF.CreationDate,2020-04-21T01:15:04+02:00*
G04 #@! TF.ProjectId,GND_PCB,474e445f-5043-4422-9e6b-696361645f70,rev?*
G04 #@! TF.SameCoordinates,Original*
G04 #@! TF.FileFunction,Soldermask,Bot*
G04 #@! TF.FilePolarity,Negative*
%FSLAX46Y46*%
G04 Gerber Fmt 4.6, Leading zero omitted, Abs format (unit mm)*
G04 Created by KiCad (PCBNEW (5.1.5)-3) date 2020-04-21 01:15:04*
%MOMM*%
%LPD*%
G04 APERTURE LIST*
%ADD10C,0.100000*%
G04 APERTURE END LIST*
D10*
G36*
X109622253Y-115779693D02*
G01*
X109712477Y-115797639D01*
X109818087Y-115841385D01*
X109967441Y-115903249D01*
X109967442Y-115903250D01*
X110196906Y-116056572D01*
X110392048Y-116251714D01*
X110494495Y-116405037D01*
X110545371Y-116481179D01*
X110650981Y-116736144D01*
X110704820Y-117006812D01*
X110704820Y-117282788D01*
X110650981Y-117553456D01*
X110545371Y-117808421D01*
X110545370Y-117808422D01*
X110392048Y-118037886D01*
X110196906Y-118233028D01*
X110043583Y-118335475D01*
X109967441Y-118386351D01*
X109818087Y-118448215D01*
X109712477Y-118491961D01*
X109622253Y-118509907D01*
X109441808Y-118545800D01*
X109165832Y-118545800D01*
X108985387Y-118509907D01*
X108895163Y-118491961D01*
X108789553Y-118448215D01*
X108640199Y-118386351D01*
X108564057Y-118335475D01*
X108410734Y-118233028D01*
X108215592Y-118037886D01*
X108062270Y-117808422D01*
X108062269Y-117808421D01*
X107956659Y-117553456D01*
X107902820Y-117282788D01*
X107902820Y-117006812D01*
X107956659Y-116736144D01*
X108062269Y-116481179D01*
X108113145Y-116405037D01*
X108215592Y-116251714D01*
X108410734Y-116056572D01*
X108640198Y-115903250D01*
X108640199Y-115903249D01*
X108789553Y-115841385D01*
X108895163Y-115797639D01*
X108985387Y-115779693D01*
X109165832Y-115743800D01*
X109441808Y-115743800D01*
X109622253Y-115779693D01*
G37*
G36*
X118394801Y-100895100D02*
G01*
X118904549Y-101106245D01*
X118904551Y-101106246D01*
X119363314Y-101412781D01*
X119753459Y-101802926D01*
X120059994Y-102261689D01*
X120059995Y-102261691D01*
X120271140Y-102771439D01*
X120378780Y-103312584D01*
X120378780Y-103864336D01*
X120271140Y-104405481D01*
X120059995Y-104915229D01*
X120059994Y-104915231D01*
X119753459Y-105373994D01*
X119363314Y-105764139D01*
X118904551Y-106070674D01*
X118904550Y-106070675D01*
X118904549Y-106070675D01*
X118394801Y-106281820D01*
X117853656Y-106389460D01*
X117301904Y-106389460D01*
X116760759Y-106281820D01*
X116251011Y-106070675D01*
X116251010Y-106070675D01*
X116251009Y-106070674D01*
X115792246Y-105764139D01*
X115402101Y-105373994D01*
X115095566Y-104915231D01*
X115095565Y-104915229D01*
X114884420Y-104405481D01*
X114776780Y-103864336D01*
X114776780Y-103312584D01*
X114884420Y-102771439D01*
X115095565Y-102261691D01*
X115095566Y-102261689D01*
X115402101Y-101802926D01*
X115792246Y-101412781D01*
X116251009Y-101106246D01*
X116251011Y-101106245D01*
X116760759Y-100895100D01*
X117301904Y-100787460D01*
X117853656Y-100787460D01*
X118394801Y-100895100D01*
G37*
G36*
X118394801Y-83143760D02*
G01*
X118904549Y-83354905D01*
X118904551Y-83354906D01*
X119363314Y-83661441D01*
X119753459Y-84051586D01*
X120059994Y-84510349D01*
X120059995Y-84510351D01*
X120271140Y-85020099D01*
X120378780Y-85561244D01*
X120378780Y-86112996D01*
X120271140Y-86654141D01*
X120059995Y-87163889D01*
X120059994Y-87163891D01*
X119753459Y-87622654D01*
X119363314Y-88012799D01*
X118904551Y-88319334D01*
X118904550Y-88319335D01*
X118904549Y-88319335D01*
X118394801Y-88530480D01*
X117853656Y-88638120D01*
X117301904Y-88638120D01*
X116760759Y-88530480D01*
X116251011Y-88319335D01*
X116251010Y-88319335D01*
X116251009Y-88319334D01*
X115792246Y-88012799D01*
X115402101Y-87622654D01*
X115095566Y-87163891D01*
X115095565Y-87163889D01*
X114884420Y-86654141D01*
X114776780Y-86112996D01*
X114776780Y-85561244D01*
X114884420Y-85020099D01*
X115095565Y-84510351D01*
X115095566Y-84510349D01*
X115402101Y-84051586D01*
X115792246Y-83661441D01*
X116251009Y-83354906D01*
X116251011Y-83354905D01*
X116760759Y-83143760D01*
X117301904Y-83036120D01*
X117853656Y-83036120D01*
X118394801Y-83143760D01*
G37*
G36*
X109594313Y-70908053D02*
G01*
X109684537Y-70925999D01*
X109790147Y-70969745D01*
X109939501Y-71031609D01*
X109939502Y-71031610D01*
X110168966Y-71184932D01*
X110364108Y-71380074D01*
X110466555Y-71533397D01*
X110517431Y-71609539D01*
X110623041Y-71864504D01*
X110676880Y-72135172D01*
X110676880Y-72411148D01*
X110623041Y-72681816D01*
X110517431Y-72936781D01*
X110517430Y-72936782D01*
X110364108Y-73166246D01*
X110168966Y-73361388D01*
X110015643Y-73463835D01*
X109939501Y-73514711D01*
X109790147Y-73576575D01*
X109684537Y-73620321D01*
X109594313Y-73638267D01*
X109413868Y-73674160D01*
X109137892Y-73674160D01*
X108957447Y-73638267D01*
X108867223Y-73620321D01*
X108761613Y-73576575D01*
X108612259Y-73514711D01*
X108536117Y-73463835D01*
X108382794Y-73361388D01*
X108187652Y-73166246D01*
X108034330Y-72936782D01*
X108034329Y-72936781D01*
X107928719Y-72681816D01*
X107874880Y-72411148D01*
X107874880Y-72135172D01*
X107928719Y-71864504D01*
X108034329Y-71609539D01*
X108085205Y-71533397D01*
X108187652Y-71380074D01*
X108382794Y-71184932D01*
X108612258Y-71031610D01*
X108612259Y-71031609D01*
X108761613Y-70969745D01*
X108867223Y-70925999D01*
X108957447Y-70908053D01*
X109137892Y-70872160D01*
X109413868Y-70872160D01*
X109594313Y-70908053D01*
G37*
M02*
